{
  "accessors": [
    {
      "bufferView": 2,
      "componentType": 5126,
      "count": 65532,
      "max": [
        0.9317770004272461,
        0.997935950756073,
        0.979728102684021
      ],
      "min": [
        -0.979728102684021,
        -0.997935950756073,
        -0.9797282814979553
      ],
      "type": "VEC3"
    },
    {
      "bufferView": 2,
      "byteOffset": 786384,
      "componentType": 5126,
      "count": 65532,
      "max": [
        0.9510573744773865,
        1.0,
        1.0
      ],
      "min": [
        -1.0,
        -1.0,
        -1.0
      ],
      "type": "VEC3"
    },
    {
      "bufferView": 1,
      "componentType": 5126,
      "count": 65532,
      "max": [
        1.0000001192092896,
        1.0
      ],
      "min": [
        0.0,
        0.0
      ],
      "type": "VEC2"
    },
    {
      "bufferView": 1,
      "byteOffset": 524256,
      "componentType": 5126,
      "count": 65532,
      "max": [
        1.0000001192092896,
        1.0
      ],
      "min": [
        0.0,
        0.0
      ],
      "type": "VEC2"
    },
    {
      "bufferView": 0,
      "componentType": 5125,
      "count": 366579,
      "type": "SCALAR"
    },
    {
      "bufferView": 2,
      "byteOffset": 1572768,
      "componentType": 5126,
      "count": 42904,
      "max": [
        0.9797280430793762,
        0.997935950756073,
        0.979728102684021
      ],
      "min": [
        -0.9687954187393188,
        -0.997935950756073,
        -0.6592332124710083
      ],
      "type": "VEC3"
    },
    {
      "bufferView": 2,
      "byteOffset": 2087616,
      "componentType": 5126,
      "count": 42904,
      "max": [
        1.0,
        1.0,
        1.0
      ],
      "min": [
        -0.9891408681869507,
        -1.0,
        -0.6778358221054077
      ],
      "type": "VEC3"
    },
    {
      "bufferView": 1,
      "byteOffset": 1048512,
      "componentType": 5126,
      "count": 42904,
      "max": [
        1.0000001192092896,
        1.0
      ],
      "min": [
        0.0,
        0.0
      ],
      "type": "VEC2"
    },
    {
      "bufferView": 1,
      "byteOffset": 1391744,
      "componentType": 5126,
      "count": 42904,
      "max": [
        1.0000001192092896,
        1.0
      ],
      "min": [
        0.0,
        0.0
      ],
      "type": "VEC2"
    },
    {
      "bufferView": 0,
      "byteOffset": 1466316,
      "componentType": 5125,
      "count": 232461,
      "type": "SCALAR"
    },
    {
      "bufferView": 2,
      "byteOffset": 2602464,
      "componentType": 5126,
      "count": 65532,
      "max": [
        0.9317770004272461,
        0.997935950756073,
        0.979728102684021
      ],
      "min": [
        -0.979728102684021,
        -0.997935950756073,
        -0.9797282814979553
      ],
      "type": "VEC3"
    },
    {
      "bufferView": 2,
      "byteOffset": 3388848,
      "componentType": 5126,
      "count": 65532,
      "max": [
        0.9510573744773865,
        1.0,
        1.0
      ],
      "min": [
        -1.0,
        -1.0,
        -1.0
      ],
      "type": "VEC3"
    },
    {
      "bufferView": 1,
      "byteOffset": 1734976,
      "componentType": 5126,
      "count": 65532,
      "max": [
        1.0000001192092896,
        1.0
      ],
      "min": [
        0.0,
        0.0
      ],
      "type": "VEC2"
    },
    {
      "bufferView": 1,
      "byteOffset": 2259232,
      "componentType": 5126,
      "count": 65532,
      "max": [
        1.0000001192092896,
        1.0
      ],
      "min": [
        0.0,
        0.0
      ],
      "type": "VEC2"
    },
    {
      "bufferView": 0,
      "byteOffset": 2396160,
      "componentType": 5125,
      "count": 366579,
      "type": "SCALAR"
    },
    {
      "bufferView": 2,
      "byteOffset": 4175232,
      "componentType": 5126,
      "count": 42904,
      "max": [
        0.9797280430793762,
        0.997935950756073,
        0.979728102684021
      ],
      "min": [
        -0.9687954187393188,
        -0.997935950756073,
        -0.6592332124710083
      ],
      "type": "VEC3"
    },
    {
      "bufferView": 2,
      "byteOffset": 4690080,
      "componentType": 5126,
      "count": 42904,
      "max": [
        1.0,
        1.0,
        1.0
      ],
      "min": [
        -0.9891408681869507,
        -1.0,
        -0.6778358221054077
      ],
      "type": "VEC3"
    },
    {
      "bufferView": 1,
      "byteOffset": 2783488,
      "componentType": 5126,
      "count": 42904,
      "max": [
        1.0000001192092896,
        1.0
      ],
      "min": [
        0.0,
        0.0
      ],
      "type": "VEC2"
    },
    {
      "bufferView": 1,
      "byteOffset": 3126720,
      "componentType": 5126,
      "count": 42904,
      "max": [
        1.0000001192092896,
        1.0
      ],
      "min": [
        0.0,
        0.0
      ],
      "type": "VEC2"
    },
    {
      "bufferView": 0,
      "byteOffset": 3862476,
      "componentType": 5125,
      "count": 232461,
      "type": "SCALAR"
    },
    {
      "bufferView": 2,
      "byteOffset": 5204928,
      "componentType": 5126,
      "count": 65532,
      "max": [
        0.9317770004272461,
        0.997935950756073,
        0.979728102684021
      ],
      "min": [
        -0.979728102684021,
        -0.997935950756073,
        -0.9797282814979553
      ],
      "type": "VEC3"
    },
    {
      "bufferView": 2,
      "byteOffset": 5991312,
      "componentType": 5126,
      "count": 65532,
      "max": [
        0.9510573744773865,
        1.0,
        1.0
      ],
      "min": [
        -1.0,
        -1.0,
        -1.0
      ],
      "type": "VEC3"
    },
    {
      "bufferView": 1,
      "byteOffset": 3469952,
      "componentType": 5126,
      "count": 65532,
      "max": [
        1.0000001192092896,
        1.0
      ],
      "min": [
        0.0,
        0.0
      ],
      "type": "VEC2"
    },
    {
      "bufferView": 0,
      "byteOffset": 4792320,
      "componentType": 5125,
      "count": 366579,
      "type": "SCALAR"
    },
    {
      "bufferView": 2,
      "byteOffset": 6777696,
      "componentType": 5126,
      "count": 42904,
      "max": [
        0.9797280430793762,
        0.997935950756073,
        0.979728102684021
      ],
      "min": [
        -0.9687954187393188,
        -0.997935950756073,
        -0.6592332124710083
      ],
      "type": "VEC3"
    },
    {
      "bufferView": 2,
      "byteOffset": 7292544,
      "componentType": 5126,
      "count": 42904,
      "max": [
        1.0,
        1.0,
        1.0
      ],
      "min": [
        -0.9891408681869507,
        -1.0,
        -0.6778358221054077
      ],
      "type": "VEC3"
    },
    {
      "bufferView": 1,
      "byteOffset": 3994208,
      "componentType": 5126,
      "count": 42904,
      "max": [
        1.0000001192092896,
        1.0
      ],
      "min": [
        0.0,
        0.0
      ],
      "type": "VEC2"
    },
    {
      "bufferView": 0,
      "byteOffset": 6258636,
      "componentType": 5125,
      "count": 232461,
      "type": "SCALAR"
    }
  ],
  "asset": {
    "extras": {
      "author": "AirStudios (https://sketchfab.com/sebbe613)",
      "license": "CC-BY-4.0 (http://creativecommons.org/licenses/by/4.0/)",
      "source": "https://sketchfab.com/3d-models/earth-5f9c35be31a047928eace8b415a8ee3a",
      "title": "Earth"
    },
    "generator": "Sketchfab-12.68.0",
    "version": "2.0"
  },
  "bufferViews": [
    {
      "buffer": 0,
      "byteLength": 7188480,
      "name": "floatBufferViews",
      "target": 34963
    },
    {
      "buffer": 0,
      "byteLength": 4337440,
      "byteOffset": 7188480,
      "byteStride": 8,
      "name": "floatBufferViews",
      "target": 34962
    },
    {
      "buffer": 0,
      "byteLength": 7807392,
      "byteOffset": 11525920,
      "byteStride": 12,
      "name": "floatBufferViews",
      "target": 34962
    }
  ],
  "buffers": [
    {
      "byteLength": 19333312,
      "uri": "scene.bin"
    }
  ],
  "extensionsUsed": [
    "KHR_materials_transmission"
  ],
  "images": [
    {
      "uri": "textures/phong1_baseColor.jpeg"
    },
    {
      "uri": "textures/phong1_emissive.jpeg"
    },
    {
      "uri": "textures/lambert6_baseColor.png"
    }
  ],
  "materials": [
    {
      "doubleSided": true,
      "emissiveFactor": [
        1.0,
        1.0,
        1.0
      ],
      "emissiveTexture": {
        "index": 1
      },
      "name": "phong1",
      "pbrMetallicRoughness": {
        "baseColorTexture": {
          "index": 0
        },
        "metallicFactor": 0.37260061166542024
      }
    },
    {
      "alphaMode": "BLEND",
      "doubleSided": true,
      "name": "lambert6",
      "pbrMetallicRoughness": {
        "baseColorTexture": {
          "index": 2
        },
        "metallicFactor": 0.0,
        "roughnessFactor": 0.6
      }
    },
    {
      "alphaMode": "BLEND",
      "doubleSided": true,
      "extensions": {
        "KHR_materials_transmission": {
          "transmissionFactor": 0.7550830247645453
        }
      },
      "name": "lambert7",
      "pbrMetallicRoughness": {
        "baseColorFactor": [
          0.14229999999999987,
          0.35230000000000006,
          0.6794999999999991,
          0.25
        ],
        "metallicFactor": 0.0,
        "roughnessFactor": 0.6
      }
    }
  ],
  "meshes": [
    {
      "name": "pSphere1_phong1_0",
      "primitives": [
        {
          "attributes": {
            "NORMAL": 1,
            "POSITION": 0,
            "TEXCOORD_0": 2,
            "TEXCOORD_1": 3
          },
          "indices": 4,
          "material": 0,
          "mode": 4
        }
      ]
    },
    {
      "name": "pSphere1_phong1_0",
      "primitives": [
        {
          "attributes": {
            "NORMAL": 6,
            "POSITION": 5,
            "TEXCOORD_0": 7,
            "TEXCOORD_1": 8
          },
          "indices": 9,
          "material": 0,
          "mode": 4
        }
      ]
    },
    {
      "name": "pSphere4_lambert6_0",
      "primitives": [
        {
          "attributes": {
            "NORMAL": 11,
            "POSITION": 10,
            "TEXCOORD_0": 12,
            "TEXCOORD_1": 13
          },
          "indices": 14,
          "material": 1,
          "mode": 4
        }
      ]
    },
    {
      "name": "pSphere4_lambert6_0",
      "primitives": [
        {
          "attributes": {
            "NORMAL": 16,
            "POSITION": 15,
            "TEXCOORD_0": 17,
            "TEXCOORD_1": 18
          },
          "indices": 19,
          "material": 1,
          "mode": 4
        }
      ]
    },
    {
      "name": "pSphere5_lambert7_0",
      "primitives": [
        {
          "attributes": {
            "NORMAL": 21,
            "POSITION": 20,
            "TEXCOORD_0": 22
          },
          "indices": 23,
          "material": 2,
          "mode": 4
        }
      ]
    },
    {
      "name": "pSphere5_lambert7_0",
      "primitives": [
        {
          "attributes": {
            "NORMAL": 25,
            "POSITION": 24,
            "TEXCOORD_0": 26
          },
          "indices": 27,
          "material": 2,
          "mode": 4
        }
      ]
    }
  ],
  "nodes": [
    {
      "children": [
        1
      ],
      "matrix": [
        1.0,
        0.0,
        0.0,
        0.0,
        0.0,
        2.220446049250313e-16,
        -1.0,
        0.0,
        0.0,
        1.0,
        2.220446049250313e-16,
        0.0,
        0.0,
        0.0,
        0.0,
        1.0
      ],
      "name": "Sketchfab_model"
    },
    {
      "children": [
        2
      ],
      "matrix": [
        1.0,
        0.0,
        0.0,
        0.0,
        0.0,
        0.0,
        1.0,
        0.0,
        0.0,
        -1.0,
        0.0,
        0.0,
        0.0,
        0.0,
        0.0,
        1.0
      ],
      "name": "dd4e81451db7426cb37be19f6f312b98.fbx"
    },
    {
      "children": [
        3,
        6,
        9
      ],
      "name": "RootNode"
    },
    {
      "children": [
        4,
        5
      ],
      "matrix": [
        96.7239990234375,
        0.0,
        0.0,
        0.0,
        0.0,
        96.7239990234375,
        0.0,
        0.0,
        0.0,
        0.0,
        96.7239990234375,
        0.0,
        0.0,
        0.0,
        0.0,
        1.0
      ],
      "name": "pSphere1"
    },
    {
      "mesh": 0,
      "name": "pSphere1_phong1_0"
    },
    {
      "mesh": 1,
      "name": "pSphere1_phong1_0"
    },
    {
      "children": [
        7,
        8
      ],
      "matrix": [
        97.4643783569336,
        0.0,
        0.0,
        0.0,
        0.0,
        97.4643783569336,
        0.0,
        0.0,
        0.0,
        0.0,
        97.4643783569336,
        0.0,
        0.0,
        0.0,
        0.0,
        1.0
      ],
      "name": "pSphere4"
    },
    {
      "mesh": 2,
      "name": "pSphere4_lambert6_0"
    },
    {
      "mesh": 3,
      "name": "pSphere4_lambert6_0"
    },
    {
      "children": [
        10,
        11
      ],
      "matrix": [
        98.0975112915039,
        0.0,
        0.0,
        0.0,
        0.0,
        98.0975112915039,
        0.0,
        0.0,
        0.0,
        0.0,
        98.0975112915039,
        0.0,
        0.0,
        0.0,
        0.0,
        1.0
      ],
      "name": "pSphere5"
    },
    {
      "mesh": 4,
      "name": "pSphere5_lambert7_0"
    },
    {
      "mesh": 5,
      "name": "pSphere5_lambert7_0"
    }
  ],
  "samplers": [
    {
      "magFilter": 9729,
      "minFilter": 9987,
      "wrapS": 10497,
      "wrapT": 10497
    }
  ],
  "scene": 0,
  "scenes": [
    {
      "name": "Sketchfab_Scene",
      "nodes": [
        0
      ]
    }
  ],
  "textures": [
    {
      "sampler": 0,
      "source": 0
    },
    {
      "sampler": 0,
      "source": 1
    },
    {
      "sampler": 0,
      "source": 2
    }
  ]
}
