<?xml version="1.0" encoding="UTF-8" standalone="no"?> <svg width="64" height="64" viewBox="0 0 64 64" fill="none" xmlns="http://www.w3.org/2000/svg">
<path d="M38 8H33V5H34V3H30V5H31V8H26V14H38V8ZM31 12H29V10H31V12ZM35 12H33V10H35V12Z" fill="black"/>
<path d="M16 24H15V17H13V24H11V19H9V24H8V26H16V24Z" fill="black"/>
<path d="M56 24H55V19H53V24H51V17H49V24H48V26H56V24Z" fill="black"/>
<path d="M57 60V28H39V60H37V27C37 26.7348 37.1054 26.4804 37.2929 26.2929C37.4804 26.1054 37.7348 26 38 26H41V16H23V26H26C26.2652 26 26.5196 26.1054 26.7071 26.2929C26.8946 26.4804 27 26.7348 27 27V60H25V28H7V60H2V62H62V60H57ZM37 18H39V20H37V18ZM37 22H39V24H37V22ZM11 56H9V54H11V56ZM11 52H9V50H11V52ZM11 48H9V46H11V48ZM11 44H9V42H11V44ZM11 40H9V38H11V40ZM11 36H9V34H11V36ZM11 32H9V30H11V32ZM15 56H13V54H15V56ZM15 52H13V50H15V52ZM15 48H13V46H15V48ZM15 44H13V42H15V44ZM15 40H13V38H15V40ZM15 36H13V34H15V36ZM15 32H13V30H15V32ZM19 56H17V54H19V56ZM19 52H17V50H19V52ZM19 48H17V46H19V48ZM19 44H17V42H19V44ZM19 40H17V38H19V40ZM19 36H17V34H19V36ZM19 32H17V30H19V32ZM23 56H21V54H23V56ZM23 52H21V50H23V52ZM23 48H21V46H23V48ZM23 44H21V42H23V44ZM23 40H21V38H23V40ZM23 36H21V34H23V36ZM23 32H21V30H23V32ZM27 24H25V22H27V24ZM27 20H25V18H27V20ZM31 56H29V54H31V56ZM31 52H29V50H31V52ZM31 48H29V46H31V48ZM31 44H29V42H31V44ZM31 40H29V38H31V40ZM31 36H29V34H31V36ZM31 32H29V30H31V32ZM31 28H29V26H31V28ZM31 24H29V22H31V24ZM31 20H29V18H31V20ZM35 56H33V54H35V56ZM35 52H33V50H35V52ZM35 48H33V46H35V48ZM35 44H33V42H35V44ZM35 40H33V38H35V40ZM35 36H33V34H35V36ZM35 32H33V30H35V32ZM35 28H33V26H35V28ZM35 24H33V22H35V24ZM35 20H33V18H35V20ZM43 56H41V54H43V56ZM43 52H41V50H43V52ZM43 48H41V46H43V48ZM43 44H41V42H43V44ZM43 40H41V38H43V40ZM43 36H41V34H43V36ZM43 32H41V30H43V32ZM47 56H45V54H47V56ZM47 52H45V50H47V52ZM47 48H45V46H47V48ZM47 44H45V42H47V44ZM47 40H45V38H47V40ZM47 36H45V34H47V36ZM47 32H45V30H47V32ZM51 56H49V54H51V56ZM51 52H49V50H51V52ZM51 48H49V46H51V48ZM51 44H49V42H51V44ZM51 40H49V38H51V40ZM51 36H49V34H51V36ZM51 32H49V30H51V32ZM55 56H53V54H55V56ZM55 52H53V50H55V52ZM55 48H53V46H55V48ZM55 44H53V42H55V44ZM55 40H53V38H55V40ZM55 36H53V34H55V36ZM55 32H53V30H55V32Z" fill="black"/>
</svg>
