<svg id="Layer_2" data-name="Layer 2" xmlns="http://www.w3.org/2000/svg" viewBox="0 0 32 32"><title>Smartest city</title><path d="M13,4.2v.6a.2.2,0,0,1-.2.2h-.6a.2.2,0,0,1-.2-.2V4.2a.2.2,0,0,1,.2-.2h.6A.2.2,0,0,1,13,4.2Zm1.2.8h.6a.2.2,0,0,0,.2-.2V4.2a.2.2,0,0,0-.2-.2h-.6a.2.2,0,0,0-.2.2v.6A.2.2,0,0,0,14.2,5ZM12.8,6h-.6a.2.2,0,0,0-.2.2v.6a.2.2,0,0,0,.2.2h.6a.2.2,0,0,0,.2-.2V6.2A.2.2,0,0,0,12.8,6Zm1.4,1h.6a.2.2,0,0,0,.2-.2V6.2a.2.2,0,0,0-.2-.2h-.6a.2.2,0,0,0-.2.2v.6A.2.2,0,0,0,14.2,7ZM12.8,8h-.6a.2.2,0,0,0-.2.2v.6a.2.2,0,0,0,.2.2h.6a.2.2,0,0,0,.2-.2V8.2A.2.2,0,0,0,12.8,8Zm1.4,1h.6a.2.2,0,0,0,.2-.2V8.2a.2.2,0,0,0-.2-.2h-.6a.2.2,0,0,0-.2.2v.6A.2.2,0,0,0,14.2,9Zm-1.4,1h-.6a.2.2,0,0,0-.2.2v.6a.2.2,0,0,0,.2.2h.6a.2.2,0,0,0,.2-.2v-.6A.2.2,0,0,0,12.8,10Zm1.4,1h.6a.2.2,0,0,0,.2-.2v-.6a.2.2,0,0,0-.2-.2h-.6a.2.2,0,0,0-.2.2v.6A.2.2,0,0,0,14.2,11Zm-1.4,1h-.6a.2.2,0,0,0-.2.2v.6a.2.2,0,0,0,.2.2h.6a.2.2,0,0,0,.2-.2v-.6A.2.2,0,0,0,12.8,12Zm1.4,1h.6a.2.2,0,0,0,.2-.2v-.6a.2.2,0,0,0-.2-.2h-.6a.2.2,0,0,0-.2.2v.6A.2.2,0,0,0,14.2,13Zm-1.4,1h-.6a.2.2,0,0,0-.2.2v.6a.2.2,0,0,0,.2.2h.6a.2.2,0,0,0,.2-.2v-.6A.2.2,0,0,0,12.8,14Zm1.4,1h.6a.2.2,0,0,0,.2-.2v-.6a.2.2,0,0,0-.2-.2h-.6a.2.2,0,0,0-.2.2v.6A.2.2,0,0,0,14.2,15Zm2-10h.6a.2.2,0,0,0,.2-.2V4.2a.2.2,0,0,0-.2-.2h-.6a.2.2,0,0,0-.2.2v.6A.2.2,0,0,0,16.2,5Zm0,2h.6a.2.2,0,0,0,.2-.2V6.2a.2.2,0,0,0-.2-.2h-.6a.2.2,0,0,0-.2.2v.6A.2.2,0,0,0,16.2,7Zm0,2h.6a.2.2,0,0,0,.2-.2V8.2a.2.2,0,0,0-.2-.2h-.6a.2.2,0,0,0-.2.2v.6A.2.2,0,0,0,16.2,9Zm0,2h.6a.2.2,0,0,0,.2-.2v-.6a.2.2,0,0,0-.2-.2h-.6a.2.2,0,0,0-.2.2v.6A.2.2,0,0,0,16.2,11Zm5,0h.6a.2.2,0,0,0,.2-.2v-.6a.2.2,0,0,0-.2-.2h-.6a.2.2,0,0,0-.2.2v.6A.2.2,0,0,0,21.2,11Zm-1.4-1h-.6a.2.2,0,0,0-.2.2v.6a.2.2,0,0,0,.2.2h.6a.2.2,0,0,0,.2-.2v-.6A.2.2,0,0,0,19.8,10Zm1.4-1h.6a.2.2,0,0,0,.2-.2V8.2a.2.2,0,0,0-.2-.2h-.6a.2.2,0,0,0-.2.2v.6A.2.2,0,0,0,21.2,9ZM19.8,8h-.6a.2.2,0,0,0-.2.2v.6a.2.2,0,0,0,.2.2h.6a.2.2,0,0,0,.2-.2V8.2A.2.2,0,0,0,19.8,8Zm1.4,5h.6a.2.2,0,0,0,.2-.2v-.6a.2.2,0,0,0-.2-.2h-.6a.2.2,0,0,0-.2.2v.6A.2.2,0,0,0,21.2,13Zm-1.4-1h-.6a.2.2,0,0,0-.2.2v.6a.2.2,0,0,0,.2.2h.6a.2.2,0,0,0,.2-.2v-.6A.2.2,0,0,0,19.8,12Zm1.4,3h.6a.2.2,0,0,0,.2-.2v-.6a.2.2,0,0,0-.2-.2h-.6a.2.2,0,0,0-.2.2v.6A.2.2,0,0,0,21.2,15Zm-1.4-1h-.6a.2.2,0,0,0-.2.2v.6a.2.2,0,0,0,.2.2h.6a.2.2,0,0,0,.2-.2v-.6A.2.2,0,0,0,19.8,14ZM22,16.2a.2.2,0,0,0-.2-.2h-.6a.2.2,0,0,0-.2.2v.6a.2.2,0,0,0,.2.2h.6a.2.2,0,0,0,.2-.2ZM19.8,16h-.6a.2.2,0,0,0-.2.2v.6a.2.2,0,0,0,.2.2h.6a.2.2,0,0,0,.2-.2v-.6A.2.2,0,0,0,19.8,16Zm-3.6-3h.6a.2.2,0,0,0,.2-.2v-.6a.2.2,0,0,0-.2-.2h-.6a.2.2,0,0,0-.2.2v.6A.2.2,0,0,0,16.2,13Zm0,2h.6a.2.2,0,0,0,.2-.2v-.6a.2.2,0,0,0-.2-.2h-.6a.2.2,0,0,0-.2.2v.6A.2.2,0,0,0,16.2,15Zm-3.4,1h-.6a.2.2,0,0,0-.2.2v.6a.2.2,0,0,0,.2.2h.6a.2.2,0,0,0,.2-.2v-.6A.2.2,0,0,0,12.8,16Zm1.4,1h.6a.2.2,0,0,0,.2-.2v-.6a.2.2,0,0,0-.2-.2h-.6a.2.2,0,0,0-.2.2v.6A.2.2,0,0,0,14.2,17Zm2,0h.6a.2.2,0,0,0,.2-.2v-.6a.2.2,0,0,0-.2-.2h-.6a.2.2,0,0,0-.2.2v.6A.2.2,0,0,0,16.2,17ZM25,11.5h2a.5.5,0,0,0,0-1H25a.5.5,0,0,0,0,1Zm0,2h2a.5.5,0,0,0,0-1H25a.5.5,0,0,0,0,1Zm0,2h2a.5.5,0,0,0,0-1H25a.5.5,0,0,0,0,1Zm2,2a.5.5,0,0,0,0-1H25a.5.5,0,0,0,0,1ZM30.5,23a1.5,1.5,0,0,1-2.908.5H25a.5.5,0,0,1-.5-.5V19.5h-2v3.293l2.854,2.853A.5.5,0,0,1,25.5,26v1.592a1.5,1.5,0,1,1-1,0V26.207l-2.854-2.853A.5.5,0,0,1,21.5,23V19.5h-3v2.293l1.854,1.853A.5.5,0,0,1,20.5,24v1.592a1.5,1.5,0,1,1-1,0V24.207l-1.854-1.853A.5.5,0,0,1,17.5,22V19.5h-3V22a.5.5,0,0,1-.146.354L12.5,24.207v1.385a1.5,1.5,0,1,1-1,0V24a.5.5,0,0,1,.146-.354L13.5,21.793V19.5h-3V23a.5.5,0,0,1-.146.354L7.5,26.207v1.385a1.5,1.5,0,1,1-1,0V26a.5.5,0,0,1,.146-.354L9.5,22.793V19.5h-2V23a.5.5,0,0,1-.5.5H4.408a1.5,1.5,0,1,1,0-1H6.5v-3H2a.5.5,0,0,1,0-1h.5V5A.5.5,0,0,1,3,4.5H4.5V3A.5.5,0,0,1,5,2.5H6.5V2a.5.5,0,0,1,1,0v.5H9a.5.5,0,0,1,.5.5V4.5h1V2a.5.5,0,0,1,.5-.5h7a.5.5,0,0,1,.5.5V5.848A5.493,5.493,0,0,1,23,3.5a.5.5,0,0,1,.5.5V8.907a3.727,3.727,0,0,1,2-.864V7.5a.5.5,0,0,1,1,0v.543A3.191,3.191,0,0,1,29.5,11v7.5H30a.5.5,0,0,1,0,1H25.5v3h2.092A1.5,1.5,0,0,1,30.5,23Zm-27,0a.5.5,0,1,0-.5.5A.5.5,0,0,0,3.5,23Zm4,6a.5.5,0,1,0-.5.5A.5.5,0,0,0,7.5,29Zm5-2a.5.5,0,1,0-.5.5A.5.5,0,0,0,12.5,27Zm8,0a.5.5,0,1,0-.5.5A.5.5,0,0,0,20.5,27Zm5,2a.5.5,0,1,0-.5.5A.5.5,0,0,0,25.5,29ZM5.5,4.5h3v-1h-3Zm-2,10h3v-1h-3Zm0-2h3v-1h-3Zm3-3h-3v1h3Zm-3,7h3v-1h-3Zm3-9h-3v1h3Zm-3,11h7V5.5h-7v1H7a.5.5,0,0,1,.5.5V17a.5.5,0,0,1-.5.5H3.5Zm8,0h6V2.5h-6v16Zm7,0h4V4.528A4.506,4.506,0,0,0,18.5,9Zm5,0h5V11A2.3,2.3,0,0,0,26,9a2.3,2.3,0,0,0-2.5,2Zm6,4.5a.5.5,0,1,0-.5.5A.5.5,0,0,0,29.5,23Z"/></svg>