<?xml version="1.0" encoding="UTF-8" standalone="no"?> <svg width="64" height="64" viewBox="0 0 64 64"   xmlns="http://www.w3.org/2000/svg">
<path d="M56 61.0001H50L49 57.0001L50.42 53.4501L53 55.0001V50.0001L51.91 48.3601L55.97 49.9901C57.4551 50.5839 58.7281 51.6091 59.6247 52.9336C60.5213 54.258 61.0003 55.8207 61 57.4201V61.0001H56Z"  />
<path d="M61 7V15C60.9984 15.5299 60.7872 16.0377 60.4125 16.4125C60.0377 16.7872 59.5299 16.9984 59 17H53L51 21.05L49 17H47C46.4701 16.9984 45.9623 16.7872 45.5875 16.4125C45.2128 16.0377 45.0016 15.5299 45 15V7C45.0016 6.47005 45.2128 5.96227 45.5875 5.58753C45.9623 5.2128 46.4701 5.00158 47 5H59C59.5299 5.00158 60.0377 5.2128 60.4125 5.58753C60.7872 5.96227 60.9984 6.47005 61 7V7Z"  />
<path d="M56 29V34H55C54.4701 33.9984 53.9623 33.7872 53.5875 33.4125C53.2128 33.0377 53.0016 32.5299 53 32V30C49.67 30 50.33 31 47 31C44.03 31 42.64 30.41 40 30.07V25H52C53.0609 25 54.0783 25.4214 54.8284 26.1716C55.5786 26.9217 56 27.9391 56 29Z"  />
<path d="M50.42 53.45L49 57H47L45.58 53.45L48 52L50.42 53.45Z"  />
<path d="M49 57L50 61H48H46L47 57H49Z"  />
<path d="M40 61.0001H35V57.4201C34.9997 55.8207 35.4787 54.258 36.3753 52.9336C37.2719 51.6091 38.5449 50.5839 40.03 49.9901L44.09 48.3601L43 50.0001V55.0001L45.58 53.4501L47 57.0001L46 61.0001H40Z"  />
<path d="M51.91 48.36L51 47L48 52L50.42 53.45L53 55V50L51.91 48.36Z"  />
<path d="M44.09 48.36L43 50V55L45.58 53.45L48 52L45 47L44.09 48.36Z"  />
<path d="M24 61.0001H18L17 57.0001L18.42 53.4501L21 55.0001V50.0001L19.91 48.3601L23.97 49.9901C25.4551 50.5839 26.7281 51.6091 27.6247 52.9336C28.5213 54.258 29.0003 55.8207 29 57.4201V61.0001H24Z"  />
<path d="M24 25V30.07C21.36 30.41 19.97 31 17 31C13.67 31 14.33 30 11 30V32C10.9984 32.5299 10.7872 33.0377 10.4125 33.4125C10.0377 33.7872 9.52995 33.9984 9 34H8V29C8 27.9391 8.42143 26.9217 9.17157 26.1716C9.92172 25.4214 10.9391 25 12 25H24Z"  />
<path d="M19 7V15C18.9984 15.5299 18.7872 16.0377 18.4125 16.4125C18.0377 16.7872 17.5299 16.9984 17 17H15L13 21.05L11 17H5C4.47005 16.9984 3.96227 16.7872 3.58753 16.4125C3.2128 16.0377 3.00158 15.5299 3 15V7C3.00158 6.47005 3.2128 5.96227 3.58753 5.58753C3.96227 5.2128 4.47005 5.00158 5 5H17C17.5299 5.00158 18.0377 5.2128 18.4125 5.58753C18.7872 5.96227 18.9984 6.47005 19 7V7Z"  />
<path d="M18.42 53.45L17 57H15L13.58 53.45L16 52L18.42 53.45Z"  />
<path d="M17 57L18 61H16H14L15 57H17Z"  />
<path d="M8 61.0001H3V57.4201C2.99965 55.8207 3.47871 54.258 4.37532 52.9336C5.27193 51.6091 6.54493 50.5839 8.03 49.9901L12.09 48.3601L11 50.0001V55.0001L13.58 53.4501L15 57.0001L14 61.0001H8Z"  />
<path d="M19.91 48.36L19 47L16 52L18.42 53.45L21 55V50L19.91 48.36Z"  />
<path d="M12.09 48.36L11 50V55L13.58 53.45L16 52L13 47L12.09 48.36Z"  />
<path d="M15 35H13V37H15V35Z"  />
<path d="M21 35H19V37H21V35Z"  />
<path d="M24.34 49.06L20.57 47.55L20 46.7V46.05C21.499 45.3052 22.7609 44.1575 23.6441 42.7356C24.5273 41.3137 24.9968 39.6739 25 38V25C25 24.7348 24.8946 24.4804 24.7071 24.2929C24.5196 24.1054 24.2652 24 24 24H12C10.6739 24 9.40215 24.5268 8.46447 25.4645C7.52679 26.4021 7 27.6739 7 29V33.05C6.14981 33.1695 5.37375 33.599 4.82088 34.2558C4.268 34.9127 3.97729 35.7506 4.00457 36.6087C4.03185 37.4668 4.3752 38.2846 4.96869 38.905C5.56217 39.5254 6.36393 39.9047 7.22 39.97C7.51621 41.2744 8.09876 42.4966 8.92547 43.5482C9.75218 44.5997 10.8024 45.4543 12 46.05V46.7L11.43 47.55L7.66 49.06C5.98457 49.7216 4.54791 50.8737 3.53803 52.3653C2.52814 53.8569 1.99208 55.6187 2 57.42V61C2 61.2652 2.10536 61.5196 2.2929 61.7071C2.48043 61.8946 2.73479 62 3 62H29C29.2652 62 29.5196 61.8946 29.7071 61.7071C29.8946 61.5196 30 61.2652 30 61V57.42C30.0079 55.6187 29.4719 53.8569 28.462 52.3653C27.4521 50.8737 26.0154 49.7216 24.34 49.06V49.06ZM7 37.91C6.70772 37.8076 6.45448 37.6169 6.27531 37.3643C6.09614 37.1117 5.9999 36.8097 5.9999 36.5C5.9999 36.1903 6.09614 35.8883 6.27531 35.6357C6.45448 35.3831 6.70772 35.1924 7 35.09V37.91ZM9 29C9.00238 28.2051 9.31921 27.4434 9.8813 26.8813C10.4434 26.3192 11.2051 26.0024 12 26H23V29.21C22.41 29.3 21.87 29.41 21.34 29.51C19.9151 29.8283 18.46 29.9926 17 30C16.0951 30.0502 15.1902 29.8999 14.35 29.56C13.2845 29.142 12.1435 28.9512 11 29C10.7348 29 10.4804 29.1054 10.2929 29.2929C10.1054 29.4804 10 29.7348 10 30V32C10 32.2652 9.89465 32.5196 9.70711 32.7071C9.51957 32.8946 9.26522 33 9 33V29ZM9 38V35C9.79492 34.9976 10.5566 34.6808 11.1187 34.1187C11.6808 33.5566 11.9976 32.7949 12 32V31.04C12.5681 31.0824 13.1255 31.2176 13.65 31.44C14.7155 31.858 15.8565 32.0488 17 32C18.591 31.9923 20.1767 31.8146 21.73 31.47C22.13 31.39 22.56 31.31 23 31.24V38C23 39.8565 22.2625 41.637 20.9497 42.9497C19.637 44.2625 17.8565 45 16 45C14.1435 45 12.363 44.2625 11.0503 42.9497C9.7375 41.637 9 39.8565 9 38ZM17.97 46.78L16 50.06L14.03 46.78C15.327 47.0733 16.673 47.0733 17.97 46.78V46.78ZM13.22 60H9V57H7V60H4V57.42C3.99453 56.0197 4.41151 54.6503 5.19648 53.4907C5.98145 52.3311 7.0979 51.4352 8.4 50.92L10 50.28V55C9.99947 55.1774 10.0465 55.3516 10.1362 55.5046C10.2259 55.6577 10.355 55.7838 10.51 55.87C10.6585 55.9571 10.8279 56.002 11 56C11.1795 55.9999 11.3556 55.9516 11.51 55.86L13.09 54.91L13.95 57.07L13.22 60ZM12 53.23V50.3L12.96 48.87L14.63 51.66L12 53.23ZM15.28 60L15.78 58H16.22L16.72 60H15.28ZM16.32 56H15.68L14.83 53.87L16 53.17L17.17 53.87L16.32 56ZM17.37 51.66L19.04 48.87L20 50.3V53.23L17.37 51.66ZM28 60H25V57H23V60H18.78L18.05 57.07L18.91 54.91L20.49 55.86C20.6444 55.9516 20.8205 55.9999 21 56C21.1721 56.002 21.3415 55.9571 21.49 55.87C21.645 55.7838 21.7741 55.6577 21.8638 55.5046C21.9535 55.3516 22.0005 55.1774 22 55V50.28L23.6 50.92C24.9021 51.4352 26.0186 52.3311 26.8035 53.4907C27.5885 54.6503 28.0055 56.0197 28 57.42V60Z"  />
<path d="M20.707 41.707L19.307 40.281C18.6497 40.7908 17.8305 41.0461 17 41C16.176 41.0438 15.3633 40.7932 14.707 40.293L13.293 41.707C14.3179 42.5961 15.6445 43.0588 17 43C18.3555 43.0588 19.6821 42.5961 20.707 41.707Z"  />
<path d="M51 35H49V37H51V35Z"  />
<path d="M45 35H43V37H45V35Z"  />
<path d="M56.34 49.06L52.57 47.55L52 46.7V46.05C53.1976 45.4543 54.2478 44.5997 55.0745 43.5482C55.9012 42.4966 56.4838 41.2744 56.78 39.97C57.6361 39.9047 58.4378 39.5254 59.0313 38.905C59.6248 38.2846 59.9681 37.4668 59.9954 36.6087C60.0227 35.7506 59.732 34.9127 59.1791 34.2558C58.6262 33.599 57.8502 33.1695 57 33.05V29C57 27.6739 56.4732 26.4021 55.5355 25.4645C54.5978 24.5268 53.3261 24 52 24H40C39.7348 24 39.4804 24.1054 39.2929 24.2929C39.1054 24.4804 39 24.7348 39 25V38C39.0032 39.6739 39.4727 41.3137 40.3559 42.7356C41.2391 44.1575 42.5009 45.3052 44 46.05V46.7L43.43 47.55L39.66 49.06C37.9846 49.7216 36.5479 50.8737 35.538 52.3653C34.5281 53.8569 33.9921 55.6187 34 57.42V61C34 61.2652 34.1054 61.5196 34.2929 61.7071C34.4804 61.8946 34.7348 62 35 62H61C61.2652 62 61.5196 61.8946 61.7071 61.7071C61.8946 61.5196 62 61.2652 62 61V57.42C62.0079 55.6187 61.4719 53.8569 60.462 52.3653C59.4521 50.8737 58.0154 49.7216 56.34 49.06V49.06ZM57 35.09C57.2923 35.1924 57.5455 35.3831 57.7247 35.6357C57.9039 35.8883 58.0001 36.1903 58.0001 36.5C58.0001 36.8097 57.9039 37.1117 57.7247 37.3643C57.5455 37.6169 57.2923 37.8076 57 37.91V35.09ZM41 26H52C52.7949 26.0024 53.5566 26.3192 54.1187 26.8813C54.6808 27.4434 54.9976 28.2051 55 29V33C54.7348 33 54.4804 32.8946 54.2929 32.7071C54.1054 32.5196 54 32.2652 54 32V30C54 29.7348 53.8946 29.4804 53.7071 29.2929C53.5196 29.1054 53.2652 29 53 29C51.8565 28.9512 50.7155 29.142 49.65 29.56C48.8098 29.8999 47.9049 30.0502 47 30C45.54 29.9926 44.0849 29.8283 42.66 29.51C42.13 29.41 41.59 29.3 41 29.21V26ZM41 38V31.24C41.44 31.31 41.87 31.39 42.27 31.47C43.8233 31.8146 45.409 31.9923 47 32C48.1435 32.0488 49.2845 31.858 50.35 31.44C50.8745 31.2176 51.4319 31.0824 52 31.04V32C52.0024 32.7949 52.3192 33.5566 52.8813 34.1187C53.4434 34.6808 54.2051 34.9976 55 35V38C55 39.8565 54.2625 41.637 52.9497 42.9497C51.637 44.2625 49.8565 45 48 45C46.1435 45 44.363 44.2625 43.0502 42.9497C41.7375 41.637 41 39.8565 41 38ZM49.97 46.78L48 50.06L46.03 46.78C47.3269 47.0733 48.673 47.0733 49.97 46.78V46.78ZM45.22 60H41V57H39V60H36V57.42C35.9945 56.0197 36.4115 54.6503 37.1965 53.4907C37.9814 52.3311 39.0979 51.4352 40.4 50.92L42 50.28V55C41.9995 55.1774 42.0465 55.3516 42.1362 55.5046C42.2259 55.6577 42.355 55.7838 42.51 55.87C42.6585 55.9571 42.8279 56.002 43 56C43.1795 55.9999 43.3556 55.9516 43.51 55.86L45.09 54.91L45.95 57.07L45.22 60ZM44 53.23V50.3L44.96 48.87L46.63 51.66L44 53.23ZM47.28 60L47.78 58H48.22L48.72 60H47.28ZM48.32 56H47.68L46.83 53.87L48 53.17L49.17 53.87L48.32 56ZM49.37 51.66L51.04 48.87L52 50.3V53.23L49.37 51.66ZM60 60H57V57H55V60H50.78L50.05 57.07L50.91 54.91L52.49 55.86C52.6444 55.9516 52.8205 55.9999 53 56C53.1721 56.002 53.3415 55.9571 53.49 55.87C53.645 55.7838 53.7741 55.6577 53.8638 55.5046C53.9535 55.3516 54.0005 55.1774 54 55V50.28L55.6 50.92C56.9021 51.4352 58.0186 52.3311 58.8035 53.4907C59.5885 54.6503 60.0055 56.0197 60 57.42V60Z"  />
<path d="M49.305 40.281C48.6275 40.7492 47.8235 41.0001 47 41.0001C46.1765 41.0001 45.3725 40.7492 44.695 40.281L43.295 41.707C44.3492 42.5443 45.6558 43.0001 47.002 43.0001C48.3482 43.0001 49.6548 42.5443 50.709 41.707L49.305 40.281Z"  />
<path d="M59 4H47C46.2044 4 45.4413 4.31607 44.8787 4.87868C44.3161 5.44129 44 6.20435 44 7V15C44 15.7956 44.3161 16.5587 44.8787 17.1213C45.4413 17.6839 46.2044 18 47 18H48.378L50.1 21.494C50.1827 21.6609 50.3105 21.8014 50.4688 21.8997C50.6271 21.9979 50.8097 22.0499 50.996 22.0499C51.1823 22.0499 51.3649 21.9979 51.5232 21.8997C51.6815 21.8014 51.8093 21.6609 51.892 21.494L53.622 18H59C59.7956 18 60.5587 17.6839 61.1213 17.1213C61.6839 16.5587 62 15.7956 62 15V7C62 6.20435 61.6839 5.44129 61.1213 4.87868C60.5587 4.31607 59.7956 4 59 4V4ZM60 15C60 15.2652 59.8946 15.5196 59.7071 15.7071C59.5196 15.8946 59.2652 16 59 16H53C52.8128 15.9994 52.6292 16.0514 52.4701 16.1501C52.311 16.2487 52.1827 16.3901 52.1 16.558L51 18.793L49.9 16.558C49.8173 16.3901 49.689 16.2487 49.5299 16.1501C49.3708 16.0514 49.1872 15.9994 49 16H47C46.7348 16 46.4804 15.8946 46.2929 15.7071C46.1054 15.5196 46 15.2652 46 15V7C46 6.73478 46.1054 6.48043 46.2929 6.29289C46.4804 6.10536 46.7348 6 47 6H59C59.2652 6 59.5196 6.10536 59.7071 6.29289C59.8946 6.48043 60 6.73478 60 7V15Z"  />
<path d="M58 8H48V10H58V8Z"  />
<path d="M58 12H48V14H58V12Z"  />
<path d="M5 18H10.378L12.1 21.493C12.1827 21.6599 12.3105 21.8004 12.4688 21.8987C12.6271 21.9969 12.8097 22.0489 12.996 22.0489C13.1823 22.0489 13.3649 21.9969 13.5232 21.8987C13.6815 21.8004 13.8093 21.6599 13.892 21.493L15.622 18H17C17.7956 18 18.5587 17.6839 19.1213 17.1213C19.6839 16.5587 20 15.7956 20 15V7C20 6.20435 19.6839 5.44129 19.1213 4.87868C18.5587 4.31607 17.7956 4 17 4H5C4.20435 4 3.44129 4.31607 2.87868 4.87868C2.31607 5.44129 2 6.20435 2 7V15C2 15.7956 2.31607 16.5587 2.87868 17.1213C3.44129 17.6839 4.20435 18 5 18ZM4 7C4 6.73478 4.10536 6.48043 4.29289 6.29289C4.48043 6.10536 4.73478 6 5 6H17C17.2652 6 17.5196 6.10536 17.7071 6.29289C17.8946 6.48043 18 6.73478 18 7V15C18 15.2652 17.8946 15.5196 17.7071 15.7071C17.5196 15.8946 17.2652 16 17 16H15C14.8128 15.9994 14.6292 16.0514 14.4701 16.1501C14.311 16.2487 14.1827 16.3901 14.1 16.558L13 18.792L11.9 16.558C11.8173 16.3901 11.689 16.2487 11.5299 16.1501C11.3708 16.0514 11.1872 15.9994 11 16H5C4.73478 16 4.48043 15.8946 4.29289 15.7071C4.10536 15.5196 4 15.2652 4 15V7Z"  />
<path d="M16 8H6V10H16V8Z"  />
<path d="M16 12H6V14H16V12Z"  />
<path d="M31 9H33C33.2652 9 33.5196 9.10536 33.7071 9.29289C33.8946 9.48043 34 9.73478 34 10H36C36 9.20435 35.6839 8.44129 35.1213 7.87868C34.5587 7.31607 33.7956 7 33 7V6H31V7C30.2044 7 29.4413 7.31607 28.8787 7.87868C28.3161 8.44129 28 9.20435 28 10C28 10.7956 28.3161 11.5587 28.8787 12.1213C29.4413 12.6839 30.2044 13 31 13H33C33.2652 13 33.5196 13.1054 33.7071 13.2929C33.8946 13.4804 34 13.7348 34 14C34 14.2652 33.8946 14.5196 33.7071 14.7071C33.5196 14.8946 33.2652 15 33 15H31C30.7348 15 30.4804 14.8946 30.2929 14.7071C30.1054 14.5196 30 14.2652 30 14H28C28 14.7956 28.3161 15.5587 28.8787 16.1213C29.4413 16.6839 30.2044 17 31 17V18H33V17C33.7956 17 34.5587 16.6839 35.1213 16.1213C35.6839 15.5587 36 14.7956 36 14C36 13.2044 35.6839 12.4413 35.1213 11.8787C34.5587 11.3161 33.7956 11 33 11H31C30.7348 11 30.4804 10.8946 30.2929 10.7071C30.1054 10.5196 30 10.2652 30 10C30 9.73478 30.1054 9.48043 30.2929 9.29289C30.4804 9.10536 30.7348 9 31 9Z"  />
<path d="M42 12C42 10.0222 41.4135 8.08879 40.3147 6.4443C39.2159 4.79981 37.6541 3.51809 35.8268 2.76121C33.9996 2.00433 31.9889 1.8063 30.0491 2.19215C28.1093 2.578 26.3275 3.53041 24.9289 4.92894C23.5304 6.32746 22.578 8.10929 22.1922 10.0491C21.8063 11.9889 22.0043 13.9996 22.7612 15.8268C23.5181 17.6541 24.7998 19.2159 26.4443 20.3147C28.0888 21.4135 30.0222 22 32 22C34.6513 21.9971 37.1931 20.9426 39.0679 19.0679C40.9426 17.1931 41.9971 14.6513 42 12V12ZM32 20C30.4178 20 28.871 19.5308 27.5554 18.6518C26.2399 17.7727 25.2145 16.5233 24.609 15.0615C24.0035 13.5997 23.845 11.9911 24.1537 10.4393C24.4624 8.88743 25.2243 7.46197 26.3432 6.34315C27.462 5.22433 28.8874 4.4624 30.4393 4.15372C31.9911 3.84504 33.5997 4.00347 35.0615 4.60897C36.5233 5.21447 37.7727 6.23985 38.6518 7.55544C39.5308 8.87104 40 10.4178 40 12C39.9976 14.121 39.154 16.1545 37.6542 17.6542C36.1545 19.154 34.121 19.9976 32 20V20Z"  />
</svg>
