<?xml version="1.0" encoding="utf-8"?>
<!-- Generator: Adobe Illustrator 23.0.3, SVG Export Plug-In . SVG Version: 6.00 Build 0)  -->
<svg version="1.1" id="Icons" xmlns="http://www.w3.org/2000/svg" xmlns:xlink="http://www.w3.org/1999/xlink" x="0px" y="0px"
	 viewBox="0 0 32 32" style="enable-background:new 0 0 32 32;" xml:space="preserve">
<style type="text/css">
	.st0{fill:none;stroke:#000000;stroke-width:2;stroke-linecap:round;stroke-linejoin:round;stroke-miterlimit:10;}
</style>
<path class="st0" d="M3,25l2.6-4.2c1.5-2.3,4-3.8,6.8-3.8H19v0c0,2.2-1.8,4-4,4h-2"/>
<path class="st0" d="M15,21h8l1.2-1.6c1.1-1.5,2.9-2.4,4.8-2.4h0l-2.7,4.8c-1.4,2.6-4.2,4.2-7.1,4.2h0c-4.7,0-9.3,1.4-13.2,4l0,0"/>
<line class="st0" x1="5" y1="12" x2="27" y2="12"/>
<path class="st0" d="M7.4,18.8C5.9,16.9,5,14.6,5,12C5,5.9,9.9,1,16,1s11,4.9,11,11c0,2.8-1.1,5.4-2.8,7.4"/>
<path class="st0" d="M11.5,17.1c-0.4-1.5-0.6-3.2-0.6-5.1c0-6.1,2.3-11,5.1-11s5.1,4.9,5.1,11c0,3.6-0.8,6.9-2.1,8.9"/>
</svg>
