<?xml version="1.0" encoding="UTF-8" standalone="no"?> <svg xmlns="http://www.w3.org/2000/svg" viewBox="0 0 64 64"><title>solution</title><g id="solution"><path d="M59,18.72l.66-1.96-1.42-1.42L56.28,16c-.12-.05-.23-.1-.35-.15L55,14H53l-.93,1.85c-.12.05-.23.1-.35.15l-1.96-.66-1.42,1.42L49,18.72c-.05.12-.1.23-.15.35L47,20v2l1.85.93c.05.12.1.23.15.35l-.66,1.96,1.42,1.42L51.72,26c.12.05.23.1.35.15L53,28h2l.93-1.85c.12-.05.23-.1.35-.15l1.96.66,1.42-1.42L59,23.28c.05-.12.1-.23.15-.35L61,22V20l-1.85-.93C59.1,18.95,59.05,18.84,59,18.72ZM54,23a2,2,0,1,1,2-2A2.006,2.006,0,0,1,54,23Z" /><path d="M12.8,41.68a1.5,1.5,0,0,0-.14.61,1.536,1.536,0,0,0,.98,1.42l9.73,4.03.63.9V61H40V48.64l.63-.9,9.73-4.03a1.519,1.519,0,0,0,.84-2.03,1.613,1.613,0,0,0-2.1-.81L40,44H24l-9.1-3.13A1.613,1.613,0,0,0,12.8,41.68Z" /><path d="M27,12.28l-.66,1.96,1.42,1.42L29.72,15c.12.05.23.1.35.15L31,17h2l.93-1.85c.12-.05.23-.1.35-.15l1.96.66,1.42-1.42L37,12.28c.05-.12.1-.23.15-.35L39,11V9l-1.85-.93c-.05-.12-.1-.23-.15-.35l.66-1.96L36.24,4.34,34.28,5c-.12-.05-.23-.1-.35-.15L33,3H31l-.93,1.85c-.12.05-.23.1-.35.15l-1.96-.66L26.34,5.76,27,7.72c-.05.12-.1.23-.15.35L25,9v2l1.85.93C26.9,12.05,26.95,12.16,27,12.28ZM32,8a2,2,0,1,1-2,2A2.006,2.006,0,0,1,32,8Z" /><path d="M5,23.28l-.66,1.96,1.42,1.42L7.72,26c.12.05.23.1.35.15L9,28h2l.93-1.85c.12-.05.23-.1.35-.15l1.96.66,1.42-1.42L15,23.28c.05-.12.1-.23.15-.35L17,22V20l-1.85-.93c-.05-.12-.1-.23-.15-.35l.66-1.96-1.42-1.42L12.28,16c-.12-.05-.23-.1-.35-.15L11,14H9l-.93,1.85c-.12.05-.23.1-.35.15l-1.96-.66L4.34,16.76,5,18.72c-.05.12-.1.23-.15.35L3,20v2l1.85.93C4.9,23.05,4.95,23.16,5,23.28ZM10,19a2,2,0,1,1-2,2A2.006,2.006,0,0,1,10,19Z" /><path d="M37,37c0-3.309-2.243-6-5-6s-5,2.691-5,6,2.243,6,5,6S37,40.309,37,37Zm-5,4c-1.654,0-3-1.794-3-4s1.346-4,3-4,3,1.794,3,4S33.654,41,32,41Z" /><path d="M32,13a3,3,0,1,0-3-3A3,3,0,0,0,32,13Zm0-4a1,1,0,1,1-1,1A1,1,0,0,1,32,9Z" /><path d="M24.553,11.9l1.3.65L25.4,13.926a1,1,0,0,0,.241,1.024l1.415,1.414a1,1,0,0,0,1.023.241l1.381-.459.65,1.3A1,1,0,0,0,31,18h2a1,1,0,0,0,.9-.553l.65-1.3,1.381.459a1,1,0,0,0,1.023-.241l1.415-1.414a1,1,0,0,0,.241-1.024l-.459-1.38,1.3-.651A1,1,0,0,0,40,11V9a1,1,0,0,0-.553-.895l-1.3-.65L38.6,6.074a1,1,0,0,0-.241-1.024L36.949,3.636A1,1,0,0,0,35.926,3.4l-1.381.459-.65-1.3A1,1,0,0,0,33,2H31a1,1,0,0,0-.895.553l-.65,1.3L28.074,3.4a1,1,0,0,0-1.023.241L25.636,5.05A1,1,0,0,0,25.4,6.074l.459,1.381-1.3.65A1,1,0,0,0,24,9v2A1,1,0,0,0,24.553,11.9ZM26,9.618l1.3-.65a1,1,0,0,0,.488-.542c.037-.1.077-.2.12-.293a.993.993,0,0,0,.037-.727l-.459-1.379.54-.54,1.379.46a1,1,0,0,0,.733-.039c.092-.043.187-.081.284-.117a1,1,0,0,0,.545-.49l.65-1.3h.764l.65,1.3a1,1,0,0,0,.545.49c.1.036.192.074.284.117a1.014,1.014,0,0,0,.733.039l1.379-.46.54.54-.459,1.379a1,1,0,0,0,.039.732c.043.1.081.191.118.288a1,1,0,0,0,.488.542l1.3.65v.764l-1.3.651a1,1,0,0,0-.488.54c-.037.1-.077.2-.12.294a.993.993,0,0,0-.037.727l.459,1.379-.54.54-1.379-.46a1.014,1.014,0,0,0-.733.039c-.092.043-.187.081-.284.117a1,1,0,0,0-.545.49l-.65,1.3h-.764l-.65-1.3a1,1,0,0,0-.545-.49c-.1-.036-.192-.074-.284-.117a1,1,0,0,0-.733-.039l-1.379.46-.54-.541.459-1.378a1,1,0,0,0-.04-.736c-.043-.092-.081-.188-.117-.284a1,1,0,0,0-.488-.542l-1.3-.65Z" /><path d="M10,24a3,3,0,1,0-3-3A3,3,0,0,0,10,24Zm0-4a1,1,0,1,1-1,1A1,1,0,0,1,10,20Z" /><path d="M2.553,22.9l1.3.65L3.4,24.926a1,1,0,0,0,.241,1.024l1.415,1.414a1,1,0,0,0,1.023.241l1.381-.459.65,1.3A1,1,0,0,0,9,29h2a1,1,0,0,0,.895-.553l.65-1.3,1.381.459a1,1,0,0,0,1.023-.241l1.415-1.414a1,1,0,0,0,.241-1.024l-.459-1.38,1.3-.651A1,1,0,0,0,18,22V20a1,1,0,0,0-.553-.895l-1.3-.65.459-1.381a1,1,0,0,0-.241-1.024l-1.415-1.414a1,1,0,0,0-1.023-.241l-1.381.459-.65-1.3A1,1,0,0,0,11,13H9a1,1,0,0,0-.895.553l-.65,1.3L6.074,14.4a1,1,0,0,0-1.023.241L3.636,16.05A1,1,0,0,0,3.4,17.074l.459,1.381-1.3.65A1,1,0,0,0,2,20v2A1,1,0,0,0,2.553,22.9ZM4,20.618l1.3-.65a1,1,0,0,0,.488-.542c.037-.1.077-.2.12-.293a.993.993,0,0,0,.037-.727l-.459-1.379.54-.54,1.379.46a1,1,0,0,0,.733-.039c.092-.043.187-.081.284-.117a1,1,0,0,0,.545-.49l.65-1.3h.764l.65,1.3a1,1,0,0,0,.545.49c.1.036.192.074.284.117a1.014,1.014,0,0,0,.733.039l1.379-.46.54.54-.459,1.379a1,1,0,0,0,.039.732c.043.095.081.191.118.288a1,1,0,0,0,.488.542l1.3.65v.764l-1.3.651a1,1,0,0,0-.488.54c-.037.1-.077.2-.12.294a.993.993,0,0,0-.037.727l.459,1.379-.54.54-1.379-.46a1.014,1.014,0,0,0-.733.039c-.092.043-.187.081-.284.117a1,1,0,0,0-.545.49l-.65,1.3H9.618l-.65-1.3a1,1,0,0,0-.545-.49c-.1-.036-.192-.074-.284-.117a1,1,0,0,0-.733-.039l-1.379.46-.54-.541.459-1.378a1,1,0,0,0-.04-.736c-.043-.092-.081-.188-.117-.284a1,1,0,0,0-.488-.542L4,21.382Z" /><path d="M51,21a3,3,0,1,0,3-3A3,3,0,0,0,51,21Zm4,0a1,1,0,1,1-1-1A1,1,0,0,1,55,21Z" /><path d="M53,13a1,1,0,0,0-.9.553l-.65,1.3L50.074,14.4a1,1,0,0,0-1.023.241L47.636,16.05a1,1,0,0,0-.241,1.024l.459,1.381-1.3.65A1,1,0,0,0,46,20v2a1,1,0,0,0,.553.895l1.3.651-.459,1.38a1,1,0,0,0,.241,1.024l1.415,1.414a1,1,0,0,0,1.023.241l1.381-.459.65,1.3A1,1,0,0,0,53,29h2a1,1,0,0,0,.9-.553l.65-1.3,1.381.459a1,1,0,0,0,1.023-.241l1.415-1.414a1,1,0,0,0,.241-1.024l-.459-1.38,1.3-.651A1,1,0,0,0,62,22V20a1,1,0,0,0-.553-.895l-1.3-.65.459-1.381a1,1,0,0,0-.241-1.024l-1.415-1.414a1,1,0,0,0-1.023-.241l-1.381.459-.65-1.3A1,1,0,0,0,55,13Zm2.577,3.791c.1.036.192.074.284.117a1.014,1.014,0,0,0,.733.039l1.379-.46.54.54-.459,1.379a1,1,0,0,0,.039.732c.043.095.081.191.118.288a1,1,0,0,0,.488.542l1.3.65v.764l-1.3.651a1,1,0,0,0-.488.54c-.036.1-.074.193-.117.287a.992.992,0,0,0-.04.734l.459,1.379-.54.54-1.379-.46a1.014,1.014,0,0,0-.733.039c-.092.043-.187.081-.284.117a1,1,0,0,0-.545.49l-.65,1.3h-.764l-.65-1.3a1,1,0,0,0-.545-.49c-.1-.036-.192-.074-.284-.117a1,1,0,0,0-.733-.039l-1.379.46-.54-.54.459-1.379a.993.993,0,0,0-.037-.727c-.043-.1-.083-.2-.12-.294a1,1,0,0,0-.488-.54L48,21.382v-.764l1.3-.65a1,1,0,0,0,.488-.542c.038-.1.078-.2.121-.294a1,1,0,0,0,.036-.726l-.459-1.379.54-.54,1.379.46a1,1,0,0,0,.733-.039c.092-.043.187-.081.284-.117a1,1,0,0,0,.545-.49l.65-1.3h.764l.65,1.3A1,1,0,0,0,55.577,16.791Z" /><path d="M48.771,39.925,39.833,43H24.167l-8.878-3.052a2.633,2.633,0,0,0-3.4,1.333,2.512,2.512,0,0,0-.22,1.011,2.555,2.555,0,0,0,1.593,2.346l9.461,3.915.282.4V61a1,1,0,0,0,1,1H40a1,1,0,0,0,1-1V48.953l.282-.4,9.463-3.916a2.557,2.557,0,0,0,1.41-1.422,2.481,2.481,0,0,0-.042-1.942A2.615,2.615,0,0,0,48.771,39.925ZM50.3,42.477a.577.577,0,0,1-.319.313l-9.729,4.026a1.008,1.008,0,0,0-.435.348l-.631.9a.993.993,0,0,0-.183.576V60H25V48.636a.993.993,0,0,0-.183-.576l-.631-.9a1.008,1.008,0,0,0-.435-.348l-9.725-4.024a.551.551,0,0,1-.362-.5.52.52,0,0,1,.049-.2.641.641,0,0,1,.866-.274l9.1,3.13A1.026,1.026,0,0,0,24,45H40a1.026,1.026,0,0,0,.325-.054l9.155-3.153a.622.622,0,0,1,.807.3A.492.492,0,0,1,50.3,42.477Z" /><rect x="36" y="57" width="2" height="2" /><rect x="33" y="57" width="2" height="2" /><rect x="36" y="54" width="2" height="2" /><path d="M10.956,39a5.31,5.31,0,0,1-5.019-3.35,5.11,5.11,0,0,1,.14-3.732l1.091,1.637,1.664-1.11-2-3A1,1,0,0,0,6.037,29a1.038,1.038,0,0,0-.273.057l-.006-.027-4,1,.484,1.94L4.1,31.506a6.974,6.974,0,0,0-.035,4.843A7.316,7.316,0,0,0,10.956,41h.051l-.014-2Z" /><path d="M62.242,30.03l-4-1-.007.027A1.037,1.037,0,0,0,57.963,29a1,1,0,0,0-.8.445l-2,3,1.664,1.11,1.091-1.637a5.113,5.113,0,0,1,.14,3.733A5.31,5.31,0,0,1,53.044,39h-.037l-.014,2h.051a7.316,7.316,0,0,0,6.893-4.65,6.977,6.977,0,0,0-.035-4.844l1.856.464Z" /><path d="M11,11H23V9H10a1,1,0,0,0-1,1v2h2Z" /><path d="M53,12h2V10a1,1,0,0,0-1-1H41v2H53Z" /></g></svg>