<svg id="Layer_2" data-name="Layer 2" xmlns="http://www.w3.org/2000/svg" viewBox="0 0 32 32"><title>blockchain 1</title><path d="M19,14.221a.53.53,0,0,0-.125-.125c-.012-.008-.017-.022-.029-.029l-2.6-1.5a.5.5,0,0,0-.5,0l-2.6,1.5c-.013.007-.018.021-.03.029a.491.491,0,0,0-.124.125c-.012.018-.025.033-.036.053a.491.491,0,0,0-.06.226v3a.425.425,0,0,0,.012.06.488.488,0,0,0,.02.1.48.48,0,0,0,.042.085.372.372,0,0,0,.13.146.363.363,0,0,0,.046.041l2.6,1.5a.168.168,0,0,0,.024.006.449.449,0,0,0,.452,0,.168.168,0,0,0,.024-.006l2.6-1.5a.587.587,0,0,0,.046-.041.452.452,0,0,0,.077-.068.466.466,0,0,0,.053-.078.417.417,0,0,0,.041-.085.492.492,0,0,0,.02-.1A.413.413,0,0,0,19.1,17.5v-3a.487.487,0,0,0-.061-.227A.591.591,0,0,0,19,14.221Zm-.9,2.99-1.6.923V16.289l1.6-.923Zm-4.2-1.845,1.6.923v1.845l-1.6-.923ZM16,13.577l1.6.923-1.6.923L14.4,14.5Zm3,12.644a.53.53,0,0,0-.125-.125c-.012-.008-.017-.022-.029-.029l-2.6-1.5a.5.5,0,0,0-.5,0l-2.6,1.5c-.013.007-.018.021-.03.029a.491.491,0,0,0-.124.125c-.012.018-.025.033-.036.053a.491.491,0,0,0-.06.226v3a.425.425,0,0,0,.012.06.488.488,0,0,0,.02.1.48.48,0,0,0,.042.085.372.372,0,0,0,.13.146.363.363,0,0,0,.046.041l2.6,1.5a.168.168,0,0,0,.024.006.449.449,0,0,0,.452,0,.168.168,0,0,0,.024-.006l2.6-1.5a.587.587,0,0,0,.046-.041.452.452,0,0,0,.077-.068.466.466,0,0,0,.053-.078.417.417,0,0,0,.041-.085.492.492,0,0,0,.02-.1A.413.413,0,0,0,19.1,29.5v-3a.487.487,0,0,0-.061-.227A.591.591,0,0,0,19,26.221Zm-.9,2.99-1.6.923V28.289l1.6-.923Zm-4.2-1.845,1.6.923v1.845l-1.6-.923ZM16,25.577l1.6.923-1.6.923L14.4,26.5ZM19,2.221a.53.53,0,0,0-.125-.125c-.012-.008-.017-.022-.029-.029l-2.6-1.5a.5.5,0,0,0-.5,0l-2.6,1.5c-.013.007-.018.021-.03.029A.491.491,0,0,0,13,2.221c-.012.018-.025.033-.036.053a.491.491,0,0,0-.06.226v3a.425.425,0,0,0,.012.06.488.488,0,0,0,.02.1.48.48,0,0,0,.042.085.372.372,0,0,0,.13.146.363.363,0,0,0,.046.041l2.6,1.5a.168.168,0,0,0,.024.006.449.449,0,0,0,.452,0,.168.168,0,0,0,.024-.006l2.6-1.5a.587.587,0,0,0,.046-.041.452.452,0,0,0,.077-.068.466.466,0,0,0,.053-.078.417.417,0,0,0,.041-.085.492.492,0,0,0,.02-.1A.413.413,0,0,0,19.1,5.5v-3a.487.487,0,0,0-.061-.227A.591.591,0,0,0,19,2.221Zm-.9,2.99-1.6.923V4.289l1.6-.923ZM13.9,3.366l1.6.923V6.134l-1.6-.923ZM16,1.577l1.6.923L16,3.423,14.4,2.5ZM30.085,17.561A.413.413,0,0,0,30.1,17.5v-3a.487.487,0,0,0-.061-.227A.591.591,0,0,0,30,14.221a.53.53,0,0,0-.125-.125c-.012-.008-.017-.022-.029-.029l-2.6-1.5a.5.5,0,0,0-.5,0l-2.6,1.5c-.012.007-.017.021-.029.029a.53.53,0,0,0-.125.125.591.591,0,0,0-.035.052.487.487,0,0,0-.061.227v3a.413.413,0,0,0,.013.061.492.492,0,0,0,.02.1.417.417,0,0,0,.041.085.466.466,0,0,0,.053.078.452.452,0,0,0,.077.068.587.587,0,0,0,.046.041l2.6,1.5a.168.168,0,0,0,.024.006.449.449,0,0,0,.452,0,.168.168,0,0,0,.024-.006l2.6-1.5a.587.587,0,0,0,.046-.041.452.452,0,0,0,.077-.068.466.466,0,0,0,.053-.078.417.417,0,0,0,.041-.085A.492.492,0,0,0,30.085,17.561Zm-5.183-2.2,1.6.923v1.845l-1.6-.923Zm2.6.923,1.6-.923v1.845l-1.6.923ZM27,13.577l1.6.923-1.6.923L25.4,14.5ZM8.024,17.746a.48.48,0,0,0,.042-.085.488.488,0,0,0,.02-.1A.425.425,0,0,0,8.1,17.5v-3a.491.491,0,0,0-.06-.226c-.011-.02-.024-.035-.036-.053a.491.491,0,0,0-.124-.125c-.012-.008-.017-.022-.03-.029l-2.6-1.5a.5.5,0,0,0-.5,0l-2.6,1.5c-.013.007-.018.021-.03.029A.491.491,0,0,0,2,14.221c-.012.018-.025.033-.036.053a.491.491,0,0,0-.06.226v3a.425.425,0,0,0,.012.06.488.488,0,0,0,.02.1.48.48,0,0,0,.042.085.372.372,0,0,0,.13.146.363.363,0,0,0,.046.041l2.6,1.5a.168.168,0,0,0,.024.006.449.449,0,0,0,.452,0,.168.168,0,0,0,.024-.006l2.6-1.5a.363.363,0,0,0,.046-.041.372.372,0,0,0,.13-.146ZM2.9,15.366l1.6.923v1.845l-1.6-.923Zm2.6.923,1.6-.923v1.845l-1.6.923ZM5,13.577l1.6.923L5,15.423,3.4,14.5ZM21,16a.5.5,0,0,1-.5.5H20a.5.5,0,0,1,0-1h.5A.5.5,0,0,1,21,16Zm2,.5h-.5a.5.5,0,0,1,0-1H23a.5.5,0,0,1,0,1ZM12.5,16a.5.5,0,0,1-.5.5h-.5a.5.5,0,0,1,0-1H12A.5.5,0,0,1,12.5,16Zm-3,.5H9a.5.5,0,0,1,0-1h.5a.5.5,0,0,1,0,1Zm6-5.5a.5.5,0,0,1,1,0v.5a.5.5,0,0,1-1,0Zm0-2V8.5a.5.5,0,0,1,1,0V9a.5.5,0,0,1-1,0Zm0,12v-.5a.5.5,0,0,1,1,0V21a.5.5,0,0,1-1,0Zm0,2a.5.5,0,0,1,1,0v.5a.5.5,0,0,1-1,0ZM19.646,7.354a.5.5,0,0,1,.708-.708L20.707,7A.5.5,0,1,1,20,7.707Zm1.525,1.524a.5.5,0,0,1,.707-.708l.391.391a.5.5,0,0,1-.707.708Zm1.561,1.561a.5.5,0,1,1,.707-.707l.39.39a.5.5,0,1,1-.707.707ZM24.293,12A.5.5,0,0,1,25,11.293l.354.353a.5.5,0,0,1-.708.708ZM12.354,6.646a.5.5,0,0,1,0,.708L12,7.707A.5.5,0,1,1,11.293,7l.353-.354A.5.5,0,0,1,12.354,6.646ZM8.171,10.829a.5.5,0,0,1,0-.707l.39-.39a.5.5,0,0,1,.707.707l-.39.39a.5.5,0,0,1-.707,0Zm2.658-2.658a.5.5,0,0,1,0,.707l-.39.39a.5.5,0,0,1-.707-.707l.39-.39A.5.5,0,0,1,10.829,8.171ZM6.646,12.354a.5.5,0,0,1,0-.708L7,11.293A.5.5,0,1,1,7.707,12l-.353.354a.5.5,0,0,1-.708,0ZM20.707,24.293a.5.5,0,0,1,0,.707l-.353.354a.5.5,0,0,1-.708-.708L20,24.293A.5.5,0,0,1,20.707,24.293Zm1.562-1.561a.5.5,0,0,1,0,.707l-.391.391a.5.5,0,0,1-.354.146.5.5,0,0,1-.353-.854l.391-.391A.5.5,0,0,1,22.269,22.732Zm1.56-1.562a.5.5,0,0,1,0,.708l-.39.39a.5.5,0,0,1-.353.147.5.5,0,0,1-.354-.854l.39-.39A.5.5,0,0,1,23.829,21.17Zm1.525-1.524a.5.5,0,0,1,0,.708L25,20.707A.5.5,0,0,1,24.293,20l.353-.354A.5.5,0,0,1,25.354,19.646Zm-13,5a.5.5,0,0,1-.708.708L11.293,25A.5.5,0,0,1,12,24.293Zm-1.525-1.524a.5.5,0,1,1-.707.707l-.39-.39a.5.5,0,0,1,.707-.707ZM9.268,21.561a.5.5,0,1,1-.707.707l-.39-.39a.5.5,0,0,1,.707-.707ZM7.707,20A.5.5,0,1,1,7,20.707l-.354-.353a.5.5,0,0,1,.708-.708Z"/></svg>