<svg id="Layer_2" data-name="Layer 2" xmlns="http://www.w3.org/2000/svg" viewBox="0 0 32 32"><title>DAO</title><path d="M30.433,15.758l-1.124-1.946a.5.5,0,0,0-.433-.25H26.629a.5.5,0,0,0-.433.25l-.979,1.7-3.1-.007L19.5,10.955l1.556-2.69H23a.5.5,0,0,0,.433-.25L24.56,6.068a.5.5,0,0,0,0-.5L23.437,3.622A.5.5,0,0,0,23,3.372H20.756a.5.5,0,0,0-.433.25L19.2,5.568a.5.5,0,0,0,0,.5l.983,1.7-1.55,2.68H13.368L11.819,7.772l.982-1.7a.5.5,0,0,0,0-.5L11.678,3.622a.5.5,0,0,0-.433-.25H9a.5.5,0,0,0-.433.25L7.44,5.568a.5.5,0,0,0,0,.5L8.564,8.015A.5.5,0,0,0,9,8.265h1.952l1.556,2.69L9.881,15.5h-3.1L5.8,13.8a.5.5,0,0,0-.433-.25H3.124a.5.5,0,0,0-.433.25L1.567,15.75a.5.5,0,0,0,0,.5L2.691,18.2a.5.5,0,0,0,.433.25H5.371A.5.5,0,0,0,5.8,18.2l.979-1.7h3.1l2.624,4.545-1.556,2.69H9a.5.5,0,0,0-.433.25L7.44,25.932a.5.5,0,0,0,0,.5l1.124,1.946a.5.5,0,0,0,.433.25h2.248a.5.5,0,0,0,.433-.25L12.8,26.432a.5.5,0,0,0,0-.5l-.982-1.7,1.549-2.678h5.264l1.552,2.683-.981,1.7a.5.5,0,0,0,0,.5l1.124,1.946a.5.5,0,0,0,.433.25h2.248a.5.5,0,0,0,.432-.25l1.123-1.946a.5.5,0,0,0,0-.5L23.44,23.985a.5.5,0,0,0-.432-.25H21.051L19.5,21.045,22.119,16.5l3.1.007.98,1.7a.5.5,0,0,0,.433.25h2.247a.5.5,0,0,0,.433-.25l1.124-1.947A.5.5,0,0,0,30.433,15.758ZM21.045,4.372h1.67l.835,1.446-.835,1.447h-1.67l-.836-1.447ZM8.45,5.818l.836-1.446h1.67l.835,1.446-.835,1.447H9.286ZM5.082,17.446H3.413L2.577,16l.836-1.446H5.082L5.918,16Zm5.874,10.182H9.286L8.45,26.182l.836-1.447h1.67l.835,1.447Zm12.6-1.446-.835,1.446h-1.67l-.836-1.446.836-1.447h1.67ZM18.626,20.55H13.374L10.746,16l2.628-4.55h5.252L21.254,16Zm9.961-3.1H26.918l-.836-1.447.836-1.446h1.669l.836,1.446ZM14.525,15.313a1.139,1.139,0,0,0-.488-.466,1.6,1.6,0,0,0-.728-.158h-.724a.15.15,0,0,0-.15.15v2.326a.149.149,0,0,0,.15.149h.724a1.631,1.631,0,0,0,.727-.153,1.117,1.117,0,0,0,.488-.461,1.5,1.5,0,0,0,0-1.387Zm-1.486-.078h.27a.77.77,0,0,1,.579.2.785.785,0,0,1,.2.572.775.775,0,0,1-.192.563.784.784,0,0,1-.582.2h-.27Zm2.95-.533H15.64a.15.15,0,0,0-.141.1l-.843,2.312a.152.152,0,0,0,.018.137.148.148,0,0,0,.123.064h.321a.148.148,0,0,0,.141-.1l.151-.418h.8l.151.418a.148.148,0,0,0,.141.1h.319a.149.149,0,0,0,.141-.2L16.13,14.8A.15.15,0,0,0,15.989,14.7ZM15.6,16.25l.208-.579.208.579Zm1.979-1.417a1.272,1.272,0,0,0-.479.481,1.441,1.441,0,0,0,0,1.373,1.271,1.271,0,0,0,.478.479,1.317,1.317,0,0,0,.664.172,1.346,1.346,0,0,0,.67-.171,1.249,1.249,0,0,0,.475-.479,1.449,1.449,0,0,0,0-1.375,1.254,1.254,0,0,0-.476-.48A1.387,1.387,0,0,0,17.583,14.833Zm.663.393a.709.709,0,0,1,.366.093.656.656,0,0,1,.249.262.988.988,0,0,1,0,.835.652.652,0,0,1-.252.265.755.755,0,0,1-.726,0,.649.649,0,0,1-.25-.264.991.991,0,0,1,0-.836.64.64,0,0,1,.251-.264A.706.706,0,0,1,18.246,15.226Z"/></svg>