<svg id="Layer_2" data-name="Layer 2" xmlns="http://www.w3.org/2000/svg" viewBox="0 0 32 32"><title>trigan coin</title><path d="M16,1.5A14.5,14.5,0,1,0,30.5,16,14.517,14.517,0,0,0,16,1.5Zm0,28A13.5,13.5,0,1,1,29.5,16,13.515,13.515,0,0,1,16,29.5Zm12-14H26.475a10.434,10.434,0,0,0-.605-3.047l1.408-.583a.5.5,0,0,0-.383-.924l-1.408.583a10.529,10.529,0,0,0-1.729-2.58l1.081-1.081a.5.5,0,1,0-.707-.707L23.051,8.242A10.516,10.516,0,0,0,20.47,6.513L21.054,5.1a.5.5,0,1,0-.924-.382L19.547,6.13a10.44,10.44,0,0,0-3.047-.6V4a.5.5,0,0,0-1,0V5.525a10.44,10.44,0,0,0-3.047.6L11.87,4.722a.5.5,0,1,0-.924.382l.584,1.409A10.516,10.516,0,0,0,8.949,8.242L7.868,7.161a.5.5,0,0,0-.707.707L8.242,8.949a10.529,10.529,0,0,0-1.729,2.58l-1.408-.583a.5.5,0,0,0-.383.924l1.408.583a10.434,10.434,0,0,0-.6,3.047H4a.5.5,0,0,0,0,1H5.525a10.434,10.434,0,0,0,.6,3.047l-1.408.583a.5.5,0,0,0,.383.924l1.408-.583a10.529,10.529,0,0,0,1.729,2.58L7.161,24.132a.5.5,0,0,0,.354.853.494.494,0,0,0,.353-.146l1.081-1.081a10.516,10.516,0,0,0,2.581,1.729L10.946,26.9a.5.5,0,1,0,.924.382l.583-1.408a10.44,10.44,0,0,0,3.047.605V28a.5.5,0,0,0,1,0V26.475a10.44,10.44,0,0,0,3.047-.605l.583,1.408a.5.5,0,1,0,.924-.382l-.584-1.409a10.516,10.516,0,0,0,2.581-1.729l1.081,1.081a.5.5,0,0,0,.707,0,.5.5,0,0,0,0-.707l-1.081-1.081a10.529,10.529,0,0,0,1.729-2.58l1.408.583a.5.5,0,0,0,.383-.924l-1.408-.583a10.434,10.434,0,0,0,.605-3.047H28a.5.5,0,0,0,0-1Zm-12,10A9.5,9.5,0,1,1,25.5,16,9.511,9.511,0,0,1,16,25.5Zm5.508-13.185a.5.5,0,0,0-.433-.25h-10.1a.5.5,0,0,0-.433.75l5.05,8.747a.5.5,0,0,0,.866,0l5.05-8.747A.5.5,0,0,0,21.508,12.315Zm-5.483,8-4.184-7.247h8.367Zm6.727-8.684-2.961,5.13a.127.127,0,0,1-.109.062.136.136,0,0,1-.062-.016.126.126,0,0,1-.046-.171l2.961-5.13a.127.127,0,0,1,.171-.046A.125.125,0,0,1,22.752,11.628Zm-6.727.062h-6a.125.125,0,0,1,0-.25h6a.125.125,0,0,1,0,.25Zm.108,11.459a.125.125,0,1,1-.216.125l-3-5.2a.125.125,0,0,1,.045-.171.127.127,0,0,1,.171.046Z"/></svg>