<?xml version="1.0" encoding="UTF-8" standalone="no"?> <svg width="512" height="512" viewBox="0 0 512 512" fill="none" xmlns="http://www.w3.org/2000/svg">
<path d="M417.759 51.2998V215.3H402.409C399.786 209.321 395.745 204.073 390.635 200.01C385.525 195.947 379.501 193.192 373.086 191.984C371.341 182.613 366.308 174.173 358.893 168.184C351.478 162.195 342.168 159.05 332.64 159.316C311.201 159.904 293.759 178.14 293.759 199.966V215.3H241.759V155.3C241.759 153.178 240.916 151.143 239.416 149.643C237.915 148.143 235.881 147.3 233.759 147.3H209.759C203.394 147.3 197.289 144.771 192.788 140.27C188.287 135.769 185.759 129.665 185.759 123.3C185.759 116.935 188.287 110.83 192.788 106.329C197.289 101.828 203.394 99.2998 209.759 99.2998H233.759C235.881 99.2998 237.915 98.457 239.416 96.9567C240.916 95.4564 241.759 93.4215 241.759 91.2998V39.2998H405.759C408.94 39.3032 411.991 40.5686 414.24 42.8183C416.49 45.068 417.755 48.1183 417.759 51.2998ZM265.759 247.3C263.637 247.3 261.602 248.143 260.102 249.643C258.602 251.143 257.759 253.178 257.759 255.3V283.3H241.759V231.3H301.759C303.881 231.3 305.915 230.457 307.416 228.957C308.916 227.456 309.759 225.422 309.759 223.3V199.962C309.759 186.72 320.22 175.662 333.079 175.306C338.343 175.16 343.51 176.747 347.784 179.824C352.059 182.9 355.205 187.295 356.738 192.334C347.936 194.383 340.086 199.348 334.462 206.421C328.838 213.495 325.771 222.263 325.759 231.3V247.3H265.759ZM61.7588 39.2998H225.759V83.2998H209.759C199.15 83.2998 188.976 87.5141 181.475 95.0155C173.973 102.517 169.759 112.691 169.759 123.3C169.759 133.908 173.973 144.083 181.475 151.584C188.976 159.086 199.15 163.3 209.759 163.3H225.759V215.3H165.759C163.637 215.3 161.602 216.143 160.102 217.643C158.602 219.143 157.759 221.178 157.759 223.3V246.635C157.759 259.877 147.298 270.935 134.438 271.291C131.23 271.382 128.037 270.828 125.047 269.663C122.057 268.499 119.331 266.746 117.03 264.509C114.729 262.272 112.9 259.597 111.651 256.641C110.402 253.685 109.759 250.509 109.759 247.3V223.3C109.759 221.178 108.916 219.143 107.416 217.643C105.915 216.143 103.881 215.3 101.759 215.3H49.7588V51.2998C49.7622 48.1183 51.0276 45.068 53.2773 42.8183C55.527 40.5686 58.5772 39.3032 61.7588 39.2998V39.2998ZM257.759 347.3H233.759C231.637 347.3 229.602 348.143 228.102 349.643C226.602 351.143 225.759 353.178 225.759 355.3V407.3H61.7588C58.5772 407.296 55.527 406.031 53.2773 403.781C51.0276 401.532 49.7622 398.481 49.7588 395.3V231.3H93.7588V247.3C93.7587 252.647 94.8307 257.94 96.9114 262.865C98.9921 267.791 102.039 272.25 105.873 275.977C109.706 279.705 114.248 282.626 119.23 284.569C124.212 286.511 129.533 287.434 134.878 287.285C156.316 286.696 173.759 268.461 173.759 246.635V231.3H225.759V291.3C225.759 293.422 226.602 295.456 228.102 296.957C229.602 298.457 231.637 299.3 233.759 299.3H257.759V323.3C257.759 325.422 258.602 327.456 260.102 328.957C261.602 330.457 263.637 331.3 265.759 331.3H280.383C278.724 335.975 275.659 340.023 271.608 342.888C267.558 345.752 262.72 347.293 257.759 347.3V347.3ZM273.759 439.3V395.3H289.759C295.106 395.3 300.398 394.228 305.324 392.147C310.249 390.066 314.707 387.019 318.435 383.186C322.163 379.353 325.084 374.811 327.026 369.83C328.968 364.848 329.892 359.528 329.743 354.183C329.167 333.175 311.643 316.017 290.407 315.333C290.193 315.316 289.978 315.3 289.759 315.3C289.685 315.3 289.612 315.309 289.539 315.311C289.39 315.311 289.239 315.3 289.093 315.3H273.759V263.3H333.759C335.881 263.3 337.915 262.457 339.416 260.957C340.916 259.456 341.759 257.422 341.759 255.3V231.3C341.759 224.935 344.287 218.83 348.788 214.329C353.289 209.828 359.394 207.3 365.759 207.3C372.124 207.3 378.228 209.828 382.729 214.329C387.23 218.83 389.759 224.935 389.759 231.3V255.3C389.759 257.422 390.602 259.456 392.102 260.957C393.602 262.457 395.637 263.3 397.759 263.3H449.759V411.619L411.854 399.666C410.493 399.237 409.042 399.179 407.652 399.5C406.262 399.82 404.982 400.506 403.947 401.487C402.911 402.468 402.156 403.708 401.761 405.079C401.366 406.45 401.344 407.902 401.699 409.284L409.399 439.296L273.759 439.3ZM464.151 476.69L453.151 465.073C452.429 464.309 451.564 463.696 450.604 463.267C449.645 462.838 448.611 462.602 447.561 462.573H447.343C445.296 462.573 443.328 463.357 441.843 464.765L434.288 471.919L420.778 419.256L472.63 435.606L465.076 442.761C463.535 444.22 462.638 446.231 462.58 448.352C462.523 450.473 463.31 452.529 464.769 454.07L475.769 465.687L464.151 476.69Z" fill="black"/>
</svg>
