<?xml version="1.0" encoding="utf-8"?>
<!-- Generator: Adobe Illustrator 27.0.1, SVG Export Plug-In . SVG Version: 6.00 Build 0)  -->
<svg version="1.1" id="Layer_1" xmlns="http://www.w3.org/2000/svg" xmlns:xlink="http://www.w3.org/1999/xlink" x="0px" y="0px"
	 viewBox="0 0 1638.66 510.67" style="enable-background:new 0 0 1638.66 510.67;" xml:space="preserve">
<style type="text/css">
	.st0{fill:#FFFFFF;}
</style>
<g>
	<g>
		<g>
			<g>
				<path class="st0" d="M238.65,388.98c-5.22,3.67-6.78,10.72-3.59,16.24l34.44,59.66c7.68,13.3,26.88,13.3,34.56,0l101.85-176.42
					c3.89-6.74-4.1-14.05-10.47-9.58L238.65,388.98z"/>
			</g>
			<g>
				<path class="st0" d="M336.76,110.54l125.09,58.13c5.9,2.74,12.93,0.52,16.18-5.11l39.52-68.44c6.44-11.16-1.61-25.1-14.49-25.1
					H286.78h0c-8.81,0-11.46,11.98-3.47,15.69L336.76,110.54z"/>
			</g>
			<g>
				<path class="st0" d="M174.69,224.34L162,81.4c-0.57-6.45-5.97-11.39-12.45-11.39h-80c-12.46,0-20.24,13.48-14.01,24.27
					l108.62,188.13l0,0c4.39,7.6,16.04,3.92,15.27-4.82L174.69,224.34z"/>
			</g>
		</g>
	</g>
	<g>
		<path class="st0" d="M601.82,313.55V194.72h-25.34c-9.88,0-15.32-5.44-15.32-15.32v-1.76c0-9.88,5.44-15.32,15.32-15.32h86.75
			c9.88,0,15.32,5.44,15.32,15.32v1.76c0,9.88-5.44,15.32-15.32,15.32h-25.11v118.83c0,9.88-5.44,15.32-15.32,15.32h-5.67
			C607.26,328.87,601.82,323.44,601.82,313.55z"/>
		<path class="st0" d="M846.72,328.87h-6.82c-8.58,0-13.65-3.91-17.93-11.18l-24.32-42.15c-2.54,0.12-5.15,0.18-7.84,0.18h-19.19
			v37.83c0,9.88-5.44,15.32-15.32,15.32h-5.97c-9.88,0-15.32-5.44-15.32-15.32V177.64c0-9.88,5.44-15.32,15.32-15.32h41.17
			c53.97,0,72.85,18.01,72.85,55.98c0,24.03-9.86,41.58-31.74,50.59l25.59,41.7C864.46,322.4,861.28,328.87,846.72,328.87z
			 M826.74,220.74c0-20.65-11.52-27.78-37.16-27.78h-19.19v55.33h19.19C815.22,248.29,826.74,241.55,826.74,220.74z"/>
		<path class="st0" d="M924.03,313.55V177.64c0-9.88,5.44-15.32,15.32-15.32h5.74c9.88,0,15.32,5.44,15.32,15.32v135.91
			c0,9.88-5.44,15.32-15.32,15.32h-5.74C929.47,328.87,924.03,323.44,924.03,313.55z"/>
		<path class="st0" d="M1021.04,245.14c0-50.84,32.05-84.85,79.14-84.85c29.68,0,51.42,8.79,63.97,28.48
			c5.92,9.29,2.04,16.1-8.67,18.63l-5.23,1.24c-8.26,1.96-13.65-0.77-18.85-5.99c-7.46-7.43-16.57-11.99-30.15-11.99
			c-26.32,0-43.67,21.64-43.67,54.86c0,33.68,16.81,54.55,43.51,54.55c22.88,0,37.92-13.05,39.46-38.15h-27.72
			c-9.27,0-14.48-5.06-14.48-14.1v-0.23c0-8.81,5.59-13.72,15.32-13.72h49.17c9.73,0,15.47,2.84,15.47,10.88v3.37
			c0,51.38-30.06,82.43-78.83,82.43C1051.71,330.56,1021.04,297.13,1021.04,245.14z"/>
		<path class="st0" d="M1363.98,328.87h-6.36c-8.81,0-14.41-4.08-17.45-12.46l-5.99-16.46h-71.97l-5.9,16.48
			c-2.99,8.34-8.7,12.44-17.51,12.44h-6.12c-11.26,0-16.25-7.23-12.1-17.66l54.38-136.74c3.3-8.29,8.97-12.15,17.7-12.15h10.88
			c8.73,0,14.39,3.86,17.7,12.15l54.62,136.71C1380.02,321.63,1375.08,328.87,1363.98,328.87z M1298.09,201.93l-26.07,71.21h52.28
			L1298.09,201.93z"/>
		<path class="st0" d="M1445.02,328.87c-9.88,0-15.32-5.44-15.32-15.32V177.64c0-9.88,5.44-15.32,15.32-15.32h8.2
			c8.35,0,13.75,2.99,18.46,10.26l65.17,99.23v-94.17c0-9.88,5.44-15.32,15.32-15.32h5.67c9.88,0,15.32,5.44,15.32,15.32v135.91
			c0,9.88-5.44,15.32-15.32,15.32h-7.89c-8.35,0-13.96-3.45-18.46-10.26l-65.4-99.61v94.55c0,9.88-5.44,15.32-15.32,15.32
			L1445.02,328.87L1445.02,328.87z"/>
	</g>
</g>
</svg>
