<?xml version="1.0" encoding="UTF-8"?>
<!-- Generator: Adobe Illustrator 26.3.1, SVG Export Plug-In . SVG Version: 6.00 Build 0)  -->
<svg xmlns="http://www.w3.org/2000/svg" xmlns:xlink="http://www.w3.org/1999/xlink" version="1.1" id="Layer_1" x="0px" y="0px" viewBox="0 0 1000 267.67" style="enable-background:new 0 0 1000 267.67;" xml:space="preserve">
<style type="text/css">
	.st0{fill:#ffffff;}
</style>
<g>
	<g>
		<g>
			<path class="st0" d="M118.99,198.97c-2.8,1.97-3.64,5.75-1.93,8.71l18.48,32.01c4.12,7.14,14.42,7.14,18.54,0l54.64-94.65     c2.09-3.62-2.2-7.54-5.62-5.14L118.99,198.97z"></path>
		</g>
		<g>
			<path class="st0" d="M171.63,49.58l67.11,31.19c3.17,1.47,6.94,0.28,8.68-2.74l21.2-36.72c3.46-5.99-0.86-13.47-7.77-13.47     H144.82h0c-4.73,0-6.15,6.43-1.86,8.42L171.63,49.58z"></path>
		</g>
		<g>
			<path class="st0" d="M84.68,110.64l-6.81-76.68c-0.31-3.46-3.2-6.11-6.68-6.11H28.27c-6.68,0-10.86,7.23-7.52,13.02l58.27,100.93     l0,0c2.35,4.08,8.61,2.1,8.19-2.59L84.68,110.64z"></path>
		</g>
	</g>
	<g>
		<g>
			<path class="st0" d="M373.05,64.86h-81.08c-3.76,0-6.83,3.06-6.83,7c0,3.76,3.06,6.83,6.83,6.83l33.11-0.05v99.29     c0,3.76,3.06,6.83,6.83,6.83h1.45c3.76,0,6.83-3.06,6.83-6.83l-0.05-99.24h32.92c3.76,0,6.83-3.06,6.83-7     C379.87,67.92,376.81,64.86,373.05,64.86z"></path>
			<path class="st0" d="M554.03,64.86h-1.45c-3.76,0-6.83,3.06-6.83,6.83v106.24c0,3.76,3.06,6.83,6.83,6.83h1.45     c3.76,0,6.83-3.06,6.83-6.83V71.69C560.86,67.92,557.8,64.86,554.03,64.86z"></path>
			<path class="st0" d="M446.12,132.78l38.31,48.36c0.88,1.33,1.93,2.29,3.08,2.83c1.07,0.52,2.34,0.78,3.77,0.78     c2.64,0,5-1.48,6.15-3.86c1.15-2.38,0.84-5.14-0.81-7.21l-33.58-42.2c2.72-0.65,5.29-1.49,7.67-2.51     c4.33-1.86,8.09-4.31,11.17-7.27c3.12-3,5.55-6.54,7.22-10.54c1.66-3.97,2.5-8.39,2.5-13.14c0-10.82-3.71-19.18-11.03-24.88     c-7.06-5.49-17.59-8.27-31.3-8.27h-25.52c-3.76,0-6.83,3.06-6.83,6.83v106.24c0,3.76,3.06,6.83,6.83,6.83h1.45     c3.76,0,6.83-3.06,6.83-6.83l-0.05-99.72h17.3c9.26,0,16.3,1.73,20.92,5.16c4.36,3.23,6.48,8.18,6.48,15.13     c0,3.43-0.62,6.52-1.84,9.19c-1.21,2.64-3,4.94-5.32,6.83c-2.38,1.94-5.37,3.46-8.89,4.53c-2.58,0.78-5.44,1.28-8.54,1.51     l-0.16,0.01c-3.86,0-7.58,2.98-7.58,6.64v1.41C444.33,130.19,445.07,131.52,446.12,132.78z"></path>
			<path class="st0" d="M701,126.6h-24.37c-3.76,0-6.83,3.06-6.83,6.83v1.08c0,1.42,0.6,2.76,1.68,3.78     c1.04,0.97,2.36,1.49,3.83,1.49l18.21-0.05l0.03,25.02c-1.84,1.02-3.66,1.95-5.45,2.8c-2.29,1.07-4.65,1.98-7.04,2.69     c-2.39,0.72-4.97,1.29-7.66,1.69c-2.66,0.4-5.61,0.6-8.79,0.6c-7.21,0-13.76-1.11-19.46-3.29c-5.63-2.15-10.46-5.29-14.38-9.33     c-3.93-4.04-6.97-9.05-9.05-14.9c-2.12-5.92-3.19-12.73-3.19-20.25c0-7.41,1.07-14.13,3.19-20c2.08-5.79,5.08-10.76,8.91-14.76     c3.81-3.98,8.5-7.09,13.95-9.24c5.51-2.17,11.79-3.28,18.67-3.28c5.22,0,9.66,0.47,13.22,1.41c3.63,0.95,6.68,2.02,9.07,3.19     c2.39,1.17,4.25,2.28,5.54,3.29c1.8,1.41,3.15,2.27,4.11,2.64c3.08,1.43,6.13,0.55,7.7-2.15l0.63-0.99     c1.88-2.96,1.25-6.82-1.46-8.97c-1.87-1.48-3.84-2.86-5.85-4.11c-2.9-1.79-6.07-3.32-9.42-4.54c-3.33-1.21-6.97-2.14-10.82-2.76     c-3.82-0.61-8.02-0.92-12.48-0.92c-9.12,0-17.47,1.46-24.82,4.35c-7.4,2.91-13.81,7.1-19.05,12.46     c-5.24,5.36-9.32,11.9-12.1,19.42c-2.77,7.46-4.17,15.86-4.17,24.96c0,9.11,1.43,17.53,4.25,25.01c2.85,7.55,7,14.11,12.37,19.47     c5.36,5.35,11.9,9.54,19.45,12.44c7.5,2.88,16.03,4.34,25.35,4.34c8.32,0,15.94-1.13,22.65-3.37c6.1-2.03,11.95-4.91,17.39-8.56     c1.89-1.27,3.01-3.39,3.01-5.68v-34.98C707.82,129.66,704.76,126.6,701,126.6z"></path>
			<path class="st0" d="M829.54,180.48c0.48,1.15,1.18,2.12,2.09,2.88c1.09,0.91,2.49,1.39,4.04,1.39h1.26     c2.28,0,4.4-1.13,5.67-3.02c1.27-1.89,1.51-4.28,0.65-6.39L799.77,69.11c-1.05-2.58-3.53-4.24-6.32-4.24h-3.52     c-2.78,0-5.26,1.66-6.32,4.24l-43.47,106.24c-0.86,2.11-0.62,4.49,0.65,6.39c1.27,1.89,3.39,3.02,5.67,3.02h1.18     c1.53,0,2.93-0.48,4.06-1.39c1.03-0.82,1.77-1.83,2.16-2.92l37.84-93.72L829.54,180.48z"></path>
			<path class="st0" d="M960.82,64.86c-3.77,0-6.83,3.06-6.83,6.83v85.32l-66.81-89.25c-0.83-1.11-1.68-1.86-2.62-2.3     c-0.87-0.4-1.9-0.6-3.17-0.6h-0.68c-3.76,0-6.83,3.06-6.83,6.83v106.24c0,3.76,3.06,6.83,6.83,6.83h0.41     c3.77,0,6.83-3.06,6.83-6.83V92.28l66.94,89.45c0.73,1.01,1.57,1.77,2.51,2.27c0.95,0.5,2.07,0.75,3.31,0.75h0.45     c3.77,0,6.83-3.06,6.83-6.83V71.69C967.98,67.92,964.92,64.86,960.82,64.86z"></path>
		</g>
	</g>
</g>
</svg>