<?xml version="1.0" standalone="no"?>
<!DOCTYPE svg PUBLIC "-//W3C//DTD SVG 20010904//EN"
 "http://www.w3.org/TR/2001/REC-SVG-20010904/DTD/svg10.dtd">
<svg version="1.0" xmlns="http://www.w3.org/2000/svg"
 width="934.000000pt" height="934.000000pt" viewBox="0 0 934.000000 934.000000"
 preserveAspectRatio="xMidYMid meet">
<metadata>
Created by potrace 1.14, written by Peter Selinger 2001-2017
</metadata>
<g transform="translate(0.000000,934.000000) scale(0.100000,-0.100000)"
fill="#000000" stroke="none">
<path d="M160 8699 c-46 -27 -131 -110 -124 -121 3 -4 1 -8 -4 -8 -21 0 -32
-57 -32 -169 0 -115 7 -151 40 -201 42 -64 330 -571 330 -580 0 -6 5 -10 10
-10 6 0 10 -5 10 -10 0 -6 12 -29 27 -53 15 -23 38 -62 51 -87 41 -74 52 -94
72 -125 11 -16 23 -37 27 -45 4 -8 26 -48 50 -88 24 -41 43 -78 43 -83 0 -5 5
-9 10 -9 6 0 10 -4 10 -9 0 -5 38 -74 85 -155 47 -80 85 -148 85 -152 0 -3 8
-18 19 -32 10 -15 28 -43 39 -63 11 -20 26 -47 34 -60 7 -13 19 -32 27 -41 8
-10 10 -18 6 -18 -4 0 -1 -8 8 -18 9 -10 27 -38 40 -63 35 -65 51 -93 58 -99
3 -3 13 -21 23 -40 9 -19 30 -55 46 -80 16 -25 29 -51 29 -57 1 -7 5 -13 10
-13 5 0 12 -11 15 -25 4 -14 11 -25 16 -25 6 0 10 -6 10 -14 0 -7 8 -24 19
-37 10 -13 19 -27 20 -31 2 -11 33 -66 58 -104 12 -19 20 -34 17 -34 -3 0 2
-7 10 -16 9 -8 16 -22 16 -30 0 -8 5 -14 10 -14 6 0 10 -4 10 -9 0 -6 17 -38
37 -73 65 -110 72 -122 103 -178 68 -122 96 -170 108 -182 7 -7 12 -15 12 -19
0 -4 53 -99 118 -211 65 -111 144 -248 176 -303 31 -55 61 -107 66 -115 5 -8
29 -50 54 -93 25 -43 46 -82 46 -87 0 -4 3 -10 8 -12 4 -1 18 -23 31 -48 78
-144 121 -180 213 -176 64 3 108 25 142 69 36 47 42 85 32 192 -4 39 -9 97
-11 130 -3 33 -7 76 -9 95 -3 19 -8 71 -11 115 -3 44 -9 105 -11 135 -3 30 -7
80 -9 110 -2 30 -4 55 -5 55 -2 0 -7 47 -14 150 -4 44 -8 98 -11 120 -5 47
-15 159 -20 230 -2 28 -6 73 -9 100 -10 98 -17 171 -21 230 -12 141 -25 295
-30 335 -2 19 -7 69 -10 110 -6 79 -11 140 -20 230 -3 30 -8 87 -11 125 -5 68
-7 87 -18 210 -8 79 -16 176 -22 250 -2 33 -7 80 -10 105 -2 25 -7 72 -9 105
-3 33 -7 83 -10 110 -10 111 -16 173 -20 225 -3 30 -7 78 -9 105 -3 28 -8 84
-11 125 -4 41 -9 98 -11 125 -3 28 -7 73 -9 100 -11 127 -18 181 -26 190 -5 5
-9 16 -9 25 0 20 -65 94 -105 120 -29 19 -53 20 -950 20 -916 0 -920 0 -955
-21z"/>
<path d="M4542 8689 c-35 -36 -60 -99 -57 -146 2 -46 33 -109 61 -124 13 -7
24 -16 24 -21 0 -4 4 -8 9 -8 8 0 57 -22 281 -127 81 -38 174 -81 260 -120 30
-14 100 -47 155 -73 55 -26 129 -60 165 -76 36 -16 67 -32 68 -36 2 -4 10 -8
18 -8 8 0 55 -20 104 -45 50 -25 90 -43 90 -39 0 3 12 -3 28 -14 15 -11 31
-20 35 -20 4 0 31 -11 60 -25 29 -14 81 -39 117 -55 36 -17 94 -43 130 -60 36
-16 106 -49 155 -72 50 -23 124 -58 165 -77 41 -19 102 -48 135 -63 33 -16 92
-43 130 -60 87 -40 165 -77 322 -152 68 -32 125 -58 127 -58 2 0 84 -38 183
-84 98 -46 203 -95 233 -108 30 -14 87 -41 125 -59 39 -18 72 -33 75 -34 3 -1
34 -15 70 -32 36 -17 101 -48 145 -68 44 -20 112 -52 150 -71 122 -57 192 -63
285 -23 55 24 94 62 136 136 16 26 32 50 36 51 5 2 6 8 2 13 -3 5 -1 9 4 9 4
0 14 16 22 35 8 19 17 35 21 35 4 0 9 8 12 18 6 17 22 45 90 160 20 35 37 67
37 73 0 5 5 9 10 9 6 0 10 4 10 9 0 4 23 48 51 97 29 49 60 103 69 119 9 17
31 54 49 83 17 29 31 55 31 57 0 2 23 40 50 85 28 45 50 83 50 85 0 2 20 38
45 79 25 42 45 79 45 82 0 3 11 20 25 38 14 18 23 35 20 38 -3 3 1 11 10 18 8
7 15 16 15 21 0 5 16 33 35 63 19 30 35 60 35 66 0 5 4 10 10 10 5 0 9 3 8 8
-1 4 4 24 11 46 21 60 10 221 -17 269 -41 70 -66 98 -126 138 l-58 39 -2278 0
-2278 0 -30 -31z"/>
<path d="M6840 4564 c-19 -13 -44 -29 -54 -36 -10 -7 -31 -23 -46 -35 -15 -13
-32 -23 -37 -23 -5 0 -18 -8 -29 -18 -21 -19 -31 -26 -135 -97 -41 -27 -76
-52 -79 -56 -3 -3 -50 -36 -105 -74 -55 -38 -104 -73 -110 -77 -5 -5 -55 -39
-110 -77 -55 -38 -104 -73 -110 -78 -5 -4 -23 -17 -40 -27 -16 -11 -35 -24
-42 -30 -6 -6 -41 -31 -78 -56 -77 -52 -196 -136 -210 -147 -6 -4 -37 -26 -70
-49 -100 -68 -200 -138 -205 -144 -3 -3 -25 -19 -50 -35 -25 -17 -49 -33 -55
-38 -5 -4 -48 -34 -95 -67 -137 -95 -151 -104 -163 -115 -7 -6 -39 -29 -72
-51 -130 -88 -160 -109 -165 -115 -3 -3 -40 -30 -83 -60 -95 -65 -91 -63 -247
-171 -69 -48 -130 -91 -135 -96 -6 -5 -24 -17 -40 -28 -17 -10 -34 -23 -40
-27 -14 -12 -224 -160 -243 -172 -9 -5 -39 -26 -67 -46 -27 -20 -88 -62 -135
-95 -47 -32 -96 -69 -110 -81 -14 -13 -27 -23 -31 -23 -3 0 -19 -26 -35 -57
-40 -80 -40 -173 1 -253 15 -30 30 -57 34 -60 3 -3 14 -21 25 -40 10 -19 28
-51 39 -70 11 -19 31 -55 45 -80 14 -25 36 -62 49 -82 12 -21 23 -40 23 -43 0
-2 18 -34 40 -70 22 -36 40 -70 40 -75 0 -6 5 -10 10 -10 6 0 10 -4 10 -9 0
-5 22 -47 49 -93 27 -45 59 -102 72 -124 283 -497 317 -547 420 -603 39 -22
59 -25 182 -29 76 -2 145 -1 155 4 9 4 20 6 25 6 4 -1 7 3 7 10 0 6 3 9 6 5
16 -16 156 104 170 146 3 9 9 17 14 17 5 0 12 10 16 23 4 12 18 39 31 60 13
21 33 55 45 75 11 20 63 111 116 202 112 194 131 227 149 260 8 14 25 43 39
65 13 22 27 47 31 55 3 8 14 26 23 40 15 21 40 65 94 165 6 11 13 22 16 25 3
3 17 26 30 52 14 27 28 48 32 48 5 0 8 5 8 11 0 11 139 259 151 269 3 3 12 20
20 38 8 17 17 32 21 32 5 0 8 6 8 14 0 8 6 21 13 28 6 7 25 38 41 68 17 30 42
75 58 99 15 25 28 49 28 53 0 5 9 18 20 30 11 12 20 30 20 39 0 10 4 19 9 21
4 2 25 35 46 73 21 39 41 72 44 75 4 3 15 24 26 47 11 24 23 43 28 43 4 0 7 6
7 14 0 7 7 19 15 26 8 7 12 16 9 21 -3 5 0 9 5 9 6 0 11 4 11 9 0 4 29 59 65
120 36 62 65 116 65 122 0 5 4 9 9 9 5 0 13 10 17 23 4 12 9 24 13 27 3 3 17
25 30 50 14 25 29 48 35 52 6 4 7 8 3 8 -4 0 4 17 18 37 14 21 25 43 25 49 0
7 3 14 8 16 4 2 56 89 116 193 61 105 159 276 219 380 60 105 118 206 129 225
11 19 36 61 55 94 59 97 55 176 -11 241 -35 34 -41 36 -111 40 -40 3 -57 -2
-85 -21z"/>
</g>
</svg>
