{
  "accessors": [
    {
      "bufferView": 2,
      "componentType": 5126,
      "count": 9105,
      "max": [
        9.872313499450684,
        9.872310638427734,
        9.9757661819458
      ],
      "min": [
        -9.872308731079102,
        -9.872314453125,
        -9.9757661819458
      ],
      "type": "VEC3"
    },
    {
      "bufferView": 2,
      "byteOffset": 109260,
      "componentType": 5126,
      "count": 9105,
      "max": [
        1.0,
        1.0,
        1.0
      ],
      "min": [
        -1.0,
        -1.0,
        -1.0
      ],
      "type": "VEC3"
    },
    {
      "bufferView": 1,
      "componentType": 5126,
      "count": 9105,
      "max": [
        1.0000003576278687,
        1.0000001192092896
      ],
      "min": [
        0.0,
        0.0
      ],
      "type": "VEC2"
    },
    {
      "bufferView": 0,
      "componentType": 5125,
      "count": 47616,
      "type": "SCALAR"
    },
    {
      "bufferView": 2,
      "byteOffset": 218520,
      "componentType": 5126,
      "count": 9105,
      "max": [
        9.921674728393555,
        9.921672821044922,
        10.025638580322266
      ],
      "min": [
        -9.921671867370605,
        -9.921676635742188,
        -10.02563762664795
      ],
      "type": "VEC3"
    },
    {
      "bufferView": 2,
      "byteOffset": 327780,
      "componentType": 5126,
      "count": 9105,
      "max": [
        1.0,
        1.0,
        1.0
      ],
      "min": [
        -1.0,
        -1.0,
        -1.0
      ],
      "type": "VEC3"
    },
    {
      "bufferView": 1,
      "byteOffset": 72840,
      "componentType": 5126,
      "count": 9105,
      "max": [
        1.0000003576278687,
        1.0000001192092896
      ],
      "min": [
        0.0,
        0.0
      ],
      "type": "VEC2"
    },
    {
      "bufferView": 0,
      "byteOffset": 190464,
      "componentType": 5125,
      "count": 47616,
      "type": "SCALAR"
    },
    {
      "bufferView": 3,
      "componentType": 5126,
      "count": 2743,
      "max": [
        67.16666412353516
      ],
      "min": [
        0.0
      ],
      "type": "SCALAR"
    },
    {
      "bufferView": 4,
      "componentType": 5126,
      "count": 2743,
      "max": [
        0.4995870888233185,
        0.7071067094802856,
        0.7071068286895752,
        0.7071067094802856
      ],
      "min": [
        -0.7071068286895752,
        -0.4998980760574341,
        -0.49989816546440125,
        -0.4995869994163513
      ],
      "type": "VEC4"
    }
  ],
  "animations": [
    {
      "channels": [
        {
          "sampler": 0,
          "target": {
            "node": 8,
            "path": "rotation"
          }
        }
      ],
      "name": "Clouds|CloudsAction",
      "samplers": [
        {
          "input": 8,
          "interpolation": "LINEAR",
          "output": 9
        }
      ]
    }
  ],
  "asset": {
    "extras": {
      "author": "Shubhanshu Soni (https://sketchfab.com/sonishubhanshu99)",
      "license": "CC-BY-4.0 (http://creativecommons.org/licenses/by/4.0/)",
      "source": "https://sketchfab.com/3d-models/earth-37249acae18b406d8c1c160d7c0bc8e6",
      "title": "Earth"
    },
    "generator": "Sketchfab-12.68.0",
    "version": "2.0"
  },
  "bufferViews": [
    {
      "buffer": 0,
      "byteLength": 380928,
      "name": "floatBufferViews",
      "target": 34963
    },
    {
      "buffer": 0,
      "byteLength": 145680,
      "byteOffset": 380928,
      "byteStride": 8,
      "name": "floatBufferViews",
      "target": 34962
    },
    {
      "buffer": 0,
      "byteLength": 437040,
      "byteOffset": 526608,
      "byteStride": 12,
      "name": "floatBufferViews",
      "target": 34962
    },
    {
      "buffer": 0,
      "byteLength": 10972,
      "byteOffset": 963648,
      "name": "floatBufferViews"
    },
    {
      "buffer": 0,
      "byteLength": 43888,
      "byteOffset": 974620,
      "byteStride": 16,
      "name": "floatBufferViews"
    }
  ],
  "buffers": [
    {
      "byteLength": 1018508,
      "uri": "scene.bin"
    }
  ],
  "images": [
    {
      "uri": "textures/Earth_baseColor.jpeg"
    },
    {
      "uri": "textures/Earth_emissive.jpeg"
    },
    {
      "uri": "textures/Clouds_baseColor.png"
    }
  ],
  "materials": [
    {
      "doubleSided": true,
      "emissiveFactor": [
        1.0,
        1.0,
        1.0
      ],
      "emissiveTexture": {
        "index": 1
      },
      "name": "Earth",
      "pbrMetallicRoughness": {
        "baseColorTexture": {
          "index": 0
        },
        "metallicFactor": 0.0,
        "roughnessFactor": 0.0
      }
    },
    {
      "alphaMode": "BLEND",
      "doubleSided": true,
      "name": "Clouds",
      "pbrMetallicRoughness": {
        "baseColorFactor": [
          1.0,
          1.0,
          1.0,
          0.602
        ],
        "baseColorTexture": {
          "index": 2
        },
        "roughnessFactor": 0.8040408205773457
      }
    }
  ],
  "meshes": [
    {
      "name": "Earth_Earth_0",
      "primitives": [
        {
          "attributes": {
            "NORMAL": 1,
            "POSITION": 0,
            "TEXCOORD_0": 2
          },
          "indices": 3,
          "material": 0,
          "mode": 4
        }
      ]
    },
    {
      "name": "Clouds_Clouds_0",
      "primitives": [
        {
          "attributes": {
            "NORMAL": 5,
            "POSITION": 4,
            "TEXCOORD_0": 6
          },
          "indices": 7,
          "material": 1,
          "mode": 4
        }
      ]
    }
  ],
  "nodes": [
    {
      "children": [
        1
      ],
      "matrix": [
        1.0,
        0.0,
        0.0,
        0.0,
        0.0,
        2.220446049250313e-16,
        -1.0,
        0.0,
        0.0,
        1.0,
        2.220446049250313e-16,
        0.0,
        0.0,
        0.0,
        0.0,
        1.0
      ],
      "name": "Sketchfab_model"
    },
    {
      "children": [
        2
      ],
      "matrix": [
        1.0,
        0.0,
        0.0,
        0.0,
        0.0,
        0.0,
        1.0,
        0.0,
        0.0,
        -1.0,
        0.0,
        0.0,
        0.0,
        0.0,
        0.0,
        1.0
      ],
      "name": "Earth animation.fbx"
    },
    {
      "children": [
        3
      ],
      "name": "Object_2"
    },
    {
      "children": [
        4,
        6,
        8,
        10
      ],
      "name": "RootNode"
    },
    {
      "children": [
        5
      ],
      "name": "Camera",
      "rotation": [
        0.008347617462277412,
        0.9167260527610779,
        0.003639534581452608,
        0.3994126617908478
      ],
      "scale": [
        100.0,
        99.99999237060547,
        100.0
      ],
      "translation": [
        3157.2333984375,
        104.21135711669922,
        2142.973388671875
      ]
    },
    {
      "name": "Object_5"
    },
    {
      "children": [
        7
      ],
      "name": "Earth",
      "rotation": [
        -0.5065374970436096,
        -0.4933759570121765,
        -0.49337810277938843,
        0.5065352916717529
      ],
      "scale": [
        99.30705261230469,
        99.30703735351563,
        99.30704498291016
      ]
    },
    {
      "mesh": 0,
      "name": "Earth_Earth_0"
    },
    {
      "children": [
        9
      ],
      "name": "Clouds",
      "rotation": [
        -0.7071068286895752,
        0.0,
        0.0,
        0.7071067094802856
      ],
      "scale": [
        100.0,
        100.0,
        100.0
      ]
    },
    {
      "mesh": 1,
      "name": "Clouds_Clouds_0"
    },
    {
      "children": [
        11
      ],
      "name": "Sun",
      "rotation": [
        -0.41863590478897095,
        0.17804627120494843,
        -0.4194774925708771,
        0.7855457663536072
      ],
      "scale": [
        100.0,
        100.00000762939453,
        100.0
      ],
      "translation": [
        -436.268798828125,
        -41.9987678527832,
        -2270.23779296875
      ]
    },
    {
      "children": [
        12
      ],
      "matrix": [
        1.0,
        0.0,
        0.0,
        0.0,
        0.0,
        2.220446049250313e-16,
        1.0,
        0.0,
        0.0,
        -1.0,
        2.220446049250313e-16,
        0.0,
        0.0,
        0.0,
        0.0,
        1.0
      ],
      "name": "Object_11"
    },
    {
      "name": "Object_12"
    }
  ],
  "samplers": [
    {
      "magFilter": 9729,
      "minFilter": 9987,
      "wrapS": 10497,
      "wrapT": 10497
    }
  ],
  "scene": 0,
  "scenes": [
    {
      "name": "Sketchfab_Scene",
      "nodes": [
        0
      ]
    }
  ],
  "textures": [
    {
      "sampler": 0,
      "source": 0
    },
    {
      "sampler": 0,
      "source": 1
    },
    {
      "sampler": 0,
      "source": 2
    }
  ]
}
