{"asset":{"version":"2.0","generator":"VECTARY"},"nodes":[{"translation":[0,0,0],"scale":[1,1,1],"rotation":[-0.7071067811865475,0,0,0.7071067811865476],"name":"Sketchfab_model","children":[1]},{"translation":[0,0,0],"scale":[1,1.0000000000000002,1.0000000000000002],"rotation":[0.7071067811865475,0,0,0.7071067811865476],"name":"dd4e81451db7426cb37be19f6f312b98.fbx","children":[2]},{"translation":[0,0,0],"scale":[1,1,1],"rotation":[0,0,0,1],"name":"RootNode","children":[3,6,9]},{"translation":[0,0,0],"scale":[98.09751129150389,98.0975112915039,98.0975112915039],"rotation":[0,0,0,1],"name":"pSphere5","children":[4,5]},{"translation":[0,0,0],"scale":[1,1,1],"rotation":[0,0,0,1],"name":"pSphere5_lambert7_0","mesh":0},{"translation":[0,0,0],"scale":[1,1,1],"rotation":[0,0,0,1],"name":"pSphere5_lambert7_0","mesh":1},{"translation":[0,0,0],"scale":[96.7239990234375,96.7239990234375,96.7239990234375],"rotation":[0,0,0,1],"name":"pSphere1","children":[7,8]},{"translation":[0,0,0],"scale":[1,1,1],"rotation":[0,0,0,1],"name":"pSphere1_phong1_0","mesh":2},{"translation":[0,0,0],"scale":[1,1,1],"rotation":[0,0,0,1],"name":"pSphere1_phong1_0","mesh":3},{"translation":[0,0,0],"scale":[97.4643783569336,97.4643783569336,97.4643783569336],"rotation":[0,0,0,1],"name":"pSphere4","children":[10,11]},{"translation":[0,0,0],"scale":[1,1,1],"rotation":[0,0,0,1],"name":"pSphere4_lambert6_0","mesh":4},{"translation":[0,0,0],"scale":[1,1,1],"rotation":[0,0,0,1],"name":"pSphere4_lambert6_0","mesh":5}],"materials":[{"pbrMetallicRoughness":{"baseColorFactor":[0.14229999999999984,0.35229999999999995,0.6794999999999991,0.25],"metallicFactor":0,"roughnessFactor":0.6},"name":"lambert7","emissiveFactor":[0,0,0],"extensions":{"KHR_materials_transmission":{"transmissionFactor":0.7550830247645453},"KHR_materials_ior":{"ior":1.333},"KHR_materials_volume":{"thicknessFactor":0.01,"attenuationDistance":0.01,"attenuationColor":[1,1,1]}},"alphaMode":"BLEND","doubleSided":true},{"pbrMetallicRoughness":{"baseColorFactor":[1,1,1,1],"baseColorTexture":{"index":0,"extensions":{"KHR_texture_transform":{"offset":[0,0],"scale":[1,1],"rotation":0}},"texCoord":0},"metallicFactor":0.65,"roughnessFactor":0.62},"name":"phong1","emissiveTexture":{"index":1,"extensions":{"KHR_texture_transform":{"offset":[0,0],"scale":[1,1],"rotation":0}},"texCoord":0},"emissiveFactor":[1,1,1],"extensions":{},"alphaMode":"OPAQUE","doubleSided":true},{"pbrMetallicRoughness":{"baseColorFactor":[1,1,1,1],"baseColorTexture":{"index":2,"extensions":{"KHR_texture_transform":{"offset":[0,0],"scale":[1,1],"rotation":0}},"texCoord":0},"metallicFactor":0,"roughnessFactor":0.6},"name":"lambert6","emissiveFactor":[0,0,0],"extensions":{},"alphaMode":"BLEND","doubleSided":true}],"meshes":[{"primitives":[{"mode":4,"attributes":{"POSITION":1,"NORMAL":2,"TEXCOORD_0":3},"material":0,"indices":0}]},{"primitives":[{"mode":4,"attributes":{"POSITION":5,"NORMAL":6,"TEXCOORD_0":7},"material":0,"indices":4}]},{"primitives":[{"mode":4,"attributes":{"POSITION":9,"NORMAL":10,"TEXCOORD_0":11,"TEXCOORD_1":12},"material":1,"indices":8}]},{"primitives":[{"mode":4,"attributes":{"POSITION":14,"NORMAL":15,"TEXCOORD_0":16,"TEXCOORD_1":17},"material":1,"indices":13}]},{"primitives":[{"mode":4,"attributes":{"POSITION":19,"NORMAL":20,"TEXCOORD_0":21,"TEXCOORD_1":22},"material":2,"indices":18}]},{"primitives":[{"mode":4,"attributes":{"POSITION":24,"NORMAL":25,"TEXCOORD_0":26,"TEXCOORD_1":27},"material":2,"indices":23}]}],"accessors":[{"bufferView":0,"byteOffset":0,"componentType":5125,"count":366579,"type":"SCALAR"},{"bufferView":1,"byteOffset":0,"componentType":5126,"count":65532,"max":[0.9313168525695801,0.997935950756073,0.980067789554596],"min":[-0.979728102684021,-0.997935950756073,-0.9797282814979553],"type":"VEC3"},{"bufferView":2,"byteOffset":0,"componentType":5126,"count":65532,"type":"VEC3"},{"bufferView":3,"byteOffset":0,"componentType":5126,"count":65532,"type":"VEC2"},{"bufferView":4,"byteOffset":0,"componentType":5125,"count":232461,"type":"SCALAR"},{"bufferView":5,"byteOffset":0,"componentType":5126,"count":42904,"max":[0.9793003797531128,0.997935950756073,0.9797803163528442],"min":[-0.9687954187393188,-0.997935950756073,-0.6592332124710083],"type":"VEC3"},{"bufferView":6,"byteOffset":0,"componentType":5126,"count":42904,"type":"VEC3"},{"bufferView":7,"byteOffset":0,"componentType":5126,"count":42904,"type":"VEC2"},{"bufferView":8,"byteOffset":0,"componentType":5125,"count":366579,"type":"SCALAR"},{"bufferView":9,"byteOffset":0,"componentType":5126,"count":65532,"max":[0.9313168525695801,0.997935950756073,0.980067789554596],"min":[-0.979728102684021,-0.997935950756073,-0.9797282814979553],"type":"VEC3"},{"bufferView":10,"byteOffset":0,"componentType":5126,"count":65532,"type":"VEC3"},{"bufferView":11,"byteOffset":0,"componentType":5126,"count":65532,"type":"VEC2"},{"bufferView":12,"byteOffset":0,"componentType":5126,"count":65532,"type":"VEC2"},{"bufferView":13,"byteOffset":0,"componentType":5125,"count":232461,"type":"SCALAR"},{"bufferView":14,"byteOffset":0,"componentType":5126,"count":42904,"max":[0.9793003797531128,0.997935950756073,0.9797803163528442],"min":[-0.9687954187393188,-0.997935950756073,-0.6592332124710083],"type":"VEC3"},{"bufferView":15,"byteOffset":0,"componentType":5126,"count":42904,"type":"VEC3"},{"bufferView":16,"byteOffset":0,"componentType":5126,"count":42904,"type":"VEC2"},{"bufferView":17,"byteOffset":0,"componentType":5126,"count":42904,"type":"VEC2"},{"bufferView":18,"byteOffset":0,"componentType":5125,"count":366579,"type":"SCALAR"},{"bufferView":19,"byteOffset":0,"componentType":5126,"count":65532,"max":[0.9313168525695801,0.997935950756073,0.980067789554596],"min":[-0.979728102684021,-0.997935950756073,-0.9797282814979553],"type":"VEC3"},{"bufferView":20,"byteOffset":0,"componentType":5126,"count":65532,"type":"VEC3"},{"bufferView":21,"byteOffset":0,"componentType":5126,"count":65532,"type":"VEC2"},{"bufferView":22,"byteOffset":0,"componentType":5126,"count":65532,"type":"VEC2"},{"bufferView":23,"byteOffset":0,"componentType":5125,"count":232461,"type":"SCALAR"},{"bufferView":24,"byteOffset":0,"componentType":5126,"count":42904,"max":[0.9793003797531128,0.997935950756073,0.9797803163528442],"min":[-0.9687954187393188,-0.997935950756073,-0.6592332124710083],"type":"VEC3"},{"bufferView":25,"byteOffset":0,"componentType":5126,"count":42904,"type":"VEC3"},{"bufferView":26,"byteOffset":0,"componentType":5126,"count":42904,"type":"VEC2"},{"bufferView":27,"byteOffset":0,"componentType":5126,"count":42904,"type":"VEC2"}],"bufferViews":[{"buffer":0,"byteOffset":0,"byteLength":1466316,"target":34963},{"buffer":0,"byteOffset":1466316,"byteLength":786384,"target":34962},{"buffer":0,"byteOffset":2252700,"byteLength":786384,"target":34962},{"buffer":0,"byteOffset":3039084,"byteLength":524256,"target":34962},{"buffer":0,"byteOffset":3563340,"byteLength":929844,"target":34963},{"buffer":0,"byteOffset":4493184,"byteLength":514848,"target":34962},{"buffer":0,"byteOffset":5008032,"byteLength":514848,"target":34962},{"buffer":0,"byteOffset":5522880,"byteLength":343232,"target":34962},{"buffer":0,"byteOffset":5866112,"byteLength":1466316,"target":34963},{"buffer":0,"byteOffset":7332428,"byteLength":786384,"target":34962},{"buffer":0,"byteOffset":8118812,"byteLength":786384,"target":34962},{"buffer":0,"byteOffset":8905196,"byteLength":524256,"target":34962},{"buffer":0,"byteOffset":9429452,"byteLength":524256,"target":34962},{"buffer":0,"byteOffset":9953708,"byteLength":929844,"target":34963},{"buffer":0,"byteOffset":10883552,"byteLength":514848,"target":34962},{"buffer":0,"byteOffset":11398400,"byteLength":514848,"target":34962},{"buffer":0,"byteOffset":11913248,"byteLength":343232,"target":34962},{"buffer":0,"byteOffset":12256480,"byteLength":343232,"target":34962},{"buffer":0,"byteOffset":12599712,"byteLength":1466316,"target":34963},{"buffer":0,"byteOffset":14066028,"byteLength":786384,"target":34962},{"buffer":0,"byteOffset":14852412,"byteLength":786384,"target":34962},{"buffer":0,"byteOffset":15638796,"byteLength":524256,"target":34962},{"buffer":0,"byteOffset":16163052,"byteLength":524256,"target":34962},{"buffer":0,"byteOffset":16687308,"byteLength":929844,"target":34963},{"buffer":0,"byteOffset":17617152,"byteLength":514848,"target":34962},{"buffer":0,"byteOffset":18132000,"byteLength":514848,"target":34962},{"buffer":0,"byteOffset":18646848,"byteLength":343232,"target":34962},{"buffer":0,"byteOffset":18990080,"byteLength":343232,"target":34962}],"textures":[{"sampler":0,"source":0},{"sampler":0,"source":1},{"sampler":0,"source":2}],"images":[{"uri":"1_earth_8k.jpg","mimeType":"image/jpeg"},{"uri":"5_night_8k.jpg","mimeType":"image/jpeg"},{"uri":"Gltf_Import&Gltf_Import.png","mimeType":"image/png"}],"samplers":[{"wrapS":10497,"wrapT":10497}],"scene":0,"scenes":[{"nodes":[0],"name":"Earth"}],"extensionsUsed":["KHR_texture_transform","KHR_materials_ior","KHR_materials_volume","KHR_materials_transmission"],"buffers":[{"byteLength":19333312,"uri":"Earth.bin"}]}