<?xml version="1.0" encoding="utf-8"?>
<!-- Generator: Adobe Illustrator 26.3.1, SVG Export Plug-In . SVG Version: 6.00 Build 0)  -->
<svg version="1.1" id="Layer_1" xmlns="http://www.w3.org/2000/svg" xmlns:xlink="http://www.w3.org/1999/xlink" x="0px" y="0px"
	 viewBox="0 0 480 480" style="enable-background:new 0 0 480 480;" xml:space="preserve">
<style type="text/css">
	.st0{fill:#FFFFFF;}
</style>
<g>
	<path class="st0" d="M194.32,177.58c0,0.28,0,0.48,0,0.68c-0.02,1.49-0.75,2.52-2.13,2.99c-1.32,0.45-2.66,0.05-3.54-1.07
		c-0.2-0.25-0.36-0.53-0.51-0.81c-1.38-2.39-2.75-4.78-4.13-7.17c-3.14-5.44-6.28-10.87-9.42-16.31c-2.6-4.5-5.19-9.01-7.79-13.51
		c-3.06-5.3-6.12-10.6-9.18-15.89c-2.84-4.92-5.68-9.84-8.52-14.75c-0.68-1.17-1.06-2.39-1.01-3.76c0.11-3.19,3.03-5.68,5.76-5.65
		c5.24,0.05,10.48,0.01,15.72,0.01c4.6,0,9.2,0.01,13.8-0.01c1.57-0.01,2.77,0.66,3.71,1.86c0.61,0.78,0.89,1.69,0.97,2.67
		c0.26,3.03,0.51,6.05,0.77,9.08c0.23,2.71,0.48,5.41,0.72,8.12c0.24,2.71,0.48,5.41,0.72,8.12c0.24,2.75,0.48,5.49,0.73,8.24
		c0.24,2.67,0.47,5.33,0.71,8c0.2,2.15,0.42,4.29,0.62,6.44c0.12,1.31,0.2,2.63,0.32,3.94c0.11,1.31,0.25,2.62,0.37,3.94
		c0.09,0.95,0.18,1.91,0.27,2.86c0.11,1.31,0.21,2.63,0.32,3.94c0.11,1.31,0.25,2.63,0.36,3.94
		C194.08,174.87,194.2,176.26,194.32,177.58z"/>
	<path class="st0" d="M272.83,102.33c12.95,0,25.9,0,38.86,0c0.68,0,1.35-0.02,2.02,0.15c3.56,0.94,5.77,5.18,3.98,8.69
		c-0.53,1.03-1.12,2.03-1.7,3.03c-4.05,7.03-8.11,14.05-12.17,21.08c-0.26,0.45-0.51,0.9-0.79,1.34c-1.38,2.17-3.67,2.93-6.04,1.93
		c-1.4-0.59-2.74-1.3-4.12-1.94c-9.02-4.2-18.05-8.38-27.07-12.58c-5.25-2.44-10.5-4.9-15.76-7.34c-5.83-2.71-11.67-5.42-17.5-8.14
		c-0.43-0.2-0.88-0.41-1.25-0.69c-1.78-1.34-1.51-4.21,0.46-5.24c0.36-0.19,0.74-0.29,1.15-0.29c0.44,0,0.88-0.01,1.32-0.01
		C247.08,102.33,259.96,102.33,272.83,102.33z"/>
	<path class="st0" d="M233.33,250.08c-2.74-0.15-4.97-1.2-6.41-3.6c-1.23-2.06-2.41-4.14-3.61-6.22c-2.8-4.84-5.6-9.69-8.39-14.54
		c-0.24-0.42-0.48-0.83-0.7-1.25c-1.2-2.24-0.35-4.74,1.43-5.96c1.68-1.15,3.31-2.38,4.98-3.55c9.32-6.55,18.65-13.09,27.97-19.64
		c7.03-4.94,14.06-9.88,21.09-14.82c0.95-0.67,1.92-1.3,2.88-1.95c0.37-0.25,0.75-0.47,1.19-0.56c1.12-0.22,2.06,0.1,2.79,0.98
		c0.71,0.85,0.85,1.81,0.4,2.8c-0.33,0.73-0.76,1.41-1.15,2.1c-5.31,9.21-10.63,18.42-15.95,27.62
		c-4.28,7.41-8.56,14.81-12.84,22.22c-2.26,3.91-4.51,7.83-6.77,11.74c-0.28,0.48-0.56,0.97-0.88,1.43
		C237.88,248.98,235.8,249.9,233.33,250.08z"/>
	<path class="st0" d="M381.29,316.24c0.02-0.65,0.04-1.08,0.04-1.51c0-11.92,0-23.83,0-35.75c0-0.44-0.01-0.88,0.01-1.32
		c0.09-1.72,1.33-2.97,3.06-3.1c1.7-0.13,3.21,0.96,3.55,2.58c0.11,0.54,0.15,1.11,0.16,1.67c0.02,1.04,0.01,2.08,0.01,3.12
		c0,14.32,0,28.63,0,42.95c0,0.72,0.01,1.44-0.13,2.15c-0.27,1.34-1.07,2.24-2.38,2.58c-1.31,0.34-2.55,0.14-3.53-0.9
		c-0.27-0.29-0.5-0.62-0.74-0.94c-6.45-8.61-12.9-17.22-19.35-25.83c-3.14-4.19-6.27-8.39-9.4-12.59c-0.28-0.38-0.58-0.74-0.85-1.09
		c-0.29,0.08-0.26,0.26-0.26,0.41c-0.01,0.4-0.01,0.8-0.01,1.2c0,11.8,0,23.59,0,35.39c0,0.48,0.02,0.96-0.04,1.44
		c-0.3,2.32-2.58,3.67-4.71,2.79c-1.27-0.52-1.94-1.49-2.05-2.85c-0.03-0.36-0.01-0.72-0.01-1.08c0-15.64,0-31.27,0-46.91
		c0-0.28,0-0.56,0.01-0.84c0.07-2,1.62-3.4,3.63-3.3c1.19,0.06,2.12,0.53,2.84,1.51c2.56,3.48,5.17,6.92,7.76,10.38
		c2.54,3.4,5.05,6.81,7.59,10.2c4.8,6.4,9.6,12.79,14.41,19.19C380.94,315.89,381.03,315.97,381.29,316.24z"/>
	<path class="st0" d="M268.94,314.09c0,2.32,0,4.64,0,6.96c0,0.32,0,0.64-0.01,0.96c-0.04,1.24-0.56,2.22-1.6,2.92
		c-1.76,1.19-3.64,2.17-5.59,3.01c-2.85,1.22-5.84,1.96-8.92,2.22c-1.9,0.16-3.81,0.25-5.74,0.12c-2.36-0.16-4.69-0.44-6.97-1.05
		c-4.28-1.15-8.11-3.17-11.34-6.23c-2.56-2.43-4.45-5.33-5.78-8.6c-1.35-3.33-2.06-6.78-2.22-10.38c-0.07-1.68-0.06-3.36,0.08-5.02
		c0.53-6.44,2.64-12.25,7.1-17.04c2.32-2.49,5.12-4.33,8.24-5.67c2.77-1.19,5.68-1.85,8.68-2.16c1.72-0.18,3.43-0.25,5.15-0.17
		c4.27,0.2,8.4,1,12.22,3.05c1.38,0.74,2.68,1.6,3.9,2.58c1.44,1.16,1.72,2.78,0.77,4.39c-0.18,0.31-0.37,0.63-0.62,0.88
		c-0.74,0.77-1.62,1.12-2.71,0.83c-0.79-0.21-1.49-0.58-2.12-1.08c-2.21-1.75-4.77-2.74-7.47-3.39c-1.01-0.24-2.03-0.42-3.08-0.44
		c-0.48-0.01-0.96-0.04-1.43-0.11c-0.76-0.1-1.51-0.11-2.27,0.01c-1.06,0.17-2.15,0.13-3.22,0.32c-3.81,0.66-7.18,2.19-9.98,4.86
		c-1.97,1.88-3.38,4.14-4.33,6.69c-0.93,2.49-1.47,5.06-1.54,7.72c-0.04,1.44-0.07,2.88,0.02,4.32c0.23,3.55,1.07,6.94,2.86,10.06
		c1.98,3.46,4.83,5.92,8.49,7.46c1.96,0.83,4.02,1.29,6.13,1.55c1.2,0.14,2.39,0.2,3.59,0.2c4.24,0,8.22-1.02,11.95-3.03
		c0.65-0.35,0.91-0.78,0.91-1.51c-0.03-3-0.01-6-0.02-9c0-0.16,0-0.32-0.02-0.48c-0.05-0.46-0.23-0.65-0.68-0.68
		c-0.32-0.03-0.64-0.02-0.96-0.02c-2,0-4,0-6,0c-0.32,0-0.64,0.02-0.96-0.03c-1.04-0.14-1.77-0.72-2.14-1.7
		c-0.62-1.65,0.22-3.94,2.3-4.46c0.47-0.12,0.94-0.18,1.42-0.18c3.32,0,6.64,0,9.96,0c0.48,0,0.95,0.05,1.42,0.18
		c1.46,0.41,2.39,1.51,2.51,3.01c0.03,0.36,0.02,0.72,0.02,1.08C268.94,309.37,268.94,311.73,268.94,314.09z"/>
	<path class="st0" d="M135.38,302.06c0-7.68,0-15.35,0-23.03c0-0.44-0.01-0.88,0.01-1.32c0.07-1.59,1.11-2.78,2.67-3.09
		c0.55-0.11,1.11-0.15,1.67-0.15c3.44,0,6.88-0.05,10.32,0.02c3.07,0.07,6.15,0.24,9.13,1.12c1.81,0.54,3.53,1.26,5.09,2.35
		c2.9,2.03,4.66,4.81,5.3,8.26c0.56,2.98,0.5,5.97-0.48,8.88c-0.86,2.57-2.39,4.69-4.46,6.42c-1.83,1.53-3.92,2.62-6.19,3.34
		c-0.27,0.08-0.54,0.15-0.8,0.24c-0.4,0.15-0.49,0.39-0.22,0.73c0.86,1.11,1.73,2.2,2.6,3.3c3.89,4.88,7.77,9.75,11.66,14.64
		c0.3,0.37,0.58,0.77,0.82,1.18c1.23,2.12-0.47,4.71-2.74,4.79c-1.39,0.05-2.48-0.46-3.33-1.55c-1.13-1.45-2.29-2.88-3.43-4.32
		c-4.39-5.55-8.79-11.09-13.18-16.64c-0.42-0.53-0.83-1.08-1.25-1.61c-1.41-1.77-0.75-5.08,2.58-5.52c1.15-0.15,2.3-0.25,3.43-0.51
		c1.45-0.33,2.82-0.88,4.09-1.67c2.22-1.37,3.42-3.39,3.88-5.92c0.24-1.36,0.23-2.69-0.01-4.05c-0.43-2.46-1.7-4.28-3.93-5.4
		c-1.33-0.67-2.75-1.06-4.22-1.3c-1.31-0.22-2.62-0.24-3.94-0.24c-2.12-0.01-4.24-0.01-6.36,0c-1.35,0-1.4,0.05-1.4,1.44
		c0,10.52,0,21.03,0.01,31.55c0,3.88,0,7.76,0,11.64c0,0.56,0,1.12-0.16,1.66c-0.44,1.45-1.55,2.36-3.06,2.44
		c-0.4,0.02-0.8,0.03-1.2-0.02c-1.52-0.17-2.72-1.41-2.85-2.94c-0.04-0.48-0.02-0.96-0.02-1.44
		C135.38,317.57,135.38,309.82,135.38,302.06z"/>
	<path class="st0" d="M327.52,329.73c-1.59,0.05-2.66-0.72-3.25-2.16c-0.76-1.85-1.49-3.71-2.24-5.56
		c-3.1-7.67-6.2-15.35-9.29-23.02c-1.68-4.15-3.35-8.3-5.03-12.45c-0.1-0.26-0.21-0.52-0.33-0.77c-0.08-0.17-0.31-0.19-0.38-0.04
		c-0.14,0.29-0.27,0.58-0.39,0.87c-1.42,3.52-2.83,7.05-4.25,10.57c-3.08,7.64-6.17,15.27-9.26,22.9c-0.9,2.22-1.8,4.45-2.71,6.67
		c-0.11,0.26-0.21,0.52-0.31,0.78c-0.79,2.02-2.58,2.58-4.53,2.06c-1.8-0.48-2.71-2.21-2.23-4.05c0.1-0.38,0.26-0.76,0.41-1.13
		c3.54-8.66,7.08-17.32,10.62-25.98c2.45-5.99,4.9-11.99,7.35-17.98c0.51-1.26,1.04-2.51,1.56-3.77c0.35-0.85,0.89-1.53,1.78-1.85
		c1.4-0.51,2.82-0.51,4.23-0.02c0.88,0.31,1.45,0.97,1.8,1.82c0.53,1.29,1.07,2.58,1.6,3.88c2.26,5.55,4.51,11.11,6.78,16.66
		c3.71,9.06,7.44,18.12,11.15,27.18c0.26,0.63,0.52,1.25,0.54,1.95c0.05,1.86-1.26,3.3-3.12,3.41
		C327.84,329.74,327.68,329.73,327.52,329.73z"/>
	<path class="st0" d="M100.64,303.83c0,7.28,0,14.27,0,21.27c0,0.64-0.01,1.28-0.13,1.91c-0.31,1.56-1.5,2.62-3.08,2.71
		c-0.4,0.02-0.8,0.03-1.2-0.01c-1.4-0.15-2.53-1.17-2.84-2.55c-0.15-0.67-0.16-1.35-0.16-2.03c0-6.32,0-12.64,0-18.96
		c0-7.64,0-15.28,0-22.91c0-0.4,0.01-0.8-0.02-1.2c-0.04-0.62-0.21-0.79-0.79-0.84c-0.36-0.03-0.72-0.02-1.08-0.02
		c-4.04,0-8.08,0.01-12.12,0.01c-0.6,0-1.19-0.02-1.78-0.18c-1.58-0.43-2.51-1.86-2.43-3.31c0.08-1.54,1.13-2.82,2.69-3.1
		c0.71-0.13,1.43-0.16,2.15-0.16c9.32,0,18.64,0,27.95,0c2.16,0,4.32,0,6.48,0c0.6,0,1.2,0.03,1.79,0.15
		c1.51,0.31,2.58,1.51,2.65,2.99c0.08,1.63-0.79,2.92-2.3,3.39c-0.62,0.2-1.25,0.23-1.9,0.23c-4.12-0.01-8.24,0-12.36,0
		c-0.36,0-0.72,0-1.08,0.04c-0.33,0.03-0.5,0.21-0.54,0.54c-0.03,0.28-0.03,0.56-0.03,0.84c0,5.96,0,11.92,0.01,17.88
		C100.52,301.71,100.71,302.91,100.64,303.83z"/>
	<path class="st0" d="M194.39,302.18c0-7.76,0-15.52,0-23.27c0-0.44-0.01-0.88,0.02-1.32c0.09-1.47,1.1-2.64,2.55-2.94
		c0.59-0.12,1.17-0.14,1.78-0.06c1.48,0.2,2.57,1.27,2.82,2.7c0.06,0.35,0.1,0.71,0.12,1.07c0.02,0.32,0.01,0.64,0.01,0.96
		c0,15.24,0,30.47,0,45.71c0,0.52,0.01,1.04-0.04,1.56c-0.23,2.2-1.97,3.25-3.56,3.17c-0.64-0.03-1.28-0.04-1.86-0.35
		c-1.1-0.59-1.79-1.46-1.82-2.75c-0.01-0.44-0.01-0.88-0.01-1.32C194.39,317.61,194.39,309.89,194.39,302.18z"/>
	<path class="st0" d="M140.27,363.4c0,3.84,0,7.68,0,11.51c0,0.36,0,0.72-0.02,1.08c-0.05,0.79-0.39,1.4-1.17,1.65
		c-0.77,0.25-1.42,0.01-1.92-0.62c-0.74-0.94-1.48-1.89-2.2-2.85c-2.53-3.4-5.06-6.8-7.59-10.2c-1.86-2.5-3.73-5-5.59-7.5
		c-0.17-0.22-0.34-0.45-0.51-0.66c-0.08-0.1-0.19-0.16-0.31-0.09c-0.06,0.03-0.11,0.12-0.12,0.19c-0.02,0.32-0.04,0.64-0.04,0.96
		c0,2.2,0,4.4,0,6.6c0,3.84,0,7.68,0,11.51c0,0.48-0.01,0.96-0.11,1.43c-0.18,0.86-0.81,1.34-1.61,1.32
		c-0.75-0.02-1.32-0.49-1.51-1.3c-0.09-0.39-0.11-0.79-0.11-1.19c-0.01-7.92-0.01-15.83,0-23.75c0-0.44,0.03-0.89,0.14-1.31
		c0.36-1.39,1.91-1.79,2.9-0.75c0.3,0.32,0.55,0.69,0.81,1.04c4.88,6.53,9.76,13.06,14.66,19.58c0.27,0.35,0.4,0.88,0.95,0.96
		c0.23-0.41,0.1-0.86,0.1-1.28c0.01-6.08,0.01-12.15,0.01-18.23c0-0.4-0.01-0.8,0.03-1.2c0.08-0.78,0.63-1.34,1.38-1.44
		c0.67-0.09,1.4,0.41,1.66,1.12c0.17,0.46,0.15,0.94,0.15,1.42c0,3.24,0,6.48,0,9.71C140.27,361.88,140.27,362.64,140.27,363.4z"/>
	<path class="st0" d="M345.85,370.99c0-0.44,0-0.87,0-1.31c0-6.08,0-12.16,0-18.24c0-0.48-0.04-0.96,0.1-1.43
		c0.22-0.69,0.84-1.17,1.51-1.17c0.67,0,1.3,0.47,1.51,1.16c0.06,0.19,0.08,0.39,0.09,0.59c0.02,0.24,0.01,0.48,0.01,0.72
		c0,8,0,16,0,24c0,0.24,0,0.48-0.01,0.72c-0.02,0.75-0.33,1.34-1.05,1.59c-0.75,0.27-1.42,0.08-1.94-0.55
		c-0.41-0.49-0.81-0.99-1.19-1.5c-2.39-3.21-4.77-6.42-7.16-9.62c-2.39-3.21-4.79-6.4-7.19-9.6c-0.21-0.29-0.44-0.56-0.65-0.83
		c-0.33,0.07-0.24,0.31-0.25,0.48c-0.02,0.4-0.01,0.8-0.01,1.2c0,5.96,0,11.92,0,17.88c0,0.44,0.01,0.89-0.06,1.31
		c-0.16,0.89-0.86,1.4-1.72,1.33c-0.8-0.07-1.35-0.64-1.44-1.51c-0.03-0.32-0.02-0.64-0.02-0.96c0-7.96,0-15.92,0-23.88
		c0-0.36-0.02-0.72,0.03-1.08c0.19-1.35,1.67-1.93,2.73-1.05c0.33,0.28,0.59,0.65,0.85,1c4.19,5.6,8.38,11.21,12.58,16.81
		c0.77,1.02,1.53,2.05,2.3,3.07c0.24,0.31,0.49,0.62,0.73,0.93C345.7,371.04,345.78,371.02,345.85,370.99z"/>
	<path class="st0" d="M305.68,363.6c0.09,2.17-0.33,4.43-1.29,6.58c-1.07,2.38-2.56,4.43-4.83,5.8c-2.05,1.24-4.27,1.98-6.69,2
		c-0.64,0.01-1.28,0-1.92,0c-2.21-0.01-4.26-0.64-6.18-1.67c-2.65-1.43-4.38-3.69-5.5-6.43c-1.07-2.63-1.44-5.38-1.16-8.22
		c0.17-1.72,0.5-3.4,1.18-4.99c1.9-4.41,5.22-7.05,9.95-7.91c2.16-0.39,4.3-0.31,6.41,0.24c4.48,1.16,7.46,3.99,9.07,8.3
		C305.36,359.03,305.75,360.82,305.68,363.6z M281.61,363.27c-0.06,1.59,0.1,3.14,0.59,4.63c0.99,3.06,2.86,5.36,5.95,6.45
		c2.65,0.94,5.33,0.85,7.97-0.18c0.56-0.22,1.08-0.5,1.58-0.85c2.34-1.66,3.62-3.99,4.2-6.75c0.31-1.49,0.37-3.02,0.26-4.53
		c-0.14-1.89-0.55-3.71-1.47-5.39c-1.18-2.16-2.93-3.67-5.28-4.43c-1.99-0.64-4.03-0.67-6.04-0.24c-3.44,0.73-5.71,2.88-6.95,6.14
		C281.78,359.78,281.54,361.51,281.61,363.27z"/>
	<path class="st0" d="M187.15,376.07c0.01,0.74-0.49,1.4-1.2,1.61c-0.71,0.2-1.39-0.01-1.77-0.66c-0.3-0.51-0.54-1.07-0.76-1.63
		c-1.45-3.59-2.89-7.19-4.33-10.79c-1.25-3.11-2.51-6.22-3.77-9.34c-0.09-0.22-0.18-0.44-0.28-0.66c-0.06-0.14-0.1-0.34-0.28-0.35
		c-0.25-0.01-0.3,0.21-0.37,0.39c-1.53,3.78-3.05,7.56-4.58,11.34c-1.35,3.33-2.69,6.67-4.04,10c-0.13,0.33-0.27,0.67-0.46,0.97
		c-0.46,0.73-1.22,0.97-1.97,0.66c-0.73-0.31-1.17-1.06-1.03-1.84c0.05-0.27,0.15-0.54,0.26-0.8c3.3-8.1,6.61-16.2,9.91-24.3
		c0.09-0.22,0.19-0.44,0.29-0.66c0.37-0.82,1.04-1.19,1.91-1.19c0.92-0.01,1.64,0.37,2.01,1.24c0.55,1.28,1.07,2.58,1.6,3.88
		c2.81,6.88,5.61,13.76,8.41,20.64C186.91,375.06,187.14,375.53,187.15,376.07z"/>
	<path class="st0" d="M214.08,364.42c0-3.64,0-7.28,0-10.92c0-1.48-0.01-1.48-1.45-1.49c-1.84-0.01-3.68,0-5.52,0
		c-0.32,0-0.64,0.02-0.96-0.02c-0.31-0.04-0.64-0.1-0.92-0.24c-1.11-0.54-1.17-1.95-0.14-2.62c0.31-0.2,0.65-0.31,1.02-0.31
		c0.32,0,0.64-0.01,0.96-0.01c5.8,0,11.59,0,17.39,0c0.32,0,0.64,0.01,0.96,0.01c0.33,0.01,0.63,0.09,0.92,0.25
		c0.53,0.3,0.83,0.77,0.81,1.37c-0.02,0.65-0.35,1.13-0.98,1.38c-0.46,0.18-0.93,0.2-1.42,0.2c-1.88,0-3.76,0-5.64,0
		c-1.54,0-1.55,0.01-1.55,1.52c0,7.16,0,14.31,0,21.47c0,0.44,0.02,0.89-0.06,1.32c-0.21,1.23-1.49,1.82-2.59,1.22
		c-0.45-0.24-0.74-0.62-0.8-1.13c-0.04-0.36-0.04-0.72-0.04-1.08C214.08,371.7,214.08,368.06,214.08,364.42z"/>
	<path class="st0" d="M371.02,396.03c0.47,1.14,0.93,2.28,1.41,3.41c0.46,1.11,0.93,2.21,1.39,3.32c0.08,0.18,0.15,0.37,0.21,0.56
		c0.09,0.29,0.02,0.56-0.21,0.76c-0.18,0.16-0.36,0.31-0.56,0.45c-0.21,0.15-0.46,0.16-0.69,0.05c-0.29-0.14-0.57-0.3-0.84-0.47
		c-1.64-1-3.27-2.01-4.91-3.02c-0.27-0.17-0.55-0.32-0.84-0.44c-0.12-0.05-0.25,0.07-0.22,0.2c0.05,0.23,0.13,0.46,0.23,0.68
		c0.71,1.65,1.43,3.3,2.15,4.95c0.1,0.22,0.2,0.44,0.29,0.66c0.49,1.16,0.49,1.16-0.53,1.99c-0.12,0.1-0.25,0.2-0.38,0.29
		c-0.3,0.2-0.54,0.16-0.71-0.13c-0.14-0.24-0.25-0.5-0.36-0.76c-1.3-3.1-2.6-6.19-3.9-9.29c-0.08-0.18-0.14-0.37-0.21-0.56
		c-0.14-0.34-0.05-0.62,0.21-0.87c0.06-0.06,0.11-0.11,0.17-0.17c1.14-0.99,1.11-0.94,2.27-0.24c1.54,0.93,3.07,1.87,4.61,2.8
		c0.2,0.12,0.43,0.2,0.65,0.29c0.03,0.01,0.16-0.1,0.15-0.13c-0.03-0.19-0.08-0.39-0.15-0.57c-0.62-1.52-1.25-3.03-1.88-4.54
		c-0.14-0.33-0.28-0.66-0.41-1c-0.28-0.75-0.26-0.8,0.33-1.34c1.04-0.93,1.04-0.94,2.25-0.19c2.83,1.74,5.65,3.48,8.47,5.23
		c1.08,0.67,1.08,0.75,0.11,1.6c-0.15,0.13-0.31,0.26-0.46,0.39c-0.32,0.28-0.65,0.27-0.99,0.05c-0.94-0.6-1.89-1.2-2.83-1.8
		c-1.05-0.67-2.09-1.33-3.14-2c-0.16-0.1-0.34-0.19-0.51-0.29C371.15,395.94,371.09,395.98,371.02,396.03z"/>
	<path class="st0" d="M97.71,75.03c-0.56-1.3-1.06-2.46-1.56-3.63c-0.41-0.95-0.84-1.9-1.25-2.86c-0.13-0.29-0.24-0.59-0.34-0.89
		c-0.07-0.2-0.07-0.4,0.08-0.57c0.36-0.43,0.79-0.79,1.29-1.05c0.16-0.08,0.34-0.04,0.43,0.1c0.17,0.27,0.32,0.55,0.44,0.85
		c1.01,2.39,2.01,4.79,3.01,7.19c0.35,0.85,0.71,1.7,1.07,2.54c0.2,0.47,0.1,0.83-0.3,1.16c-1.21,0.96-1.06,1.04-2.37,0.24
		c-1.4-0.86-2.8-1.71-4.2-2.56c-0.27-0.16-0.56-0.31-0.84-0.45c-0.06-0.03-0.17,0-0.21,0.04c-0.05,0.04-0.09,0.15-0.07,0.21
		c0.07,0.23,0.15,0.45,0.24,0.68c0.63,1.55,1.27,3.11,1.91,4.66c0.11,0.26,0.21,0.52,0.31,0.78c0.14,0.37,0.09,0.68-0.19,0.99
		c-0.99,1.11-1.22,1.15-2.51,0.35c-2.65-1.64-5.3-3.28-7.95-4.93c-0.37-0.23-0.74-0.48-1.09-0.74c-0.22-0.16-0.21-0.42-0.03-0.63
		c0.03-0.03,0.05-0.06,0.08-0.09c1.5-1.31,1.23-1.31,2.81-0.29c1.44,0.93,2.89,1.86,4.34,2.78c0.27,0.17,0.54,0.34,0.82,0.5
		c0.13,0.08,0.29,0.2,0.44,0.11c0.17-0.11,0.07-0.28,0.02-0.43c-0.07-0.19-0.15-0.37-0.23-0.55c-0.74-1.77-1.47-3.54-2.21-5.31
		c-0.11-0.26-0.2-0.52-0.31-0.78c-0.2-0.48-0.06-0.83,0.32-1.16c0.55-0.48,0.74-0.54,1.38-0.16c1.85,1.12,3.68,2.26,5.52,3.38
		C96.84,74.68,97.1,74.95,97.71,75.03z"/>
	<path class="st0" d="M251.75,363.35c0-3.96,0-7.92,0-11.88c0-0.4-0.01-0.8,0.05-1.2c0.11-0.76,0.69-1.3,1.43-1.42
		c0.62-0.1,1.38,0.3,1.71,0.89c0.18,0.32,0.27,0.67,0.28,1.03c0.01,0.32,0.01,0.64,0.01,0.96c0,7.76,0,15.51,0,23.27
		c0,0.4,0.01,0.81-0.05,1.2c-0.15,0.92-0.85,1.51-1.73,1.51c-0.86,0-1.54-0.56-1.66-1.42c-0.05-0.39-0.04-0.8-0.04-1.2
		C251.75,371.19,251.75,367.27,251.75,363.35z"/>
	<path class="st0" d="M289.21,39.14c-0.18-0.03-0.54-0.06-0.88-0.16c-2.16-0.58-4.31-1.17-6.47-1.75c-0.12-0.03-0.23-0.06-0.34-0.1
		c-0.44-0.17-0.57-0.37-0.47-0.83c0.15-0.66,0.33-1.32,0.51-1.97c0.68-2.46,1.36-4.93,2.03-7.39c0.06-0.23,0.12-0.46,0.2-0.69
		c0.26-0.79,0.38-0.88,1.23-0.66c2.08,0.55,4.16,1.13,6.23,1.71c0.62,0.17,1.18,0.47,1.68,0.9c1.42,1.23,1.46,3.13,0.08,4.4
		c-0.06,0.05-0.13,0.1-0.19,0.15c-0.49,0.39-0.48,0.39-0.13,0.95c1.29,2.1,0.27,4.68-2.1,5.34
		C290.19,39.14,289.79,39.13,289.21,39.14z M289.01,36.88c0.81,0.01,1.33-0.16,1.56-0.77c0.25-0.64,0.17-1.26-0.31-1.77
		c-0.13-0.14-0.3-0.28-0.48-0.34c-1.54-0.54-3.12-0.93-4.7-1.31c-0.3-0.07-0.56,0.09-0.66,0.39c-0.18,0.53-0.33,1.06-0.48,1.6
		c-0.19,0.72-0.1,0.89,0.65,1.11c1.18,0.34,2.37,0.66,3.56,0.97C288.5,36.84,288.87,36.86,289.01,36.88z M291.4,30.46
		c0-0.45-0.26-0.86-0.79-1.09c-0.26-0.11-0.52-0.2-0.79-0.27c-0.81-0.23-1.61-0.46-2.43-0.66c-1.61-0.39-1.53-0.7-2.08,1.23
		c-0.03,0.11-0.05,0.23-0.07,0.35c-0.08,0.49,0.01,0.65,0.49,0.79c1.23,0.34,2.47,0.67,3.7,0.99c0.19,0.05,0.39,0.1,0.59,0.11
		C290.81,31.95,291.4,31.38,291.4,30.46z"/>
	<path class="st0" d="M170.99,442.74c-0.16-0.24-0.26-0.4-0.38-0.56c-1.34-1.91-0.26-4.35,1.53-5.14c0.74-0.33,1.51-0.5,2.33-0.28
		c2.35,0.63,4.71,1.25,7.06,1.87c0.15,0.04,0.3,0.12,0.44,0.19c0.2,0.1,0.31,0.28,0.28,0.49c-0.04,0.32-0.1,0.63-0.18,0.94
		c-0.8,2.97-1.61,5.94-2.42,8.9c-0.05,0.19-0.11,0.39-0.17,0.57c-0.23,0.65-0.36,0.74-1.08,0.55c-2.12-0.56-4.24-1.15-6.36-1.72
		c-0.55-0.15-1.04-0.41-1.49-0.75c-1.47-1.13-1.9-3.3-0.05-4.69C170.64,443.01,170.76,442.92,170.99,442.74z M174.28,438.93
		c-0.91-0.02-1.4,0.3-1.67,1.02c-0.21,0.56,0.02,1.23,0.59,1.68c0.12,0.1,0.27,0.18,0.41,0.25c0.11,0.06,0.22,0.1,0.33,0.13
		c1.42,0.39,2.84,0.78,4.27,1.16c0.44,0.12,0.58,0.03,0.71-0.4c0.19-0.61,0.35-1.23,0.49-1.85c0.11-0.48,0.01-0.65-0.48-0.78
		c-1.38-0.39-2.77-0.76-4.15-1.13C174.59,438.95,174.38,438.94,174.28,438.93z M173.37,443.96c-0.82,0.01-1.3,0.39-1.49,1.08
		c-0.15,0.55,0.16,1.12,0.8,1.43c0.21,0.1,0.44,0.17,0.67,0.23c0.8,0.23,1.6,0.49,2.41,0.66c0.57,0.12,1.2,0.6,1.7,0.22
		c0.49-0.38,0.41-1.16,0.6-1.76c0.01-0.04,0.01-0.08,0.01-0.12c0.01-0.26-0.08-0.47-0.33-0.58c-0.14-0.07-0.29-0.13-0.44-0.17
		c-1.11-0.31-2.22-0.62-3.33-0.91C173.75,443.99,173.51,443.98,173.37,443.96z"/>
	<path class="st0" d="M382.26,86.14c-0.66,0.64-1.31,1.28-1.97,1.92c-0.87,0.83-1.73,1.66-2.61,2.47c-0.47,0.43-0.64,0.41-1.12-0.02
		c-0.03-0.03-0.06-0.06-0.09-0.08c-0.91-0.86-0.92-1,0-1.89c2.24-2.17,4.48-4.34,6.72-6.51c0.03-0.03,0.06-0.06,0.09-0.08
		c0.91-0.86,1.01-0.84,1.92,0.08c0.47,0.47,0.63,0.94,0.43,1.61c-0.48,1.61-0.89,3.24-1.33,4.86c-0.11,0.42-0.24,0.85-0.34,1.27
		c-0.07,0.29,0.11,0.48,0.4,0.41c1.28-0.29,2.57-0.6,3.85-0.91c0.78-0.19,1.55-0.38,2.32-0.58c0.64-0.17,1.18-0.06,1.6,0.49
		c0.17,0.22,0.38,0.41,0.55,0.63c0.14,0.18,0.11,0.39-0.02,0.55c-0.15,0.19-0.32,0.36-0.49,0.53c-2.35,2.28-4.7,4.57-7.06,6.84
		c-0.74,0.71-0.86,0.7-1.56,0.01c-0.82-0.81-0.83-0.93-0.03-1.72c1.11-1.1,2.23-2.18,3.34-3.28c0.23-0.22,0.45-0.46,0.66-0.69
		c0.04-0.05,0.06-0.16,0.04-0.22c-0.02-0.06-0.12-0.12-0.17-0.12c-0.2,0.01-0.4,0.04-0.59,0.09c-1.44,0.34-2.87,0.69-4.31,1.04
		c-0.31,0.07-0.62,0.15-0.94,0.21c-0.5,0.08-0.75-0.18-0.68-0.7c0.03-0.24,0.09-0.47,0.16-0.7c0.37-1.39,0.75-2.78,1.12-4.17
		c0.11-0.42,0.21-0.84,0.32-1.25C382.4,86.2,382.33,86.17,382.26,86.14z"/>
	<path class="st0" d="M75.28,384.49c1.48-0.35,2.87-0.68,4.26-1c0.7-0.17,1.39-0.35,2.1-0.5c0.56-0.12,0.83,0.17,0.72,0.74
		c-0.05,0.27-0.12,0.55-0.2,0.82c-0.38,1.43-0.78,2.85-1.15,4.28c-0.08,0.3-0.38,0.73-0.1,0.88c0.35,0.19,0.57-0.3,0.81-0.53
		c1.1-1.05,2.17-2.12,3.26-3.19c0.2-0.2,0.4-0.4,0.61-0.58c0.42-0.35,0.61-0.35,1.03,0.05c1.05,1.02,1.09,1.05,0.05,2.05
		c-2.27,2.2-4.53,4.4-6.8,6.6c-0.82,0.79-0.95,0.75-1.74-0.04c-0.54-0.54-0.71-1.08-0.49-1.83c0.44-1.45,0.81-2.93,1.21-4.39
		c0.11-0.39,0.22-0.77,0.31-1.16c0.14-0.64-0.13-0.91-0.79-0.76c-1.67,0.39-3.34,0.81-5.01,1.22c-0.12,0.03-0.23,0.08-0.35,0.1
		c-0.43,0.06-0.86,0.32-1.28,0.11c-0.5-0.26-0.87-0.7-1.19-1.16c-0.13-0.19-0.09-0.39,0.05-0.55c0.15-0.18,0.33-0.35,0.5-0.52
		c2.25-2.21,4.51-4.42,6.76-6.64c0.2-0.2,0.4-0.39,0.62-0.57c0.31-0.25,0.52-0.23,0.85,0.04c0.03,0.03,0.06,0.05,0.09,0.08
		c1.19,1.18,1.21,1.1,0.06,2.21c-1.15,1.11-2.31,2.21-3.46,3.33C75.77,383.83,75.46,384.04,75.28,384.49z"/>
	<path class="st0" d="M114.9,417.58c1.1-1.62,2.19-3.23,3.29-4.85c0.2-0.3,0.4-0.6,0.62-0.88c0.17-0.21,0.4-0.24,0.65-0.14
		c0.04,0.02,0.07,0.03,0.11,0.05c1.55,0.99,1.53,0.93,0.59,2.34c-1.72,2.55-3.44,5.1-5.17,7.64c-0.66,0.96-0.84,0.97-1.8,0.29
		c-0.43-0.31-0.63-0.7-0.69-1.2c-0.12-1.03-0.23-2.06-0.33-3.1c-0.18-1.79-0.35-3.58-0.53-5.36c-0.01-0.08-0.02-0.16-0.06-0.23
		c-0.04-0.06-0.1-0.14-0.17-0.15c-0.07-0.01-0.17,0.02-0.21,0.08c-0.2,0.25-0.38,0.51-0.56,0.77c-0.96,1.42-1.92,2.85-2.88,4.27
		c-0.07,0.1-0.14,0.2-0.21,0.29c-0.31,0.37-0.51,0.41-0.94,0.18c-0.14-0.07-0.28-0.16-0.41-0.25c-0.95-0.63-0.95-0.72-0.3-1.68
		c1.61-2.38,3.2-4.78,4.8-7.17c0.2-0.3,0.4-0.6,0.6-0.9c0.63-0.91,0.76-0.92,1.7-0.26c0.42,0.29,0.67,0.64,0.72,1.17
		c0.13,1.47,0.31,2.94,0.46,4.41c0.17,1.54,0.34,3.08,0.5,4.62C114.74,417.55,114.82,417.56,114.9,417.58z"/>
	<path class="st0" d="M351.85,64.1c0.2,0.03,0.27-0.13,0.35-0.25c1.08-1.59,2.15-3.18,3.22-4.76c0.09-0.13,0.17-0.27,0.27-0.4
		c0.37-0.49,0.59-0.54,1.11-0.24c0.07,0.04,0.14,0.08,0.2,0.13c1.08,0.72,1.07,0.88,0.39,1.88c-1.76,2.57-3.51,5.15-5.25,7.74
		c-0.76,1.12-0.87,1.14-2.06,0.26c-0.24-0.17-0.38-0.4-0.44-0.69c-0.05-0.28-0.12-0.55-0.15-0.83c-0.19-1.95-0.37-3.9-0.56-5.84
		c-0.07-0.75-0.16-1.51-0.25-2.26c-0.01-0.12-0.05-0.27-0.19-0.27c-0.1,0-0.23,0.08-0.29,0.16c-0.15,0.18-0.27,0.39-0.41,0.59
		c-0.97,1.42-1.94,2.84-2.9,4.26c-0.09,0.13-0.18,0.26-0.28,0.39c-0.31,0.37-0.51,0.41-0.94,0.19c-0.21-0.11-0.41-0.24-0.61-0.38
		c-0.71-0.49-0.73-0.6-0.24-1.34c1.8-2.69,3.6-5.38,5.41-8.07c0.02-0.03,0.04-0.07,0.07-0.1c0.28-0.31,0.43-0.92,0.95-0.76
		c0.68,0.2,1.37,0.52,1.51,1.36c0.09,0.51,0.16,1.03,0.21,1.54c0.26,2.5,0.51,5,0.77,7.51C351.75,63.97,351.82,64.04,351.85,64.1z"
		/>
	<path class="st0" d="M52.39,134.24c-0.02,0.08-0.02,0.21-0.07,0.32c-0.11,0.26-0.25,0.5-0.36,0.76c-0.3,0.73-0.84,1-1.61,0.98
		c-1.04-0.03-2.08,0.04-3.12,0.01c-0.69-0.02-1.14,0.24-1.43,0.85c-0.35,0.72-0.73,1.42-1.08,2.14c-0.15,0.32-0.09,0.53,0.2,0.72
		c0.3,0.2,0.62,0.36,0.94,0.53c0.67,0.36,1.34,0.71,2,1.09c0.31,0.18,0.38,0.4,0.23,0.71c-0.17,0.36-0.36,0.71-0.57,1.05
		c-0.22,0.34-0.44,0.39-0.82,0.22c-0.29-0.12-0.58-0.28-0.86-0.43c-2.4-1.28-4.79-2.56-7.19-3.84c-0.46-0.25-0.91-0.5-1.36-0.77
		c-0.5-0.31-0.55-0.47-0.33-0.98c0.18-0.4,0.38-0.79,0.59-1.18c0.8-1.47,1.61-2.95,2.43-4.41c0.55-0.97,1.34-1.65,2.4-2.07
		c1.58-0.63,3.94,0.27,4.53,2.25c0.1,0.34,0.17,0.7,0.24,1.05c0.16,0.72,0.2,0.77,0.96,0.78c0.84,0.01,1.68,0.04,2.51-0.11
		c0.47-0.08,0.95-0.12,1.43-0.01C52.22,133.93,52.34,134.03,52.39,134.24z M44.91,133.79c0.01-0.76-0.37-1.36-1.03-1.64
		c-0.66-0.28-1.16,0.05-1.63,0.44c-0.12,0.1-0.23,0.23-0.3,0.37c-0.68,1.22-1.35,2.44-2.01,3.67c-0.17,0.31-0.1,0.5,0.19,0.72
		c0.54,0.41,1.14,0.73,1.76,1.02c0.49,0.23,0.7,0.17,0.98-0.32c0.62-1.12,1.21-2.25,1.81-3.38
		C44.82,134.39,44.92,134.09,44.91,133.79z"/>
	<path class="st0" d="M125.76,46.91c1.91,0.01,3.46,1.4,3.65,3.28c0.07,0.7-0.14,1.35-0.45,1.96c-0.34,0.68-0.42,0.86,0.41,1.31
		c0.87,0.48,1.74,0.97,2.61,1.47c0.28,0.16,0.55,0.33,0.81,0.51c0.22,0.16,0.21,0.44-0.01,0.6c-0.22,0.17-0.48,0.29-0.7,0.46
		c-0.7,0.53-1.36,0.48-2.08-0.01c-0.86-0.58-1.79-1.05-2.66-1.61c-0.49-0.32-0.92-0.36-1.43-0.04c-0.64,0.41-1.31,0.77-1.96,1.16
		c-0.58,0.35-0.63,0.48-0.33,1.05c0.24,0.46,0.52,0.9,0.77,1.35c0.22,0.38,0.43,0.77,0.63,1.16c0.39,0.75,0.36,0.85-0.39,1.32
		c-1.07,0.68-1.19,0.66-1.84-0.45c-1.63-2.79-3.23-5.6-4.85-8.4c-0.1-0.17-0.2-0.35-0.27-0.53c-0.13-0.31-0.06-0.52,0.21-0.73
		c0.06-0.05,0.13-0.09,0.2-0.13c1.8-1.04,3.59-2.09,5.4-3.1C124.32,47.06,125.04,46.91,125.76,46.91z M127,50.59
		c-0.02-0.79-0.54-1.34-1.34-1.4c-0.36-0.03-0.73-0.02-1.05,0.16c-1.21,0.68-2.42,1.38-3.63,2.08c-0.29,0.17-0.34,0.4-0.18,0.72
		c0.33,0.63,0.69,1.26,1.05,1.88c0.24,0.4,0.4,0.44,0.79,0.23c0.7-0.39,1.38-0.8,2.07-1.2c0.48-0.28,0.97-0.55,1.44-0.86
		C126.72,51.83,127.03,51.3,127,50.59z"/>
	<path class="st0" d="M21.39,298.49c-0.08-1.84,1.26-3.43,3.21-3.81c0.58-0.11,1.1,0.08,1.63,0.28c0.53,0.2,0.97,0.55,1.41,0.89
		c0.37,0.28,0.47,0.27,0.8-0.1c0.83-0.92,1.65-1.85,2.49-2.76c0.75-0.82,0.94-0.77,1.29,0.31c0.04,0.11,0.06,0.23,0.11,0.34
		c0.32,0.72,0.11,1.29-0.44,1.82c-0.74,0.72-1.4,1.54-2.16,2.24c-0.53,0.49-0.61,0.98-0.4,1.61c0.21,0.65,0.38,1.3,0.6,1.95
		c0.23,0.67,0.4,0.76,1.06,0.59c0.73-0.2,1.46-0.43,2.18-0.64c0.27-0.08,0.54-0.16,0.81-0.21c0.34-0.06,0.52,0.06,0.67,0.37
		c0.03,0.07,0.06,0.15,0.08,0.22c0.48,1.44,0.37,1.48-0.92,1.87c-2.98,0.91-5.96,1.82-8.94,2.71c-1.23,0.37-1.3,0.33-1.69-0.92
		c-0.53-1.72-1.04-3.44-1.56-5.16C21.45,299.56,21.38,299.01,21.39,298.49z M23.63,298.83c0.01,0.14,0.01,0.38,0.07,0.61
		c0.37,1.26,0.75,2.52,1.14,3.77c0.11,0.34,0.27,0.4,0.66,0.3c0.65-0.17,1.3-0.36,1.95-0.57c0.47-0.15,0.57-0.32,0.43-0.81
		c-0.36-1.22-0.74-2.44-1.12-3.66c-0.07-0.22-0.19-0.44-0.33-0.63c-0.45-0.62-1.11-0.87-1.77-0.69
		C24.03,297.32,23.64,297.92,23.63,298.83z"/>
	<path class="st0" d="M337.78,428.61c-1.94,0.02-3.38-1.1-3.8-2.84c-0.18-0.74,0-1.43,0.24-2.11c0.09-0.26,0.25-0.5,0.36-0.76
		c0.09-0.21,0.04-0.4-0.16-0.52c-0.69-0.41-1.38-0.8-2.08-1.2c-0.62-0.36-1.25-0.71-1.86-1.09c-0.25-0.15-0.24-0.4,0.01-0.58
		c0.16-0.12,0.33-0.23,0.5-0.33c1.24-0.75,1.24-0.75,2.48-0.01c0.86,0.51,1.73,1,2.58,1.53c0.46,0.28,0.87,0.31,1.34,0.01
		c0.71-0.45,1.45-0.85,2.16-1.29c0.38-0.23,0.44-0.42,0.24-0.79c-0.31-0.56-0.64-1.1-0.97-1.66c-0.08-0.14-0.18-0.27-0.24-0.42
		c-0.18-0.43-0.73-0.8-0.48-1.28c0.29-0.52,0.91-0.74,1.47-0.96c0.15-0.06,0.33,0,0.43,0.13c0.15,0.19,0.28,0.39,0.4,0.59
		c1.68,2.86,3.36,5.72,5.04,8.58c0.08,0.14,0.16,0.28,0.22,0.42c0.1,0.25,0.05,0.48-0.16,0.64c-0.16,0.12-0.33,0.23-0.5,0.33
		c-1.52,0.89-3.04,1.77-4.56,2.65c-0.66,0.38-1.35,0.7-2.1,0.86C338.14,428.59,337.89,428.59,337.78,428.61z M337.8,426.33
		c0.42,0.01,0.81-0.06,1.17-0.27c1.11-0.64,2.22-1.27,3.32-1.93c0.38-0.23,0.44-0.43,0.24-0.79c-0.32-0.6-0.66-1.19-1.02-1.76
		c-0.26-0.41-0.49-0.48-0.9-0.25c-1.15,0.65-2.28,1.32-3.41,2c-0.2,0.12-0.39,0.29-0.53,0.48c-0.4,0.52-0.43,1.12-0.2,1.7
		C336.7,426.09,337.19,426.33,337.8,426.33z"/>
	<path class="st0" d="M32.67,152.41c1.83,0.07,2.97,1.14,3.42,2.77c0.08,0.3-0.03,0.7,0.27,0.89c0.32,0.2,0.71,0.06,1.05,0.01
		c0.79-0.1,1.57-0.27,2.37-0.36c0.57-0.07,1.16-0.33,1.72,0.04c0.07,0.64-0.32,1.13-0.53,1.68c-0.12,0.33-0.41,0.48-0.74,0.53
		c-1.03,0.15-2.05,0.29-3.08,0.43c-0.24,0.03-0.48,0.03-0.71,0.08c-0.5,0.1-0.87,0.33-1.06,0.85c-0.28,0.79-0.62,1.56-0.92,2.34
		c-0.16,0.43-0.1,0.58,0.31,0.76c0.58,0.26,1.18,0.49,1.77,0.73c0.3,0.12,0.6,0.23,0.89,0.36c0.9,0.39,0.94,0.51,0.56,1.46
		c-0.01,0.04-0.03,0.07-0.05,0.11c-0.36,0.88-0.48,0.94-1.33,0.63c-0.49-0.18-0.97-0.38-1.45-0.58c-2.49-0.99-4.98-1.98-7.46-2.98
		c-1.39-0.56-1.4-0.58-0.83-2.01c0.56-1.41,1.12-2.82,1.69-4.23c0.25-0.63,0.52-1.26,0.92-1.82
		C30.23,153.01,31.29,152.45,32.67,152.41z M34.05,156.48c-0.02-0.74-0.47-1.42-1.01-1.61c-0.59-0.22-1.26-0.04-1.74,0.47
		c-0.28,0.3-0.46,0.65-0.6,1.02c-0.31,0.78-0.61,1.56-0.91,2.33c-0.13,0.33-0.27,0.66-0.38,1c-0.13,0.41-0.06,0.56,0.36,0.74
		c0.58,0.25,1.17,0.49,1.77,0.71c0.53,0.2,0.69,0.14,0.91-0.41c0.49-1.18,0.95-2.36,1.41-3.55
		C33.97,156.93,34.01,156.65,34.05,156.48z"/>
	<path class="st0" d="M441.71,177.59c-0.02,1.92-1.13,3.34-2.9,3.75c-1.04,0.24-1.99,0-2.84-0.62c-0.98-0.72-0.89-0.83-1.83,0.17
		c-0.6,0.64-1.19,1.3-1.79,1.94c-0.24,0.26-0.5,0.51-0.78,0.74c-0.12,0.1-0.34,0.08-0.43-0.07c-0.32-0.56-0.48-1.18-0.57-1.81
		c-0.03-0.25,0.09-0.47,0.26-0.65c0.32-0.35,0.66-0.7,1-1.04c0.56-0.57,1.12-1.14,1.68-1.71c0.27-0.27,0.46-0.58,0.35-0.97
		c-0.27-0.96-0.56-1.92-0.86-2.87c-0.11-0.33-0.28-0.39-0.67-0.29c-0.54,0.14-1.07,0.31-1.61,0.46c-0.54,0.15-1.07,0.31-1.62,0.45
		c-0.33,0.08-0.52-0.04-0.67-0.35c-0.66-1.36-0.53-1.68,0.9-2.12c2.94-0.9,5.88-1.79,8.83-2.68c1.3-0.39,1.34-0.37,1.75,0.97
		c0.51,1.64,1,3.29,1.48,4.94C441.57,176.43,441.74,177.05,441.71,177.59z M439.45,177.37c-0.01-0.13,0-0.25-0.03-0.37
		c-0.32-1.4-0.75-2.76-1.22-4.11c-0.1-0.28-0.35-0.39-0.69-0.3c-0.65,0.17-1.3,0.36-1.94,0.57c-0.43,0.14-0.51,0.3-0.4,0.72
		c0.36,1.26,0.72,2.52,1.1,3.78c0.1,0.34,0.26,0.67,0.51,0.93c0.45,0.48,1.01,0.65,1.63,0.45c0.63-0.2,0.96-0.67,1.03-1.33
		C439.45,177.6,439.45,177.48,439.45,177.37z"/>
	<path class="st0" d="M430.47,323.02c-1.41-0.1-2.52-0.74-3.16-2.11c-0.07-0.14-0.09-0.31-0.16-0.45c-0.2-0.38-0.03-0.93-0.48-1.17
		c-0.38-0.21-0.78,0.05-1.17,0.1c-0.99,0.14-1.97,0.3-2.96,0.44c-0.19,0.03-0.4,0.02-0.59,0.01c-0.18-0.01-0.31-0.15-0.29-0.32
		c0.08-0.68,0.33-1.32,0.75-1.86c0.21-0.26,0.56-0.27,0.88-0.31c1.15-0.15,2.29-0.33,3.44-0.46c0.49-0.06,0.82-0.25,0.99-0.72
		c0.31-0.82,0.65-1.63,0.96-2.45c0.15-0.39,0.06-0.59-0.34-0.76c-0.7-0.3-1.41-0.57-2.11-0.86c-0.33-0.14-0.67-0.27-0.99-0.43
		c-0.3-0.15-0.38-0.35-0.29-0.7c0.11-0.43,0.26-0.84,0.51-1.21c0.15-0.22,0.37-0.31,0.62-0.23c0.27,0.08,0.53,0.18,0.79,0.29
		c2.89,1.15,5.79,2.3,8.68,3.45c1.21,0.48,1.26,0.58,0.8,1.75c-0.64,1.64-1.3,3.27-1.95,4.9c-0.24,0.6-0.54,1.16-0.95,1.66
		C432.7,322.51,431.72,322.97,430.47,323.02z M429.1,318.98c0.06,0.23,0.09,0.47,0.17,0.69c0.39,1.03,1.48,1.31,2.33,0.63
		c0.25-0.2,0.46-0.46,0.58-0.75c0.53-1.29,1.06-2.58,1.56-3.88c0.13-0.34,0.04-0.53-0.29-0.68c-0.58-0.25-1.18-0.49-1.78-0.7
		c-0.59-0.22-0.79-0.15-1.03,0.42c-0.48,1.14-0.93,2.29-1.37,3.44C429.18,318.41,429.16,318.7,429.1,318.98z"/>
	<path class="st0" d="M365.08,78.5c-1.21,0.1-2.32-0.43-3.32-1.2c-1.43-1.09-2.82-2.23-4.21-3.37c-0.63-0.52-0.65-0.65-0.16-1.27
		c0.96-1.23,1.94-2.44,2.92-3.65c1.1-1.37,2.21-2.74,3.31-4.11c0.1-0.12,0.2-0.25,0.31-0.37c0.4-0.42,0.57-0.45,1.02-0.14
		c0.1,0.07,0.19,0.14,0.29,0.22c1.37,1.11,2.74,2.2,4.1,3.32c0.85,0.7,1.45,1.59,1.81,2.64c0.43,1.27,0.32,2.52-0.2,3.74
		c-0.64,1.52-1.66,2.72-3.12,3.52C366.89,78.35,366.28,78.5,365.08,78.5z M368.92,71.89c0.03-0.71-0.16-1.39-0.67-1.94
		c-0.9-0.97-1.97-1.74-3.02-2.53c-0.23-0.17-0.45-0.1-0.64,0.1c-0.16,0.18-0.32,0.36-0.47,0.54c-1.12,1.4-2.25,2.8-3.37,4.2
		c-0.15,0.19-0.29,0.38-0.43,0.57c-0.17,0.24-0.13,0.48,0.07,0.64c0.99,0.81,1.93,1.67,3.01,2.35c0.72,0.45,1.54,0.49,2.31,0.27
		C367.77,75.52,369.03,73.43,368.92,71.89z"/>
	<path class="st0" d="M91.94,403.16c0.01-2.25,2.48-5.17,5.32-5.61c1.13-0.18,2.24-0.03,3.26,0.53c0.52,0.29,1.03,0.62,1.5,0.99
		c1.17,0.91,2.31,1.84,3.47,2.77c0.16,0.12,0.31,0.25,0.46,0.39c0.38,0.36,0.4,0.52,0.13,0.93c-0.13,0.2-0.28,0.39-0.43,0.57
		c-1.97,2.47-3.94,4.93-5.92,7.39c-0.74,0.92-0.83,0.93-1.72,0.23c-1.25-0.99-2.5-1.99-3.74-3c-0.31-0.25-0.59-0.53-0.87-0.82
		C92.4,406.48,91.91,405.25,91.94,403.16z M94.32,404.12c0.08,0.79,0.28,1.62,0.94,2.21c0.89,0.79,1.84,1.53,2.78,2.27
		c0.22,0.17,0.46,0.11,0.65-0.08c0.17-0.17,0.33-0.35,0.48-0.53c0.83-1.02,1.65-2.05,2.48-3.08c0.45-0.56,0.89-1.12,1.33-1.69
		c0.16-0.21,0.18-0.45-0.04-0.64c-0.98-0.82-1.94-1.66-3.02-2.35c-0.64-0.41-1.35-0.54-2.07-0.38
		C95.99,400.28,94.48,401.92,94.32,404.12z"/>
	<path class="st0" d="M161.18,39.49c-0.09,2.18-0.96,3.8-2.79,4.83c-0.52,0.29-1.08,0.53-1.63,0.75c-1.26,0.5-2.53,0.99-3.8,1.47
		c-1.19,0.46-1.24,0.44-1.72-0.8c-0.82-2.08-1.62-4.17-2.43-6.26c-0.3-0.78-0.61-1.56-0.91-2.35c-0.1-0.26-0.21-0.52-0.28-0.79
		c-0.12-0.42-0.04-0.6,0.31-0.8c0.1-0.06,0.21-0.11,0.32-0.16c1.72-0.65,3.43-1.33,5.16-1.93c0.86-0.3,1.76-0.46,2.7-0.3
		c1.27,0.22,2.34,0.78,3.2,1.74C160.52,36.23,161.08,37.82,161.18,39.49z M158.67,39.64c-0.06-1.36-0.52-2.6-1.63-3.53
		c-0.7-0.59-1.52-0.94-2.43-0.75c-1.33,0.29-2.57,0.84-3.81,1.38c-0.21,0.09-0.29,0.28-0.25,0.49c0.03,0.19,0.1,0.39,0.17,0.57
		c0.69,1.79,1.38,3.57,2.07,5.35c0.06,0.15,0.12,0.3,0.19,0.44c0.2,0.38,0.38,0.48,0.77,0.33c1.01-0.37,2.03-0.73,3-1.17
		C158.04,42.17,158.63,41.09,158.67,39.64z"/>
	<path class="st0" d="M307.9,442.52c-1.12-0.04-2.24-0.41-3.19-1.21c-1.55-1.31-2.4-3.02-2.48-5.01c-0.09-2.2,0.81-3.96,2.81-5.04
		c0.14-0.08,0.28-0.16,0.43-0.22c1.82-0.72,3.63-1.45,5.46-2.16c0.53-0.2,0.72-0.11,0.96,0.39c0.14,0.29,0.25,0.59,0.37,0.88
		c1.07,2.75,2.14,5.51,3.22,8.26c0.55,1.41,0.55,1.42-0.87,1.98c-1.37,0.54-2.75,1.08-4.13,1.6
		C309.68,442.29,308.87,442.5,307.9,442.52z M308.6,440.23c0.11-0.02,0.48-0.02,0.81-0.14c1.01-0.36,2.02-0.74,3.02-1.15
		c0.45-0.18,0.52-0.37,0.34-0.85c-0.5-1.34-1.02-2.68-1.54-4.02c-0.26-0.67-0.52-1.34-0.8-2c-0.2-0.46-0.37-0.55-0.84-0.38
		c-1.01,0.37-2.02,0.74-3,1.19c-1.3,0.59-1.88,1.67-1.87,3.07c0.01,1.2,0.43,2.27,1.22,3.17
		C306.56,439.85,307.37,440.25,308.6,440.23z"/>
	<path class="st0" d="M419.72,345.59c-1.83,0.14-3.46-1.29-3.58-3.14c-0.01-0.12-0.01-0.24-0.03-0.36
		c-0.08-0.46-0.22-0.61-0.73-0.62c-1.04-0.01-2.08,0.02-3.12,0.02c-0.36,0-0.72,0-1.08-0.03c-0.29-0.02-0.43-0.24-0.35-0.5
		c0.14-0.47,0.4-0.87,0.66-1.27c0.21-0.33,0.51-0.5,0.9-0.5c0.88-0.01,1.76-0.01,2.64-0.02c0.44,0,0.88-0.01,1.32-0.01
		c0.35,0,0.61-0.15,0.78-0.46c0.45-0.8,0.91-1.6,1.34-2.41c0.23-0.43,0.17-0.6-0.29-0.87c-0.72-0.43-1.46-0.83-2.19-1.24
		c-1.21-0.69-1.14-0.71-0.5-1.94c0.04-0.07,0.08-0.14,0.12-0.21c0.24-0.36,0.43-0.43,0.8-0.29c0.18,0.07,0.36,0.17,0.54,0.26
		c2.94,1.61,5.89,3.22,8.83,4.83c0.14,0.08,0.28,0.16,0.41,0.25c0.14,0.1,0.2,0.26,0.14,0.42c-0.1,0.26-0.21,0.52-0.34,0.76
		c-0.83,1.55-1.66,3.1-2.49,4.65c-0.27,0.49-0.57,0.97-0.95,1.38C421.79,345.16,420.86,345.65,419.72,345.59z M419.84,343.28
		c0.57-0.01,1.01-0.2,1.37-0.81c0.71-1.19,1.36-2.43,2.01-3.65c0.19-0.35,0.11-0.62-0.24-0.82c-0.55-0.32-1.12-0.61-1.69-0.88
		c-0.5-0.24-0.7-0.19-0.98,0.3c-0.62,1.11-1.22,2.23-1.81,3.36c-0.11,0.21-0.18,0.45-0.22,0.68
		C418.11,342.4,418.88,343.3,419.84,343.28z"/>
	<path class="st0" d="M22.86,199.91c-1.8-0.1-3.52-0.95-4.74-2.73c-2.47-3.63-0.74-8.67,2.88-10.27c3.08-1.37,6.36,0.08,7.77,2.36
		c2.29,3.7,0.62,8-2.18,9.69C25.55,199.6,24.42,199.93,22.86,199.91z M23.28,197.41c2.47,0.03,4.33-1.81,4.36-4.26
		c0.03-2.44-2.04-4.33-4.19-4.33c-2.19,0-4.23,1.73-4.31,4.37C19.09,195.18,20.77,197.51,23.28,197.41z"/>
	<path class="st0" d="M109.97,56.93c4.33-0.05,6.57,3.66,6.34,6.66c-0.23,2.98-2.78,5.77-5.74,6.25c-1.94,0.32-3.73,0-5.3-1.24
		c-1.96-1.55-2.82-3.93-2.07-6.54c0.74-2.56,2.5-4.2,5.07-4.95C108.85,56.94,109.45,56.99,109.97,56.93z M113.85,63.43
		c0.2-2.83-3.13-5.35-5.9-3.86c-0.21,0.11-0.43,0.21-0.63,0.34c-2.04,1.27-2.61,3.97-1.24,5.95c0.85,1.23,2.08,1.95,3.55,1.88
		C112.53,67.59,113.92,65.3,113.85,63.43z"/>
	<path class="st0" d="M341.21,51.91c-0.04,3.27-2.58,5.98-5.86,6.16c-2.52,0.14-4.62-0.78-6.21-2.75
		c-3.08-3.85-0.89-9.25,3.76-10.14c3.03-0.58,7.28,1.42,8.15,5.43C341.15,51.04,341.16,51.48,341.21,51.91z M334.45,55.82
		c2.45,0.13,4.27-1.91,4.26-4.06c-0.01-2.5-1.87-4.47-4.33-4.46c-2.29,0-4.19,1.87-4.23,4.18C330.11,53.89,332,55.8,334.45,55.82z"
		/>
	<path class="st0" d="M205.17,26.74c0.02-2.9,0.93-4.61,2.68-5.83c2.57-1.79,5.73-1.8,8.3-0.01c2.96,2.07,3.57,6.24,1,9.14
		c-2.27,2.56-6.26,3.14-9.15,1.19C206.16,30,205.14,28.27,205.17,26.74z M207.69,25.96c-0.1,1.91,1.28,4.21,4.21,4.27
		c2.4,0.05,4.37-1.94,4.35-4.32c-0.01-2.22-1.76-4.25-4.32-4.2C208.96,21.78,207.59,24.02,207.69,25.96z"/>
	<path class="st0" d="M251.52,443.34c3.04-0.01,5.66,1.85,6.45,4.61c0.88,3.05-0.64,6.28-3.44,7.48c-2.14,0.92-4.24,0.94-6.38-0.02
		c-3.38-1.52-4.91-6.23-2.03-9.62C247.4,444.3,249.26,443.36,251.52,443.34z M255.68,449.8c0.1-2.23-1.57-4.24-4.15-4.35
		c-2.33-0.1-4.4,1.96-4.41,4.3c-0.01,2.3,1.93,4.39,4.23,4.35C254.28,454.04,255.74,451.88,255.68,449.8z"/>
	<path class="st0" d="M439.39,288.97c-2.78,0.18-4.98-2.16-5.73-4.1c-1.2-3.13,0.23-6.93,2.79-8.41c2.05-1.19,4.17-1.37,6.27-0.24
		c2.13,1.15,3.23,3.01,3.35,5.44c0.08,1.74-0.32,3.33-1.38,4.72C443.39,288.07,441.71,289,439.39,288.97z M435.46,282.23
		c-0.08,2.17,1.49,4.26,4.15,4.38c2.28,0.11,4.34-1.98,4.33-4.39c-0.01-2.36-1.86-4.3-4.25-4.31
		C437.34,277.91,435.48,279.81,435.46,282.23z"/>
	<path class="st0" d="M353.99,405.6c3.46-0.08,5.74,2.41,6.23,4.71c0.45,2.16,0.03,4.12-1.46,5.8c-1.39,1.57-3.14,2.45-5.24,2.53
		c-1.47,0.05-2.85-0.33-4.04-1.24c-2.86-2.19-2.92-5.39-1.82-7.73c0.89-1.9,2.41-3.14,4.4-3.81
		C352.72,405.64,353.39,405.66,353.99,405.6z M353.63,416.44c2.19-0.17,4.33-1.44,4.36-4.33c0.03-2.57-1.86-4.29-4.33-4.32
		c-2.32-0.03-4.35,2.15-4.24,4.47C349.55,414.81,351.16,416.25,353.63,416.44z"/>
	<path class="st0" d="M128.56,417.86c3.11-0.18,6.2,2.34,6.82,5.19c1.04,4.73-2.63,7.66-5.86,7.75c-3.2,0.09-6.05-1.97-6.96-4.55
		c-1.4-3.98,0.91-7.49,4.57-8.29C127.59,417.86,128.08,417.89,128.56,417.86z M128.83,419.99c-2.35,0.13-4.24,1.72-4.27,4.17
		c-0.03,2.46,1.64,4.38,4.39,4.43c2.41,0.04,4.16-1.72,4.19-4.19C133.18,421.65,130.99,420.11,128.83,419.99z"/>
	<path class="st0" d="M29.94,283.49c0.1,1.29-0.24,2.55-0.78,3.77c-0.1,0.22-0.22,0.42-0.36,0.62c-0.15,0.22-0.37,0.31-0.62,0.21
		c-0.19-0.07-0.37-0.16-0.54-0.26c-0.72-0.4-0.98-0.49-0.51-1.49c0.7-1.49,0.92-3.04,0.52-4.67c-0.17-0.67-0.4-1.31-0.82-1.85
		c-0.36-0.46-0.81-0.79-1.44-0.63c-0.64,0.16-1.03,0.61-1.15,1.25c-0.11,0.59-0.08,1.2,0,1.79c0.1,0.75,0.21,1.5,0.32,2.25
		c0.1,0.76,0.06,1.51-0.11,2.26c-0.4,1.65-1.95,2.66-3.63,2.33c-0.9-0.18-1.64-0.62-2.2-1.35c-0.32-0.41-0.58-0.86-0.77-1.35
		c-0.79-2.05-0.87-4.12-0.23-6.22c0.03-0.11,0.08-0.23,0.13-0.34c0.21-0.48,0.45-0.57,0.95-0.34c0.15,0.07,0.28,0.15,0.42,0.22
		c0.63,0.35,0.78,0.53,0.53,1.24c-0.33,0.92-0.31,1.88-0.27,2.85c0.03,0.65,0.22,1.26,0.47,1.85c0.17,0.42,0.44,0.75,0.84,0.98
		c0.64,0.37,1.3,0.07,1.45-0.67c0.05-0.23,0.07-0.48,0.05-0.71c-0.03-0.64-0.04-1.28-0.15-1.91c-0.17-0.99-0.18-1.99-0.17-2.99
		c0.02-1.44,0.59-2.55,1.97-3.14c1.45-0.62,2.81-0.48,4.04,0.54c0.66,0.55,1.1,1.26,1.41,2.05C29.74,280.97,30,282.17,29.94,283.49z
		"/>
	<path class="st0" d="M433.19,192.75c-0.09-1.23,0.15-2.32,0.53-3.38c0.12-0.34,0.27-0.67,0.45-0.98c0.27-0.5,0.48-0.56,0.97-0.35
		c0.07,0.03,0.14,0.07,0.22,0.11c0.95,0.5,1.12,0.54,0.6,1.63c-0.72,1.53-0.91,3.14-0.46,4.79c0.17,0.62,0.37,1.22,0.8,1.72
		c0.43,0.5,0.95,0.72,1.6,0.53c0.62-0.18,0.87-0.67,0.98-1.25c0.1-0.51,0.07-1.04,0-1.55c-0.1-0.83-0.22-1.66-0.33-2.49
		c-0.11-0.84-0.06-1.68,0.19-2.49c0.25-0.86,0.78-1.49,1.65-1.77c1.46-0.48,2.93-0.29,3.95,0.9c0.39,0.46,0.7,0.98,0.93,1.53
		c0.81,2,0.88,4.04,0.27,6.1c-0.31,1.04-0.59,1.13-1.55,0.58c-0.1-0.06-0.2-0.12-0.31-0.19c-0.31-0.2-0.41-0.48-0.28-0.82
		c0.38-1,0.41-2.03,0.33-3.07c-0.06-0.8-0.25-1.58-0.69-2.27c-0.25-0.39-0.58-0.66-1.07-0.66c-0.49,0-0.85,0.25-0.96,0.73
		c-0.06,0.27-0.09,0.56-0.08,0.83c0.03,0.68,0.06,1.36,0.17,2.03c0.16,0.99,0.19,1.99,0.13,2.99c-0.09,1.68-0.99,2.74-2.62,3.15
		c-1.67,0.42-3.22-0.17-4.17-1.63c-0.78-1.2-1.15-2.54-1.26-3.96C433.17,193.22,433.19,192.94,433.19,192.75z"/>
	<path class="st0" d="M426.51,167.55c-0.26-0.02-0.42-0.06-0.5-0.21c-0.13-0.24-0.27-0.49-0.37-0.75c-0.97-2.45-1.93-4.91-2.89-7.36
		c-0.07-0.19-0.14-0.37-0.19-0.57c-0.08-0.33,0-0.51,0.33-0.68c0.21-0.11,0.44-0.2,0.66-0.28c2.9-1.14,5.8-2.28,8.7-3.42
		c0.04-0.01,0.07-0.03,0.11-0.04c1.18-0.43,1.29-0.4,1.77,0.79c0.9,2.26,1.79,4.53,2.67,6.8c0.39,1.01,0.28,1.22-0.75,1.57
		c-0.15,0.05-0.31,0.09-0.46,0.11c-0.22,0.04-0.4-0.06-0.5-0.25c-0.15-0.28-0.27-0.58-0.39-0.87c-0.6-1.52-1.2-3.05-1.8-4.57
		c-0.07-0.19-0.14-0.38-0.22-0.56c-0.17-0.37-0.35-0.45-0.78-0.3c-0.41,0.14-0.82,0.31-1.22,0.49c-0.38,0.17-0.46,0.37-0.32,0.78
		c0.28,0.79,0.59,1.57,0.88,2.36c0.1,0.26,0.2,0.52,0.28,0.79c0.08,0.26-0.02,0.46-0.25,0.61c-1.12,0.72-1.55,0.59-2.05-0.64
		c-0.29-0.7-0.55-1.42-0.84-2.11c-0.24-0.57-0.48-0.69-1.02-0.5c-0.56,0.2-1.12,0.43-1.67,0.67c-0.25,0.11-0.35,0.33-0.27,0.59
		c0.11,0.34,0.24,0.68,0.37,1.01c0.61,1.56,1.22,3.12,1.83,4.69c0.11,0.3,0.21,0.6,0.29,0.91c0.04,0.16-0.02,0.31-0.16,0.42
		C427.34,167.32,426.88,167.44,426.51,167.55z"/>
	<path class="st0" d="M412.14,361.03c-0.52-0.22-1.02-0.45-1.34-0.94c-0.05-0.08-0.05-0.25,0-0.34c0.16-0.32,0.33-0.64,0.53-0.94
		c0.86-1.34,1.74-2.68,2.6-4.02c0.15-0.23,0.29-0.48,0.42-0.72c0.08-0.16,0.04-0.33-0.09-0.44c-0.45-0.4-0.95-0.73-1.49-0.98
		c-0.2-0.1-0.4-0.01-0.53,0.16c-0.26,0.35-0.51,0.71-0.75,1.08c-0.4,0.59-0.79,1.2-1.2,1.79c-0.19,0.27-0.44,0.31-0.74,0.17
		c-0.11-0.05-0.21-0.12-0.31-0.18c-0.96-0.58-0.99-0.7-0.38-1.67c0.47-0.74,0.96-1.47,1.42-2.22c0.31-0.5,0.28-0.63-0.23-0.97
		c-0.5-0.33-1.01-0.65-1.52-0.95c-0.31-0.18-0.51-0.14-0.73,0.15c-0.3,0.42-0.58,0.86-0.87,1.29c-0.83,1.27-1.65,2.54-2.48,3.82
		c-0.11,0.17-0.22,0.34-0.34,0.49c-0.3,0.38-0.5,0.42-0.93,0.21c-0.11-0.05-0.21-0.12-0.31-0.18c-0.83-0.51-0.87-0.68-0.34-1.51
		c1.47-2.28,2.94-4.56,4.42-6.84c0.56-0.85,0.64-0.87,1.51-0.3c2.75,1.77,5.5,3.56,8.24,5.34c0.1,0.07,0.2,0.13,0.3,0.2
		c0.59,0.42,0.62,0.54,0.22,1.17c-1.42,2.22-2.86,4.43-4.29,6.64c-0.13,0.2-0.28,0.39-0.45,0.56
		C412.39,360.96,412.26,360.98,412.14,361.03z"/>
	<path class="st0" d="M71.12,371.89c-0.09-0.13-0.19-0.31-0.31-0.46c-0.98-1.21-1.97-2.41-2.96-3.62c-0.4-0.5-0.82-0.98-1.21-1.49
		c-0.26-0.34-0.24-0.57,0.07-0.84c1.15-0.99,1.17-1.02,2.07,0.07c1.61,1.94,3.19,3.89,4.79,5.84c0.1,0.12,0.2,0.25,0.3,0.38
		c0.47,0.63,0.46,0.72-0.15,1.29c-0.23,0.22-0.47,0.44-0.72,0.64c-2.42,1.97-4.84,3.94-7.26,5.9c-0.09,0.08-0.19,0.15-0.29,0.21
		c-0.23,0.14-0.46,0.11-0.66-0.07c-0.09-0.08-0.17-0.17-0.24-0.26c-1.65-2-3.32-4-4.96-6.01c-0.77-0.94-0.73-1.1,0.23-1.78
		c0.07-0.05,0.13-0.09,0.2-0.13c0.35-0.21,0.57-0.21,0.85,0.1c0.48,0.54,0.93,1.1,1.39,1.65c0.73,0.9,1.45,1.81,2.18,2.71
		c0.13,0.15,0.26,0.3,0.41,0.44c0.35,0.34,0.5,0.34,0.94,0.06c0.07-0.04,0.13-0.09,0.19-0.14c1.38-1.05,1.34-0.83,0.31-2.15
		c-0.49-0.63-1.01-1.24-1.49-1.88c-0.31-0.4-0.27-0.6,0.07-0.93c0.03-0.03,0.06-0.05,0.09-0.08c0.96-0.79,1.08-0.91,1.89,0.13
		c0.57,0.72,1.15,1.43,1.73,2.15c0.18,0.22,0.41,0.29,0.63,0.11c0.62-0.51,1.21-1.04,1.81-1.56
		C71.08,372.12,71.08,372.02,71.12,371.89z"/>
	<path class="st0" d="M29.91,322.15c-0.26,0.01-0.41-0.05-0.49-0.2c-0.12-0.2-0.23-0.42-0.32-0.64c-0.94-2.38-1.88-4.76-2.81-7.14
		c-0.35-0.91-0.27-1.07,0.65-1.42c0.11-0.04,0.22-0.09,0.34-0.12c0.39-0.1,0.63-0.02,0.81,0.32c0.15,0.28,0.27,0.58,0.39,0.88
		c0.56,1.41,1.12,2.82,1.68,4.23c0.1,0.26,0.2,0.52,0.33,0.77c0.16,0.32,0.35,0.39,0.69,0.31c0.08-0.02,0.15-0.05,0.23-0.08
		c1.88-0.71,1.62-0.55,1.03-2.14c-0.26-0.71-0.55-1.42-0.8-2.13c-0.13-0.39-0.04-0.6,0.35-0.77c1.32-0.59,1.4-0.6,1.93,0.72
		c0.31,0.78,0.61,1.56,0.94,2.34c0.18,0.42,0.33,0.48,0.75,0.33c0.56-0.2,1.12-0.42,1.67-0.66c0.42-0.19,0.5-0.43,0.36-0.88
		c-0.08-0.27-0.2-0.52-0.3-0.78c-0.64-1.64-1.29-3.27-1.92-4.91c-0.38-0.98-0.3-1.11,0.7-1.47c0.11-0.04,0.22-0.09,0.34-0.12
		c0.34-0.09,0.55-0.01,0.71,0.27c0.1,0.17,0.18,0.36,0.26,0.54c0.99,2.49,1.97,4.98,2.95,7.47c0.06,0.15,0.11,0.3,0.15,0.46
		c0.11,0.42,0.04,0.61-0.31,0.8c-0.21,0.11-0.44,0.2-0.66,0.29c-2.97,1.17-5.95,2.34-8.93,3.51
		C30.36,322.01,30.1,322.09,29.91,322.15z"/>
	<path class="st0" d="M16.36,272.16c-0.27,0.02-0.39,0.03-0.51,0.03c-0.34-0.01-0.54-0.14-0.6-0.47c-0.1-0.47-0.17-0.94-0.23-1.42
		c-0.32-2.3-0.63-4.59-0.93-6.89c-0.09-0.71,0.1-0.95,0.83-1c0.89-0.06,1.24-0.19,1.38,1.09c0.18,1.67,0.45,3.33,0.68,4.99
		c0.03,0.2,0.04,0.4,0.1,0.59c0.09,0.29,0.29,0.47,0.61,0.5c0.12,0.01,0.24,0.01,0.36,0.01c1.4-0.04,1.59-0.25,1.43-1.61
		c-0.09-0.75-0.22-1.5-0.3-2.26c-0.08-0.68,0.05-0.82,0.76-0.92c1.21-0.18,1.21-0.18,1.42,1.09c0.15,0.91,0.29,1.82,0.43,2.72
		c0.04,0.22,0.17,0.41,0.39,0.37c0.67-0.1,1.36-0.04,2.02-0.27c0.46-0.16,0.6-0.32,0.55-0.79c-0.07-0.68-0.17-1.35-0.27-2.02
		c-0.19-1.35-0.38-2.69-0.57-4.03c-0.03-0.2-0.04-0.4-0.03-0.6c0.02-0.26,0.17-0.44,0.43-0.51c0.08-0.02,0.16-0.03,0.23-0.05
		c1.22-0.29,1.39-0.17,1.56,1.06c0.35,2.57,0.7,5.15,1.05,7.72c0.03,0.2,0.06,0.4,0.07,0.59c0.01,0.31-0.13,0.54-0.45,0.62
		c-0.31,0.08-0.62,0.17-0.93,0.21c-2.93,0.41-5.85,0.8-8.78,1.2C16.77,272.14,16.48,272.15,16.36,272.16z"/>
	<path class="st0" d="M51.05,114.43c0.53,0.2,1.01,0.47,1.38,0.91c0.06,0.07,0.06,0.25,0.02,0.34c-0.12,0.25-0.26,0.49-0.42,0.72
		c-0.93,1.44-1.87,2.88-2.8,4.32c-0.13,0.2-0.26,0.4-0.37,0.61c-0.11,0.2-0.08,0.4,0.1,0.53c0.42,0.3,0.85,0.6,1.29,0.87
		c0.37,0.23,0.57,0.19,0.82-0.16c0.32-0.45,0.62-0.93,0.92-1.4c0.2-0.3,0.38-0.61,0.58-0.91c0.2-0.29,0.35-0.73,0.74-0.71
		c0.58,0.02,1.02,0.42,1.39,0.84c0.11,0.12,0.09,0.31,0.01,0.45c-0.17,0.31-0.35,0.62-0.54,0.93c-0.43,0.67-0.87,1.34-1.29,2.02
		c-0.18,0.3-0.14,0.55,0.14,0.74c0.56,0.38,1.14,0.74,1.71,1.11c0.24,0.16,0.46,0.1,0.63-0.11c0.2-0.25,0.37-0.52,0.55-0.79
		c0.87-1.34,1.74-2.68,2.61-4.02c0.13-0.2,0.26-0.4,0.4-0.6c0.53-0.75,0.7-0.78,1.45-0.29c0.81,0.52,0.86,0.69,0.32,1.52
		c-1.45,2.25-2.92,4.48-4.38,6.72c-0.04,0.07-0.09,0.13-0.14,0.2c-0.48,0.64-0.63,0.68-1.28,0.29c-0.62-0.37-1.22-0.77-1.82-1.16
		c-2.14-1.39-4.28-2.78-6.42-4.19c-1.11-0.73-1.12-0.78-0.42-1.86c1.3-2.01,2.61-4.01,3.93-6.02c0.17-0.27,0.37-0.52,0.57-0.76
		C50.8,114.51,50.93,114.49,51.05,114.43z"/>
	<path class="st0" d="M443.6,208.03c0.1,0.83,0.22,1.66,0.29,2.5c0.05,0.57-0.16,0.78-0.74,0.86c-0.2,0.03-0.4,0.03-0.6,0.03
		c-0.47-0.01-0.65-0.12-0.74-0.61c-0.17-0.86-0.29-1.73-0.42-2.6c-0.03-0.2-0.03-0.4-0.07-0.59c-0.06-0.32-0.26-0.5-0.59-0.47
		c-0.63,0.07-1.27,0.16-1.89,0.27c-0.25,0.04-0.41,0.24-0.45,0.5c-0.06,0.44,0.01,0.87,0.06,1.31c0.23,1.66,0.41,3.33,0.68,4.98
		c0.17,1.06-0.15,1.31-1.25,1.3c-0.54-0.01-0.73-0.14-0.82-0.66c-0.16-0.9-0.29-1.81-0.42-2.72c-0.25-1.82-0.5-3.64-0.74-5.45
		c-0.02-0.12-0.03-0.24-0.03-0.36c-0.03-0.71,0.13-0.9,0.88-1.01c0.43-0.06,0.87-0.13,1.3-0.19c2.09-0.27,4.19-0.53,6.28-0.81
		c0.87-0.11,1.73-0.27,2.6-0.38c0.57-0.08,0.83,0.1,0.94,0.66c0.12,0.63,0.2,1.26,0.28,1.89c0.24,1.74,0.47,3.48,0.71,5.22
		c0.04,0.32,0.06,0.64,0.08,0.95c0.05,0.83-0.05,0.95-0.88,1.09c-0.19,0.03-0.4,0.04-0.59,0.04c-0.26-0.01-0.46-0.16-0.53-0.41
		c-0.1-0.35-0.18-0.7-0.22-1.05c-0.19-1.42-0.37-2.85-0.56-4.27c-0.05-0.39-0.13-0.79-0.22-1.18c-0.06-0.28-0.27-0.38-0.54-0.35
		c-0.44,0.05-0.87,0.08-1.31,0.15c-0.44,0.07-0.59,0.29-0.55,0.76c0.02,0.2,0.06,0.4,0.09,0.59
		C443.6,208.03,443.6,208.03,443.6,208.03z"/>
	<path class="st0" d="M402.91,104.69c-0.27,0.05-0.41-0.04-0.52-0.15c-0.2-0.2-0.38-0.41-0.56-0.63c-1.07-1.29-2.14-2.58-3.21-3.87
		c-0.13-0.15-0.25-0.31-0.39-0.45c-0.19-0.2-0.42-0.22-0.65-0.07c-0.13,0.09-0.26,0.19-0.38,0.29c-1.31,1.11-1.3,0.94-0.24,2.18
		c0.49,0.58,0.96,1.17,1.42,1.78c0.29,0.39,0.25,0.58-0.11,0.93c-0.11,0.11-0.24,0.22-0.36,0.32c-0.65,0.52-0.82,0.5-1.37-0.15
		c-0.59-0.7-1.16-1.43-1.76-2.12c-0.41-0.48-0.6-0.48-1.11-0.09c-0.41,0.32-0.82,0.64-1.21,0.99c-0.38,0.34-0.42,0.53-0.13,0.92
		c0.48,0.64,0.99,1.26,1.49,1.88c0.81,0.99,1.62,1.98,2.43,2.96c0.13,0.15,0.26,0.31,0.36,0.48c0.14,0.23,0.11,0.46-0.09,0.65
		c-0.23,0.22-0.47,0.44-0.72,0.63c-0.4,0.3-0.61,0.28-0.94-0.07c-0.24-0.26-0.47-0.54-0.7-0.82c-1.55-1.88-3.09-3.77-4.63-5.66
		c-0.15-0.19-0.3-0.38-0.43-0.58c-0.19-0.29-0.17-0.5,0.1-0.74c0.54-0.48,1.08-0.95,1.65-1.38c1.94-1.47,3.78-3.08,5.65-4.63
		c0.4-0.33,0.81-0.64,1.23-0.95c0.22-0.16,0.46-0.14,0.65,0.05c0.23,0.22,0.44,0.47,0.64,0.71c1.5,1.82,2.99,3.64,4.48,5.47
		c0.86,1.06,0.86,1.06-0.26,1.96C403.12,104.6,402.97,104.65,402.91,104.69z"/>
	<path class="st0" d="M157.64,436.66c0.12,0.04,0.36,0.09,0.58,0.17c0.83,0.29,1.65,0.6,2.49,0.88c0.57,0.19,0.79,0.08,1.02-0.49
		c0.19-0.48,0.37-0.97,0.52-1.47c0.18-0.57,0.12-0.71-0.43-0.92c-1.57-0.59-3.15-1.15-4.73-1.73c-0.49-0.18-0.98-0.35-1.45-0.56
		c-0.38-0.17-0.45-0.37-0.36-0.77c0.01-0.04,0.01-0.08,0.03-0.12c0.38-1.19,0.45-1.32,1.67-0.86c2.4,0.89,4.81,1.74,7.21,2.61
		c1.28,0.47,1.28,0.48,0.81,1.8c-1.06,2.93-2.12,5.86-3.18,8.8c-0.05,0.15-0.1,0.3-0.17,0.45c-0.27,0.62-0.44,0.71-1.12,0.47
		c-2.52-0.9-5.04-1.81-7.56-2.73c-0.15-0.05-0.29-0.13-0.43-0.21c-0.24-0.13-0.32-0.35-0.27-0.61c0.03-0.16,0.08-0.31,0.13-0.46
		c0.31-0.91,0.48-1.01,1.4-0.68c1.58,0.55,3.16,1.13,4.74,1.7c0.26,0.09,0.52,0.2,0.79,0.27c0.34,0.1,0.55,0.02,0.68-0.3
		c0.19-0.48,0.36-0.97,0.51-1.47c0.08-0.26-0.04-0.48-0.29-0.59c-0.51-0.22-1.04-0.42-1.56-0.62c-0.52-0.2-1.06-0.37-1.57-0.59
		c-0.4-0.17-0.5-0.38-0.38-0.76c0.11-0.34,0.25-0.67,0.41-0.99C157.19,436.76,157.35,436.68,157.64,436.66z"/>
	<path class="st0" d="M311.11,34.43c-0.02,0.08-0.05,0.23-0.1,0.38c-0.29,0.91-0.42,1.21-1.54,0.77c-1.52-0.6-3.08-1.12-4.61-1.68
		c-0.19-0.07-0.37-0.15-0.56-0.21c-0.63-0.21-0.77-0.16-1.01,0.43c-0.17,0.41-0.31,0.82-0.44,1.24c-0.07,0.25,0.03,0.49,0.27,0.61
		c0.32,0.16,0.66,0.29,0.99,0.41c0.71,0.27,1.43,0.51,2.13,0.8c0.44,0.18,0.52,0.4,0.39,0.86c-0.04,0.15-0.09,0.31-0.15,0.45
		c-0.28,0.72-0.46,0.82-1.17,0.58c-0.83-0.28-1.65-0.6-2.48-0.89c-0.85-0.3-0.91-0.28-1.23,0.56c-0.2,0.52-0.38,1.05-0.56,1.58
		c-0.09,0.26,0.01,0.48,0.26,0.59c0.33,0.14,0.66,0.27,1,0.4c1.61,0.59,3.23,1.17,4.84,1.76c0.22,0.08,0.45,0.16,0.67,0.27
		c0.3,0.14,0.38,0.35,0.29,0.69c-0.05,0.19-0.12,0.38-0.19,0.57c-0.3,0.73-0.45,0.83-1.16,0.57c-2.63-0.94-5.26-1.9-7.88-2.86
		c-0.08-0.03-0.15-0.05-0.22-0.08c-0.57-0.26-0.67-0.44-0.47-1.03c0.21-0.64,0.46-1.28,0.69-1.91c0.8-2.22,1.6-4.43,2.41-6.65
		c0.12-0.34,0.25-0.67,0.39-1.01c0.38-0.95,0.44-0.98,1.41-0.64c2.33,0.83,4.66,1.68,6.98,2.52c0.26,0.09,0.52,0.21,0.76,0.34
		C311,33.96,311.11,34.12,311.11,34.43z"/>
	<path class="st0" d="M224.9,25.03c0-1.44,0-2.88,0-4.31c0-0.28-0.01-0.56,0.02-0.84c0.05-0.55,0.21-0.72,0.72-0.77
		c0.2-0.02,0.4-0.02,0.6-0.02c1.88,0,3.76,0,5.63-0.01c0.73,0,1.43,0.14,2.09,0.45c1.25,0.6,2,1.58,2.1,2.98
		c0.11,1.49-0.51,2.64-1.77,3.43c-0.84,0.52-1.79,0.68-2.75,0.7c-0.84,0.02-1.68,0.01-2.52,0.02c-0.28,0-0.56-0.01-0.84,0.01
		c-0.6,0.04-0.76,0.19-0.78,0.83c-0.02,0.72,0,1.44-0.01,2.16c0,0.32-0.01,0.64-0.05,0.95c-0.04,0.3-0.23,0.52-0.55,0.55
		c-0.4,0.03-0.8,0.04-1.19,0.01c-0.37-0.03-0.56-0.23-0.61-0.62c-0.04-0.32-0.05-0.64-0.05-0.96c0-1.52,0-3.04,0-4.55
		C224.92,25.03,224.91,25.03,224.9,25.03z M230.08,21.15C230.08,21.16,230.08,21.16,230.08,21.15c-0.64,0.01-1.27-0.01-1.91,0.01
		c-0.6,0.02-0.77,0.2-0.8,0.81c-0.03,0.6-0.02,1.19,0.01,1.79c0.03,0.62,0.2,0.81,0.8,0.79c1.35-0.04,2.7-0.12,4.05-0.2
		c0.12-0.01,0.24-0.03,0.35-0.07c1.08-0.35,1.43-1.68,0.66-2.5c-0.4-0.43-0.91-0.64-1.49-0.64
		C231.19,21.15,230.63,21.15,230.08,21.15z"/>
	<path class="st0" d="M238.47,450.71c0,1.48,0,2.96,0,4.43c0,0.32-0.01,0.64-0.05,0.96c-0.03,0.26-0.21,0.43-0.46,0.49
		c-0.15,0.04-0.32,0.06-0.47,0.06c-2.12,0.01-4.23,0.04-6.35,0c-1.02-0.02-1.91-0.43-2.71-1.12c-1.63-1.41-1.55-4.34,0.57-5.67
		c0.79-0.5,1.68-0.73,2.62-0.75c1-0.02,2-0.01,3-0.02c0.28,0,0.56-0.01,0.84-0.04c0.26-0.03,0.45-0.2,0.48-0.46
		c0.04-0.36,0.05-0.72,0.05-1.07c0.01-0.72-0.02-1.44,0.02-2.16c0.03-0.59,0.24-0.77,0.82-0.81c0.24-0.02,0.48-0.02,0.72-0.01
		c0.64,0.04,0.84,0.21,0.87,0.89c0.04,1.04,0.03,2.08,0.04,3.12c0.01,0.72,0,1.44,0,2.16C238.46,450.71,238.46,450.71,238.47,450.71
		z M233.43,454.61c0-0.01,0-0.01,0-0.02c0.72,0,1.44,0.01,2.16-0.01c0.34-0.01,0.51-0.21,0.5-0.54c-0.02-0.68-0.04-1.36-0.09-2.03
		c-0.04-0.65-0.21-0.81-0.91-0.82c-1.04-0.02-2.08-0.02-3.11,0.01c-0.35,0.01-0.71,0.09-1.05,0.2c-0.76,0.24-1.13,0.73-1.15,1.49
		c-0.02,0.8,0.37,1.36,1.16,1.61c0.26,0.08,0.55,0.1,0.82,0.11C232.31,454.62,232.87,454.61,233.43,454.61z"/>
	<path class="st0" d="M178.08,38.2c-0.36,0.03-1.03-0.1-1.66-0.36c-1.13-0.45-1.95-1.22-2.41-2.36c-0.09-0.22-0.17-0.45-0.23-0.68
		c-0.56-2.16-1.13-4.32-1.68-6.49c-0.24-0.97-0.14-1.09,0.8-1.34c0.86-0.23,1.23-0.44,1.56,0.95c0.42,1.79,0.91,3.56,1.37,5.33
		c0.07,0.27,0.14,0.54,0.22,0.81c0.46,1.53,1.65,2.22,3.22,1.88c0.35-0.08,0.7-0.16,1.03-0.3c1.29-0.56,1.84-1.63,1.57-3.01
		c-0.08-0.39-0.19-0.77-0.29-1.16c-0.44-1.74-0.89-3.48-1.32-5.22c-0.24-0.99-0.16-1.09,0.77-1.36c1.13-0.33,1.26-0.26,1.57,0.91
		c0.53,2.05,1.05,4.1,1.57,6.15c0.2,0.78,0.3,1.56,0.09,2.36c-0.26,1.01-0.78,1.83-1.61,2.45C181.4,37.7,179.97,38.15,178.08,38.2z"
		/>
	<path class="st0" d="M285.2,437.47c2.22,0.08,3.78,1.15,4.4,3.39c0.62,2.23,1.17,4.48,1.74,6.73c0.16,0.64,0.06,0.77-0.54,0.98
		c-0.11,0.04-0.23,0.08-0.34,0.11c-1.06,0.29-1.22,0.21-1.51-0.87c-0.48-1.81-0.94-3.63-1.42-5.45c-0.12-0.46-0.26-0.92-0.44-1.36
		c-0.34-0.81-1.01-1.22-1.85-1.34c-0.9-0.12-1.75,0.06-2.53,0.55c-1.06,0.66-1.46,1.52-1.23,2.74c0.08,0.43,0.21,0.85,0.32,1.28
		c0.45,1.74,0.9,3.48,1.33,5.22c0.24,0.96,0.16,1.06-0.82,1.31c-0.19,0.05-0.39,0.1-0.58,0.12c-0.39,0.04-0.61-0.09-0.75-0.44
		c-0.09-0.22-0.15-0.45-0.21-0.68c-0.51-1.97-1.03-3.94-1.53-5.92c-0.15-0.58-0.29-1.17-0.23-1.77c0.14-1.34,0.72-2.43,1.81-3.24
		C282.05,437.92,283.45,437.53,285.2,437.47z"/>
	<path class="st0" d="M428.66,299.6c0.12-1.59,0.76-3.23,2.14-4.53c0.93-0.88,2.04-1.19,3.31-1.05c0.8,0.09,1.56,0.35,2.32,0.58
		c1.61,0.48,3.2,1.01,4.8,1.51c1.22,0.38,1.31,0.51,0.81,1.81c-0.22,0.57-0.42,0.68-1.02,0.51c-1.69-0.47-3.38-0.97-5.07-1.46
		c-0.5-0.15-0.99-0.32-1.49-0.45c-1.31-0.35-2.24,0.03-2.97,1.18c-0.42,0.66-0.61,1.38-0.58,2.16c0.05,1.18,0.59,1.97,1.71,2.35
		c1.06,0.36,2.14,0.67,3.21,0.99c0.99,0.3,1.99,0.6,2.98,0.91c0.27,0.08,0.53,0.18,0.78,0.29c0.2,0.09,0.29,0.27,0.27,0.49
		c-0.05,0.48-0.21,0.93-0.4,1.38c-0.08,0.19-0.26,0.32-0.48,0.28c-0.24-0.04-0.47-0.08-0.7-0.15c-2.03-0.62-4.05-1.24-6.08-1.86
		c-0.15-0.05-0.3-0.1-0.45-0.15C429.74,303.65,428.62,302.02,428.66,299.6z"/>
	<path class="st0" d="M206.77,455.27c-0.33-0.02-0.53-0.03-0.73-0.04c-0.36-0.02-0.59-0.22-0.72-0.54c-0.11-0.26-0.2-0.52-0.29-0.79
		c-1.08-3.26-2.16-6.52-3.24-9.78c-0.03-0.08-0.06-0.15-0.08-0.23c-0.38-1.17-0.27-1.37,1.1-1.23c0.7,0.07,1.2,0.36,1.38,1.1
		c0.14,0.58,0.35,1.14,0.54,1.71c0.15,0.47,0.45,0.69,0.97,0.74c1.23,0.12,2.45,0.28,3.68,0.44c0.58,0.08,1-0.09,1.28-0.63
		c0.28-0.53,0.61-1.03,0.9-1.55c0.28-0.53,0.71-0.71,1.29-0.66c0.4,0.04,0.8,0.03,1.16,0.24c0.16,0.09,0.22,0.24,0.15,0.4
		c-0.11,0.25-0.24,0.5-0.39,0.74c-1.78,2.94-3.56,5.87-5.34,8.81c-0.1,0.17-0.23,0.33-0.32,0.51
		C207.8,455.14,207.33,455.41,206.77,455.27z M207.01,448.27c-0.41,0-0.53,0-0.64,0c-0.53,0.01-0.67,0.15-0.53,0.64
		c0.27,0.95,0.58,1.89,0.88,2.83c0.03,0.1,0.12,0.21,0.22,0.25c0.12,0.06,0.22-0.05,0.28-0.15c0.54-0.92,1.08-1.84,1.61-2.77
		c0.16-0.28,0.07-0.49-0.22-0.53C207.97,448.46,207.36,448.25,207.01,448.27z"/>
	<path class="st0" d="M260.81,33.13c-0.1-0.01-0.3-0.02-0.5-0.04c-0.53-0.06-0.89-0.33-1.05-0.84c-0.19-0.61-0.4-1.21-0.59-1.82
		c-0.18-0.56-0.54-0.83-1.14-0.88c-1.19-0.11-2.38-0.25-3.56-0.42c-0.55-0.08-0.93,0.08-1.2,0.56c-0.29,0.52-0.63,1.02-0.92,1.55
		c-0.3,0.57-0.75,0.79-1.38,0.71c-0.35-0.04-0.72-0.01-1.04-0.21c-0.15-0.09-0.23-0.24-0.18-0.4c0.08-0.22,0.18-0.44,0.3-0.65
		c1.92-3.14,3.84-6.27,5.76-9.41c0.19-0.3,0.35-0.66,0.75-0.72c0.52-0.08,1.04-0.09,1.54,0.1c0.19,0.07,0.33,0.22,0.42,0.41
		c0.08,0.18,0.15,0.37,0.22,0.56c1.13,3.41,2.25,6.83,3.38,10.24c0.03,0.08,0.05,0.15,0.08,0.23
		C261.95,33.02,261.85,33.15,260.81,33.13z M257.71,27.51c-0.32-1.28-0.66-2.42-1.08-3.54c-0.09-0.24-0.3-0.25-0.45-0.02
		c-0.54,0.88-1.08,1.77-1.6,2.67c-0.22,0.39-0.13,0.52,0.36,0.63C255.8,27.45,256.67,27.52,257.71,27.51z"/>
	<path class="st0" d="M34.48,175.69c-0.02,1.24-0.43,2.66-1.34,3.87c-1.12,1.49-2.66,2.12-4.53,1.81c-0.12-0.02-0.23-0.06-0.35-0.09
		c-2.18-0.64-4.37-1.29-6.55-1.93c-0.19-0.06-0.38-0.12-0.56-0.21c-0.23-0.12-0.37-0.3-0.31-0.58c0.03-0.16,0.05-0.32,0.09-0.47
		c0.33-1.09,0.29-1.37,1.63-0.92c1.82,0.6,3.66,1.13,5.5,1.69c0.27,0.08,0.53,0.18,0.81,0.23c1.09,0.23,1.98-0.09,2.63-1
		c0.69-0.97,0.87-2.06,0.64-3.2c-0.15-0.75-0.66-1.28-1.36-1.57c-0.48-0.2-0.98-0.34-1.48-0.49c-1.68-0.52-3.37-1.02-5.04-1.54
		c-1.06-0.33-1.14-0.5-0.79-1.55c0.06-0.19,0.13-0.38,0.22-0.55c0.12-0.23,0.34-0.34,0.6-0.3c0.24,0.04,0.47,0.1,0.7,0.17
		c2.06,0.63,4.12,1.27,6.18,1.9c0.04,0.01,0.08,0.02,0.12,0.03C33.36,171.69,34.47,173.23,34.48,175.69z"/>
	<path class="st0" d="M69.46,108.66c-0.65-0.15-1.32-0.26-1.97-0.46c-0.58-0.18-0.98-0.08-1.34,0.42c-0.7,0.97-1.43,1.92-2.19,2.84
		c-0.48,0.58-0.48,1.13-0.1,1.75c0.31,0.51,0.58,1.05,0.87,1.57c0.16,0.3,0.21,0.62-0.03,0.89c-0.38,0.43-0.55,1.22-1.22,1.17
		c-0.53-0.04-0.62-0.76-0.86-1.21c-1.6-3.03-3.18-6.08-4.77-9.12c-0.55-1.04-0.52-1.12,0.18-2.02c0.37-0.48,0.79-0.61,1.35-0.48
		c0.82,0.18,1.64,0.35,2.45,0.53c2.76,0.62,5.52,1.24,8.28,1.87c1.37,0.31,1.41,0.44,0.51,1.56c-0.1,0.12-0.19,0.25-0.3,0.37
		C70.02,108.66,69.87,108.71,69.46,108.66z M62.34,110.08c0.1-0.04,0.19-0.05,0.24-0.11c0.52-0.65,1.04-1.3,1.53-1.97
		c0.24-0.32,0.12-0.58-0.3-0.69c-0.77-0.19-1.54-0.37-2.31-0.55c-0.23-0.05-0.46-0.11-0.69-0.14c-0.15-0.02-0.3,0.16-0.27,0.31
		c0.02,0.08,0.03,0.16,0.07,0.23c0.49,0.91,0.98,1.81,1.48,2.71C62.14,109.96,62.27,110.02,62.34,110.08z"/>
	<path class="st0" d="M404.19,371.48c-0.14-0.02-0.38-0.06-0.61-0.11c-3.47-0.77-6.94-1.52-10.4-2.31
		c-1.22-0.28-1.53-0.35-0.55-1.58c0.45-0.56,0.93-0.81,1.66-0.57c0.6,0.2,1.24,0.29,1.86,0.44c0.31,0.08,0.55,0,0.74-0.24
		c0.9-1.17,1.8-2.34,2.7-3.52c0.19-0.24,0.21-0.51,0.06-0.79c-0.36-0.67-0.7-1.35-1.08-2c-0.25-0.44-0.22-0.82,0.09-1.21
		c1.01-1.29,1.1-1.45,1.92,0.14c1.39,2.7,2.82,5.37,4.23,8.06c0.2,0.39,0.41,0.78,0.61,1.17c0.52,1.03,0.41,1.51-0.48,2.28
		C404.75,371.42,404.53,371.48,404.19,371.48z M402.53,368.9c-0.03,0,0.12,0.02,0.17-0.1c0.04-0.09,0.05-0.24,0-0.33
		c-0.48-0.92-0.97-1.83-1.47-2.73c-0.21-0.38-0.44-0.38-0.74-0.01c-0.45,0.55-0.89,1.12-1.31,1.7c-0.3,0.4-0.21,0.62,0.31,0.75
		C400.45,368.41,401.42,368.63,402.53,368.9z"/>
	<path class="st0" d="M45.07,349.9c-0.24,0.03-0.48,0.04-0.71,0.1c-0.56,0.13-0.92-0.1-1.19-0.57c-0.1-0.17-0.21-0.34-0.31-0.51
		c-0.23-0.38-0.25-0.75,0.01-1.12c0.11-0.16,0.22-0.33,0.33-0.5c1.99-2.89,3.99-5.79,5.98-8.68c0.18-0.26,0.37-0.52,0.58-0.76
		c0.18-0.21,0.44-0.18,0.61,0.04c0.12,0.16,0.23,0.33,0.33,0.5c0.7,1.14,0.7,1.15-0.06,2.23c-0.3,0.42-0.59,0.85-0.9,1.27
		c-0.24,0.32-0.28,0.64-0.06,1c0.72,1.2,1.43,2.4,2.14,3.6c0.2,0.35,0.47,0.51,0.89,0.44c0.67-0.11,1.35-0.05,2.02-0.22
		c0.53-0.14,0.94,0.07,1.2,0.55c0.22,0.41,0.72,0.81,0.53,1.27c-0.2,0.51-0.83,0.34-1.29,0.39c-1.31,0.14-2.62,0.27-3.92,0.41
		c-0.91,0.1-1.83,0.13-2.74,0.27c-1.14,0.16-2.3,0.22-3.45,0.32C45.07,349.92,45.07,349.91,45.07,349.9z M45.93,347.76
		c1.19-0.14,2.34-0.28,3.48-0.42c0.3-0.04,0.42-0.25,0.27-0.51c-0.37-0.66-0.74-1.32-1.14-1.97c-0.28-0.45-0.51-0.48-0.81-0.07
		c-0.64,0.86-1.26,1.75-1.88,2.62c-0.02,0.03-0.04,0.07-0.04,0.11C45.79,347.65,45.84,347.74,45.93,347.76z"/>
	<path class="st0" d="M418.37,126.09c0.16-0.01,0.32,0,0.48-0.03c0.55-0.12,0.9,0.11,1.19,0.57c0.61,0.98,0.63,1.08-0.02,2.03
		c-1.77,2.57-3.55,5.13-5.32,7.69c-0.41,0.59-0.8,1.2-1.22,1.78c-0.2,0.28-0.5,0.26-0.7,0c-0.07-0.09-0.15-0.19-0.2-0.29
		c-0.82-1.54-0.89-1.25,0.08-2.65c1.32-1.9,1.27-1.24,0.09-3.3c-0.42-0.73-0.86-1.44-1.27-2.18c-0.27-0.48-0.65-0.65-1.19-0.62
		c-0.6,0.04-1.2,0.07-1.78,0.2c-0.58,0.12-1.02-0.07-1.3-0.6c-0.2-0.38-0.65-0.76-0.48-1.18c0.21-0.5,0.81-0.4,1.27-0.45
		c1.43-0.15,2.86-0.29,4.29-0.44c0.79-0.08,1.59-0.11,2.39-0.22c1.22-0.17,2.46-0.23,3.7-0.33
		C418.37,126.08,418.37,126.09,418.37,126.09z M416.22,128.39c-0.78,0.09-1.65,0.18-2.51,0.28c-0.28,0.03-0.39,0.25-0.24,0.52
		c0.39,0.69,0.8,1.37,1.22,2.04c0.23,0.36,0.48,0.36,0.75,0.02c0.22-0.28,0.43-0.57,0.64-0.86c0.35-0.48,0.7-0.96,1.02-1.46
		c0.2-0.3,0.05-0.52-0.32-0.54C416.62,128.38,416.46,128.39,416.22,128.39z"/>
	<path class="st0" d="M39.17,327.66c1.56,0,3.11,0,4.67,0c0.28,0,0.56,0.01,0.84,0.01c0.36,0.01,0.6,0.19,0.77,0.49
		c0.1,0.17,0.18,0.36,0.28,0.53c0.28,0.47,0.22,0.9-0.13,1.32c-0.74,0.89-1.46,1.79-2.19,2.69c-1.48,1.83-2.96,3.66-4.45,5.49
		c-0.25,0.31-0.51,0.62-0.78,0.91c-0.38,0.41-0.61,0.37-0.92-0.14c-0.06-0.1-0.12-0.21-0.17-0.32c-0.65-1.36-0.65-1.19,0.27-2.29
		c1.62-1.92,3.22-3.86,4.83-5.79c0.1-0.12,0.2-0.25,0.28-0.39c0.12-0.19-0.01-0.4-0.25-0.4c-0.28-0.01-0.56-0.03-0.84,0.01
		c-1.47,0.23-2.95,0.16-4.42,0.2c-0.96,0.02-1.92-0.03-2.87,0.14c-0.16,0.03-0.32,0.02-0.48,0.02c-0.39,0-0.71-0.14-0.89-0.49
		c-0.19-0.35-0.37-0.71-0.52-1.07c-0.17-0.41-0.05-0.61,0.38-0.67c0.59-0.08,1.19-0.16,1.79-0.17c1.6-0.02,3.19-0.01,4.79-0.01
		C39.17,327.71,39.17,327.69,39.17,327.66z"/>
	<path class="st0" d="M422.7,146.24c0.77,0.04,1.65-0.1,2.52-0.15c1.36-0.07,2.72-0.03,4.07-0.09c0.71-0.03,1.1,0.27,1.4,0.88
		c0.57,1.18,0.47,1.4-0.8,1.42c-1.24,0.02-2.48,0.03-3.72,0.02c-2-0.02-3.99,0.05-5.99,0.18c-0.32,0.02-0.64,0.02-0.96,0.02
		c-1.19,0-1.61-0.34-1.93-1.52c-0.07-0.25-0.04-0.48,0.11-0.68c0.19-0.26,0.38-0.51,0.59-0.76c2.27-2.79,4.55-5.57,6.82-8.36
		c0.13-0.15,0.26-0.3,0.41-0.43c0.13-0.12,0.32-0.13,0.43,0c0.45,0.52,0.69,1.16,0.88,1.81c0.08,0.25-0.07,0.47-0.23,0.66
		c-0.43,0.53-0.87,1.05-1.31,1.56c-1.35,1.58-2.69,3.16-4.04,4.75c-0.08,0.09-0.15,0.19-0.22,0.28c-0.07,0.1-0.14,0.21-0.04,0.32
		c0.05,0.05,0.14,0.08,0.21,0.09C421.47,146.25,422.03,146.24,422.7,146.24z"/>
	<path class="st0" d="M264.6,454.3c-0.64,0.02-0.72-0.04-0.87-0.63c-0.03-0.12-0.06-0.23-0.08-0.35c-0.14-0.75-0.02-0.95,0.7-1.1
		c0.94-0.19,1.88-0.36,2.82-0.55c0.69-0.14,0.8-0.28,0.69-0.98c-0.26-1.61-0.56-3.22-0.84-4.83c-0.18-1.02-0.36-2.04-0.53-3.07
		c-0.03-0.16-0.04-0.32-0.04-0.48c0-0.31,0.11-0.54,0.43-0.64c0.23-0.07,0.46-0.15,0.69-0.19c0.82-0.16,1.1,0.01,1.27,0.83
		c0.22,1.05,0.38,2.12,0.57,3.18c0.25,1.45,0.5,2.91,0.75,4.36c0.02,0.12,0.03,0.24,0.06,0.35c0.17,0.7,0.41,0.87,1.1,0.75
		c0.94-0.16,1.88-0.34,2.83-0.49c0.61-0.09,0.79,0.04,0.92,0.63c0.06,0.27,0.09,0.55,0.09,0.83c0,0.32-0.18,0.52-0.48,0.6
		c-0.19,0.05-0.39,0.08-0.59,0.11c-2.98,0.54-5.96,1.07-8.95,1.6C264.94,454.29,264.74,454.29,264.6,454.3z"/>
	<path class="st0" d="M62.59,357.37c-0.05,0.11-0.08,0.24-0.16,0.31c-0.24,0.21-0.5,0.4-0.76,0.58c-1.99,1.4-3.98,2.8-5.98,4.2
		c-0.2,0.14-0.4,0.27-0.58,0.42c-0.29,0.23-0.33,0.43-0.15,0.72c0.22,0.33,0.46,0.65,0.69,0.98c0.43,0.62,0.87,1.24,1.29,1.87
		c0.23,0.35,0.19,0.57-0.12,0.84c-0.12,0.1-0.25,0.2-0.38,0.29c-0.8,0.55-0.95,0.54-1.53-0.28c-1.82-2.58-3.63-5.16-5.44-7.74
		c-0.09-0.13-0.18-0.26-0.26-0.4c-0.16-0.29-0.12-0.5,0.15-0.74c0.09-0.08,0.18-0.15,0.28-0.22c0.88-0.64,1.05-0.62,1.71,0.3
		c0.54,0.74,1.05,1.5,1.59,2.25c0.3,0.42,0.45,0.44,0.89,0.13c1.44-1,2.87-2.02,4.31-3.03c0.88-0.62,1.76-1.24,2.66-1.84
		c0.47-0.31,0.69-0.27,1.03,0.15c0.23,0.28,0.42,0.58,0.61,0.88C62.53,357.12,62.55,357.24,62.59,357.37z"/>
	<path class="st0" d="M408.35,112.81c-0.09-0.17-0.15-0.36-0.26-0.52c-0.5-0.73-1-1.44-1.51-2.16c-0.14-0.2-0.28-0.39-0.4-0.6
		c-0.14-0.23-0.11-0.46,0.09-0.65c0.09-0.08,0.18-0.15,0.28-0.23c0.96-0.71,1.13-0.69,1.81,0.27c1.04,1.47,2.07,2.94,3.1,4.41
		c0.66,0.95,1.33,1.9,1.99,2.85c0.18,0.26,0.35,0.53,0.51,0.81c0.14,0.24,0.07,0.46-0.11,0.65c-0.95,0.97-1.33,0.94-2.12-0.17
		c-0.44-0.62-0.87-1.25-1.31-1.86c-0.51-0.7-0.61-0.72-1.35-0.2c-1.84,1.28-3.66,2.57-5.5,3.85c-0.46,0.32-0.92,0.64-1.39,0.94
		c-0.29,0.18-0.53,0.14-0.74-0.12c-0.25-0.31-0.48-0.64-0.69-0.98c-0.2-0.34-0.16-0.57,0.18-0.83c0.44-0.35,0.9-0.67,1.35-0.99
		c1.73-1.22,3.47-2.43,5.2-3.64c0.23-0.16,0.46-0.32,0.67-0.5C408.23,113.06,408.27,112.94,408.35,112.81z"/>
	<path class="st0" d="M198.65,21.48c0.71,0,0.86,0.12,1.01,0.66c0.05,0.19,0.1,0.39,0.11,0.59c0.04,0.44-0.12,0.69-0.55,0.78
		c-0.86,0.18-1.72,0.33-2.58,0.49c-0.16,0.03-0.32,0.03-0.47,0.07c-0.48,0.12-0.69,0.35-0.64,0.86c0.06,0.67,0.18,1.34,0.3,2.01
		c0.34,1.96,0.69,3.93,1.04,5.89c0.03,0.16,0.05,0.32,0.06,0.47c0.02,0.47-0.1,0.67-0.55,0.79c-1.56,0.41-1.66,0.32-1.92-1.15
		c-0.42-2.31-0.81-4.64-1.21-6.95c-0.01-0.08-0.02-0.16-0.03-0.24c-0.17-0.93-0.39-1.09-1.29-0.95c-0.59,0.1-1.17,0.22-1.76,0.32
		c-0.39,0.06-0.79,0.1-1.19,0.13c-0.27,0.02-0.46-0.1-0.55-0.36c-0.05-0.15-0.1-0.3-0.14-0.46c-0.15-0.71-0.12-1.15,0.88-1.31
		c2.71-0.43,5.42-0.93,8.13-1.41C197.8,21.62,198.31,21.54,198.65,21.48z"/>
	<path class="st0" d="M18.82,209.75c-0.51-0.5-0.99-0.97-1.47-1.44c-0.6-0.59-1.19-1.18-1.8-1.76c-0.41-0.39-0.62-0.81-0.47-1.39
		c0.11-0.42,0.14-0.86,0.23-1.29c0.04-0.19,0.34-0.28,0.49-0.16c0.25,0.2,0.49,0.41,0.72,0.63c1.34,1.32,2.68,2.63,3.99,3.97
		c0.5,0.51,1.02,0.8,1.76,0.85c1.23,0.08,2.45,0.3,3.67,0.47c0.52,0.07,0.66,0.25,0.65,0.81c0,0.16-0.01,0.32-0.03,0.48
		c-0.09,0.91-0.21,1.06-1.1,0.99c-1.03-0.08-2.07-0.2-3.08-0.38c-0.95-0.17-1.79-0.05-2.62,0.47c-1.46,0.9-2.96,1.73-4.45,2.58
		c-0.34,0.2-0.67,0.44-1.08,0.5c-0.19,0.03-0.34-0.09-0.34-0.25c0-0.68,0.06-1.35,0.23-2.01c0.09-0.33,0.37-0.5,0.66-0.66
		c0.98-0.54,1.96-1.08,2.93-1.63C18.07,210.31,18.47,210.13,18.82,209.75z"/>
	<path class="st0" d="M147.23,439.12c0.02,0.43-0.17,0.62-0.44,0.55c-0.66-0.18-1.27-0.48-1.84-0.84c-0.28-0.18-0.36-0.51-0.43-0.83
		c-0.24-1.09-0.47-2.18-0.72-3.27c-0.06-0.27-0.12-0.54-0.21-0.81c-0.09-0.29-0.28-0.36-0.56-0.21c-1.01,0.56-2.01,1.14-3.03,1.69
		c-1.37,0.74-1.07,0.79-2.76,0.05c-0.18-0.08-0.35-0.19-0.5-0.31c-0.15-0.12-0.14-0.31,0.01-0.41c0.4-0.27,0.8-0.52,1.22-0.75
		c1.47-0.8,2.94-1.62,4.43-2.37c0.72-0.36,1.19-0.87,1.49-1.62c0.45-1.11,0.95-2.2,1.46-3.28c0.27-0.57,0.47-0.62,1.05-0.4
		c0.07,0.03,0.15,0.06,0.22,0.09c1.17,0.51,1.21,0.6,0.68,1.77c-0.41,0.91-0.79,1.83-1.24,2.72c-0.35,0.71-0.44,1.4-0.24,2.19
		c0.45,1.74,0.82,3.49,1.22,5.24C147.13,438.64,147.19,438.95,147.23,439.12z"/>
	<path class="st0" d="M317.7,43.59c-0.09-0.39-0.17-0.78-0.26-1.17c-0.38-1.67-0.77-3.34-1.15-5.01c-0.05-0.23-0.11-0.47-0.13-0.7
		c-0.04-0.35,0.2-0.58,0.49-0.46c0.55,0.22,1.1,0.47,1.64,0.73c0.35,0.17,0.48,0.51,0.56,0.87c0.23,1.09,0.47,2.18,0.71,3.27
		c0.04,0.19,0.07,0.39,0.13,0.58c0.16,0.55,0.37,0.65,0.87,0.38c1.05-0.57,2.11-1.13,3.13-1.76c0.64-0.39,1.24-0.48,1.9-0.09
		c0.27,0.16,0.58,0.26,0.87,0.4c0.38,0.19,0.39,0.49-0.01,0.71c-1.15,0.65-2.31,1.27-3.46,1.9c-0.74,0.4-1.47,0.81-2.21,1.19
		c-0.56,0.29-0.94,0.71-1.19,1.28c-0.43,0.99-0.89,1.96-1.33,2.94c-0.12,0.25-0.23,0.51-0.38,0.75c-0.16,0.28-0.41,0.38-0.71,0.25
		c-0.4-0.17-0.8-0.36-1.18-0.57c-0.23-0.13-0.3-0.37-0.2-0.62c0.22-0.55,0.45-1.11,0.69-1.65c0.35-0.8,0.72-1.6,1.08-2.4
		C317.65,44.14,317.76,43.88,317.7,43.59z"/>
	<path class="st0" d="M449.17,261.08c-0.03,0.32-0.04,0.52-0.06,0.71c-0.06,0.73-0.37,1.26-1.06,1.6c-0.93,0.46-1.82,1-2.73,1.51
		c-0.24,0.14-0.48,0.29-0.7,0.46c-0.18,0.14-0.22,0.35-0.07,0.53c0.2,0.25,0.42,0.48,0.65,0.7c0.77,0.76,1.53,1.52,2.32,2.26
		c0.38,0.36,0.57,0.74,0.47,1.28c-0.08,0.43-0.1,0.87-0.18,1.3c-0.05,0.26-0.36,0.37-0.56,0.19c-0.68-0.61-1.36-1.23-2.02-1.87
		c-0.86-0.83-1.74-1.66-2.55-2.54c-0.58-0.63-1.28-0.93-2.09-1.03c-0.87-0.11-1.75-0.19-2.62-0.3c-0.32-0.04-0.63-0.09-0.94-0.18
		c-0.49-0.13-0.58-0.26-0.56-0.76c0-0.08,0.02-0.16,0.02-0.24c0.11-1.28,0.2-1.35,1.45-1.18c1.23,0.16,2.46,0.29,3.68,0.47
		c0.44,0.06,0.78-0.11,1.12-0.31c1.49-0.86,2.98-1.72,4.47-2.57c0.45-0.26,0.9-0.51,1.37-0.74c0.33-0.16,0.56-0.02,0.57,0.33
		C449.18,260.88,449.17,261.04,449.17,261.08z"/>
	<path class="st0" d="M329.95,432.89c0.05,0.32-0.05,0.45-0.18,0.55c-0.16,0.12-0.33,0.22-0.51,0.31c-1.11,0.58-1.25,0.53-1.8-0.61
		c-1.11-2.3-2.22-4.6-3.33-6.9c-0.09-0.18-0.18-0.35-0.3-0.52c-0.1-0.14-0.26-0.2-0.42-0.14c-0.3,0.11-0.59,0.24-0.88,0.38
		c-1.41,0.67-2.81,1.34-4.21,2.02c-0.97,0.47-1.17,0.52-1.68-0.68c-0.23-0.55-0.16-0.76,0.41-1.05c0.96-0.49,1.93-0.96,2.9-1.43
		c1.29-0.62,2.59-1.24,3.89-1.86c0.22-0.1,0.44-0.2,0.66-0.28c0.26-0.09,0.48-0.02,0.62,0.22c0.15,0.24,0.28,0.48,0.4,0.74
		c1.37,2.84,2.75,5.68,4.12,8.52C329.77,432.43,329.88,432.73,329.95,432.89z"/>
	<path class="st0" d="M67.55,93.31c0.1,0.06,0.25,0.12,0.37,0.21c0.34,0.28,0.67,0.57,0.99,0.87c1.48,1.34,2.96,2.68,4.44,4.02
		c0.39,0.35,0.78,0.68,1.19,1.01c0.22,0.18,0.45,0.15,0.64-0.05c0.3-0.32,0.6-0.64,0.89-0.97c0.93-1.05,1.85-2.1,2.77-3.14
		c0.16-0.18,0.33-0.35,0.51-0.51c0.25-0.22,0.47-0.22,0.76-0.01c0.16,0.12,0.31,0.25,0.46,0.39c0.63,0.58,0.64,0.71,0.05,1.36
		c-1.64,1.85-3.3,3.69-4.94,5.54c-0.11,0.12-0.21,0.24-0.33,0.35c-0.35,0.33-0.58,0.36-0.94,0.07c-0.53-0.42-1.06-0.85-1.56-1.31
		c-2.07-1.87-4.14-3.75-6.21-5.63c-0.15-0.13-0.28-0.28-0.41-0.43c-0.11-0.13-0.14-0.3-0.06-0.45c0.28-0.49,0.66-0.9,1.11-1.24
		C67.33,93.33,67.43,93.34,67.55,93.31z"/>
	<path class="st0" d="M388.38,376.1c-0.09,0.05-0.25,0.09-0.36,0.2c-0.43,0.42-0.85,0.84-1.25,1.29c-0.86,0.95-1.69,1.91-2.55,2.86
		c-0.55,0.62-0.73,0.62-1.37,0.04c-0.15-0.13-0.29-0.27-0.42-0.42c-0.23-0.27-0.25-0.46-0.04-0.75c0.14-0.2,0.29-0.38,0.45-0.56
		c1.6-1.78,3.2-3.56,4.81-5.33c0.68-0.75,0.84-0.77,1.55-0.09c2.13,2.05,4.44,3.89,6.62,5.88c0.29,0.27,0.6,0.53,0.88,0.81
		c0.59,0.58,0.59,0.73,0.03,1.39c-0.08,0.09-0.16,0.18-0.24,0.27c-0.58,0.6-0.72,0.63-1.38,0.05c-1.27-1.1-2.51-2.23-3.76-3.33
		c-0.75-0.66-1.5-1.31-2.26-1.96C388.89,376.28,388.7,376.14,388.38,376.1z"/>
	<path class="st0" d="M146.85,48.78c-0.01,0.23-0.12,0.35-0.26,0.43c-0.24,0.14-0.49,0.27-0.74,0.39c-2.09,1.01-4.18,2.01-6.27,3.01
		c-0.18,0.09-0.36,0.17-0.55,0.24c-0.45,0.17-0.65,0.11-0.9-0.29c-0.13-0.2-0.23-0.42-0.33-0.64c-1.34-2.81-2.69-5.62-4.03-8.43
		c-0.57-1.2-0.53-1.31,0.72-1.84c0.15-0.06,0.3-0.12,0.45-0.16c0.21-0.05,0.41,0.02,0.52,0.2c0.19,0.31,0.36,0.62,0.52,0.94
		c1.06,2.19,2.11,4.39,3.17,6.59c0.48,0.99,0.49,0.99,1.51,0.5c1.41-0.67,2.81-1.35,4.21-2.02c0.25-0.12,0.51-0.24,0.77-0.34
		c0.33-0.12,0.53-0.05,0.71,0.25C146.59,48,146.82,48.38,146.85,48.78z"/>
	<path class="st0" d="M443.8,234.32c1.45-0.09,2.89,1.34,2.89,3.04c0,1.67-1.44,3.11-3.02,3.09c-1.59-0.02-3.03-1.53-2.94-3.15
		C440.84,235.4,442.3,234.18,443.8,234.32z"/>
	<path class="st0" d="M218.97,454.68c0.32-2.09,0.08-4.22,0.35-6.32c0.12-0.91,0.05-1.83,0.1-2.75c0.06-1.19,0.27-1.37,1.47-1.27
		c0.08,0.01,0.16,0.01,0.24,0.02c0.52,0.08,0.73,0.27,0.74,0.77c0.01,0.6-0.03,1.19-0.07,1.79c-0.02,0.32-0.08,0.63-0.09,0.95
		c-0.1,2.27-0.19,4.54-0.29,6.81c-0.01,0.2-0.01,0.4-0.02,0.6c-0.08,1.05-0.26,1.2-1.35,1.15c-0.2-0.01-0.4-0.03-0.59-0.07
		c-0.25-0.06-0.44-0.23-0.46-0.49C218.95,455.48,218.97,455.08,218.97,454.68z"/>
	<path class="st0" d="M19.36,235.03c1.87-0.1,2.94,1.74,2.91,3.14c-0.03,1.39-1.21,3.01-3.01,2.97c-1.79-0.04-2.94-1.65-2.9-3.07
		C16.4,236.28,17.61,235.01,19.36,235.03z"/>
	<path class="st0" d="M244.44,21.42c-0.36,1.89-0.12,4.06-0.4,6.2c-0.1,0.75-0.05,1.51-0.08,2.27c-0.01,0.32-0.03,0.64-0.09,0.95
		c-0.07,0.38-0.27,0.56-0.65,0.58c-1.78,0.09-1.86-0.2-1.7-1.59c0.22-2.02,0.1-4.06,0.36-6.08c0.1-0.79,0.05-1.59,0.08-2.39
		c0.01-0.36,0.01-0.72,0.06-1.07c0.1-0.8,0.28-0.96,1.06-0.96c1.31-0.01,1.4,0.27,1.36,1.38C244.44,20.86,244.44,21.02,244.44,21.42
		z"/>
	<path class="st0" d="M382.87,386.85c-0.04,0.11-0.06,0.25-0.13,0.33c-0.86,1-1.8,1.92-2.79,2.79c-0.24,0.22-0.47,0.18-0.76-0.03
		c-0.09-0.07-0.18-0.15-0.27-0.24c-0.8-0.76-0.81-0.93-0.03-1.73c0.67-0.68,1.35-1.36,2.04-2.02c0.54-0.51,0.75-0.49,1.31,0.04
		c0.17,0.16,0.33,0.35,0.48,0.53C382.79,386.62,382.82,386.74,382.87,386.85z"/>
	<path class="st0" d="M84.98,86.66c-0.05,0.11-0.08,0.24-0.16,0.32c-0.93,0.93-1.86,1.86-2.81,2.77c-0.19,0.19-0.44,0.19-0.65,0.01
		c-0.24-0.21-0.48-0.42-0.69-0.66c-0.38-0.41-0.39-0.59,0.02-1.01c0.81-0.83,1.63-1.64,2.47-2.44c0.4-0.38,0.63-0.37,1.04-0.02
		c0.24,0.21,0.45,0.45,0.65,0.69C84.93,86.41,84.94,86.54,84.98,86.66z"/>
</g>
</svg>
