<?xml version="1.0" encoding="UTF-8"?><svg id="Layer_2" xmlns="http://www.w3.org/2000/svg" viewBox="0 0 285.43 87.8"><defs><style>.cls-1{fill:#fab72d;}.cls-2{fill:#004053;}.cls-3{fill:#67c2cc;}.cls-4{fill:#ea5c5f;}</style></defs><g id="Layer_1-2"><g><g><path class="cls-2" d="M94.96,74.04c-.1-.1-.15-.22-.15-.35v-13.11c0-.15,.05-.27,.15-.36,.1-.09,.22-.14,.35-.14h2.7c.15,0,.27,.05,.37,.14,.1,.09,.15,.22,.15,.36v13.11c0,.15-.05,.27-.15,.36s-.23,.14-.37,.14h-2.7c-.14,0-.25-.05-.35-.15Z"/><path class="cls-2" d="M101.63,73.2c-.9-.79-1.39-1.91-1.47-3.35-.01-.17-.02-.48-.02-.91s0-.73,.02-.91c.08-1.43,.59-2.54,1.51-3.34,.93-.8,2.2-1.2,3.81-1.2s2.9,.4,3.83,1.2,1.43,1.91,1.51,3.34c.01,.18,.02,.48,.02,.91s0,.73-.02,.91c-.08,1.44-.57,2.56-1.47,3.35-.9,.79-2.19,1.19-3.87,1.19s-2.95-.4-3.85-1.19Zm5.16-1.81c.28-.36,.44-.9,.48-1.64,.01-.13,.02-.4,.02-.81s0-.67-.02-.81c-.04-.73-.2-1.27-.49-1.63-.29-.36-.72-.54-1.3-.54-1.12,0-1.71,.73-1.78,2.18l-.02,.81,.02,.81c.03,.74,.18,1.29,.47,1.64,.29,.36,.72,.53,1.3,.53s1.03-.18,1.31-.53Z"/><path class="cls-2" d="M113.94,74.04c-.1-.1-.15-.22-.15-.35v-10.45h-3.59c-.13,0-.25-.05-.35-.15s-.15-.22-.15-.35v-2.16c0-.15,.05-.27,.15-.36,.1-.09,.22-.14,.35-.14h10.85c.15,0,.27,.05,.36,.14,.09,.09,.14,.22,.14,.36v2.16c0,.15-.05,.27-.14,.36-.09,.09-.22,.14-.36,.14h-3.59v10.45c0,.13-.05,.25-.14,.35s-.22,.15-.36,.15h-2.66c-.13,0-.25-.05-.35-.15Z"/><path class="cls-2" d="M126.88,73.28c-.93-.74-1.39-1.75-1.39-3.03,0-.82,.23-1.54,.71-2.16,.47-.62,1.14-1.18,2.02-1.67-.51-.55-.88-1.07-1.1-1.54s-.33-.96-.33-1.46c0-.65,.17-1.24,.5-1.77s.83-.97,1.49-1.29,1.45-.48,2.38-.48c.86,0,1.61,.16,2.25,.47,.64,.32,1.12,.74,1.45,1.27,.33,.53,.49,1.11,.49,1.74,0,.78-.24,1.45-.71,2.01-.47,.56-1.17,1.11-2.1,1.64l2.4,2.4c.21-.35,.4-.69,.55-1.02s.31-.76,.47-1.3c.05-.19,.2-.28,.42-.28h2.04c.11,0,.2,.04,.28,.11,.08,.07,.12,.17,.12,.27-.01,.47-.23,1.11-.66,1.92-.42,.81-.89,1.52-1.4,2.14l2.26,2.28c.09,.12,.14,.22,.14,.3,0,.11-.04,.2-.11,.26s-.16,.1-.27,.1h-2.74c-.22,0-.39-.07-.52-.2l-.91-.87c-1.04,.85-2.36,1.27-3.97,1.27s-2.84-.37-3.77-1.11Zm5.85-2.2l-2.68-2.68c-.89,.47-1.33,1.04-1.33,1.71,0,.51,.2,.92,.59,1.24,.39,.32,.84,.47,1.35,.47,.83,0,1.53-.25,2.08-.75Zm-.68-6.72c.28-.26,.41-.56,.41-.91s-.12-.66-.37-.88c-.25-.22-.56-.33-.94-.33-.35,0-.66,.11-.92,.34s-.39,.52-.39,.89c0,.24,.08,.49,.23,.76s.41,.57,.76,.92c.54-.27,.94-.53,1.22-.79Z"/><path class="cls-2" d="M146,73.84c-.86-.38-1.52-.9-1.97-1.54-.45-.65-.69-1.34-.72-2.1,0-.12,.04-.22,.12-.3s.18-.12,.3-.12h2.7c.31,0,.52,.13,.65,.38,.36,.9,1.04,1.35,2.04,1.35,.59,0,1.09-.18,1.5-.56,.41-.37,.62-.88,.62-1.54,0-.59-.2-1.08-.59-1.45-.4-.38-.9-.56-1.52-.56-.35,0-.63,.04-.84,.13s-.42,.21-.64,.37c-.23,.18-.41,.26-.54,.26h-2.64c-.12,0-.23-.04-.31-.13s-.13-.19-.13-.31l.73-7.04c.01-.19,.08-.34,.21-.44,.13-.11,.28-.16,.45-.16h8.09c.15,0,.27,.05,.37,.14,.1,.09,.15,.22,.15,.36v1.9c0,.15-.05,.27-.15,.36s-.23,.14-.37,.14h-5.85l-.26,2.6c.34-.23,.71-.4,1.11-.51s.93-.17,1.57-.17c.85,0,1.65,.19,2.4,.57,.75,.38,1.35,.92,1.81,1.62s.68,1.5,.68,2.4c0,.95-.24,1.81-.71,2.55s-1.15,1.33-2.03,1.74c-.88,.42-1.92,.63-3.12,.63s-2.25-.19-3.11-.57Z"/><path class="cls-2" d="M157.78,72.97c-1.09-.95-1.67-2.3-1.73-4.04-.01-.39-.02-1.01-.02-1.86s0-1.47,.02-1.86c.07-1.71,.66-3.03,1.76-3.95s2.61-1.39,4.51-1.39c1.28,0,2.39,.21,3.34,.63,.95,.42,1.67,.95,2.18,1.59s.77,1.31,.8,2c0,.12-.04,.22-.13,.3s-.19,.12-.31,.12h-2.94c-.13,0-.24-.02-.32-.06s-.15-.11-.2-.22c-.17-.39-.45-.73-.83-1.02s-.9-.43-1.57-.43c-1.6,0-2.44,.85-2.52,2.54-.01,.38-.02,.96-.02,1.76s0,1.36,.02,1.75c.08,1.78,.94,2.66,2.58,2.66,.79,0,1.43-.2,1.91-.62,.48-.41,.72-1.04,.72-1.89v-.38h-1.9c-.15,0-.27-.05-.36-.15s-.14-.23-.14-.37v-1.49c0-.15,.05-.27,.14-.37s.22-.15,.36-.15h5.08c.15,0,.27,.05,.36,.15s.14,.23,.14,.37v2.3c0,1.14-.26,2.13-.79,2.96s-1.27,1.46-2.23,1.9-2.08,.66-3.36,.66c-1.94,0-3.45-.47-4.54-1.42Z"/><path class="cls-2" d="M172.5,74.06c-.09-.09-.13-.19-.13-.29,0-.08,0-.14,.02-.18l4.74-12.95c.04-.16,.13-.3,.26-.4,.13-.11,.31-.16,.52-.16h2.99c.22,0,.39,.05,.52,.16,.13,.11,.22,.24,.26,.4l4.72,12.95,.04,.18c0,.11-.04,.21-.13,.29s-.19,.13-.31,.13h-2.48c-.32,0-.54-.14-.65-.42l-.79-2.06h-5.39l-.77,2.06c-.11,.28-.33,.42-.67,.42h-2.48c-.11,0-.21-.04-.29-.13Zm8.78-5.26l-1.88-5.33-1.88,5.33h3.75Z"/><path class="cls-2" d="M188.2,73.17c-.94-.81-1.45-1.95-1.51-3.4l-.02-.81,.02-.83c.05-1.45,.55-2.59,1.5-3.41,.95-.82,2.18-1.23,3.7-1.23,1.14,0,2.11,.21,2.89,.62,.79,.41,1.37,.9,1.75,1.47,.38,.57,.59,1.09,.62,1.56,.01,.13-.03,.25-.13,.35s-.23,.15-.37,.15h-2.56c-.15,0-.26-.03-.34-.1-.08-.07-.15-.17-.22-.3-.16-.42-.37-.71-.62-.89s-.57-.26-.96-.26c-1.1,0-1.67,.71-1.71,2.14l-.02,.77,.02,.67c.03,.73,.18,1.26,.47,1.6s.7,.51,1.24,.51c.42,0,.75-.09,.99-.26s.44-.47,.59-.89c.07-.13,.14-.24,.22-.3s.2-.1,.34-.1h2.56c.13,0,.25,.04,.35,.13,.1,.09,.15,.2,.15,.33,0,.43-.18,.93-.55,1.51-.37,.58-.95,1.09-1.74,1.52s-1.78,.66-2.97,.66c-1.52,0-2.75-.41-3.69-1.22Z"/><path class="cls-2" d="M199.5,73.17c-.94-.81-1.45-1.95-1.51-3.4l-.02-.81,.02-.83c.05-1.45,.55-2.59,1.5-3.41,.95-.82,2.18-1.23,3.7-1.23,1.14,0,2.11,.21,2.89,.62,.79,.41,1.37,.9,1.75,1.47,.38,.57,.59,1.09,.62,1.56,.01,.13-.03,.25-.13,.35s-.23,.15-.37,.15h-2.56c-.15,0-.26-.03-.34-.1-.08-.07-.15-.17-.22-.3-.16-.42-.37-.71-.62-.89s-.57-.26-.96-.26c-1.1,0-1.67,.71-1.71,2.14l-.02,.77,.02,.67c.03,.73,.18,1.26,.47,1.6s.7,.51,1.24,.51c.42,0,.75-.09,.99-.26s.44-.47,.59-.89c.07-.13,.14-.24,.22-.3s.2-.1,.34-.1h2.56c.13,0,.25,.04,.35,.13,.1,.09,.15,.2,.15,.33,0,.43-.18,.93-.55,1.51-.37,.58-.95,1.09-1.74,1.52s-1.78,.66-2.97,.66c-1.52,0-2.75-.41-3.69-1.22Z"/><path class="cls-2" d="M210.69,73.08c-.93-.87-1.41-2.14-1.45-3.81v-.71c.05-1.59,.55-2.83,1.48-3.72s2.19-1.34,3.76-1.34c1.14,0,2.11,.23,2.89,.7,.79,.46,1.38,1.1,1.77,1.91s.59,1.73,.59,2.78v.48c0,.13-.05,.25-.14,.35-.09,.1-.22,.15-.36,.15h-6.46v.14c.03,.63,.18,1.14,.46,1.53s.69,.58,1.23,.58c.34,0,.61-.07,.83-.21s.41-.31,.59-.51c.12-.15,.22-.24,.29-.27,.07-.03,.19-.05,.35-.05h2.5c.12,0,.23,.04,.31,.11,.09,.07,.13,.17,.13,.29,0,.35-.2,.75-.6,1.21-.4,.46-.97,.85-1.72,1.19-.75,.34-1.64,.5-2.66,.5-1.61,0-2.88-.44-3.81-1.31Zm5.51-5.2v-.04c0-.66-.15-1.18-.45-1.56s-.72-.57-1.26-.57-.94,.19-1.24,.57c-.3,.38-.45,.9-.45,1.56v.04h3.41Z"/><path class="cls-2" d="M221.19,74.04c-.1-.1-.15-.22-.15-.35v-13.31c0-.15,.05-.27,.15-.36,.1-.09,.22-.14,.35-.14h2.38c.15,0,.27,.05,.36,.14,.09,.09,.14,.22,.14,.36v13.31c0,.15-.05,.27-.14,.36s-.22,.14-.36,.14h-2.38c-.14,0-.25-.05-.35-.15Z"/><path class="cls-2" d="M227.23,73.08c-.93-.87-1.41-2.14-1.45-3.81v-.71c.05-1.59,.55-2.83,1.48-3.72s2.19-1.34,3.76-1.34c1.14,0,2.11,.23,2.89,.7,.79,.46,1.38,1.1,1.77,1.91s.59,1.73,.59,2.78v.48c0,.13-.05,.25-.14,.35-.09,.1-.22,.15-.36,.15h-6.46v.14c.03,.63,.18,1.14,.46,1.53s.69,.58,1.23,.58c.34,0,.61-.07,.83-.21s.41-.31,.59-.51c.12-.15,.22-.24,.29-.27,.07-.03,.19-.05,.35-.05h2.5c.12,0,.23,.04,.31,.11,.09,.07,.13,.17,.13,.29,0,.35-.2,.75-.6,1.21-.4,.46-.97,.85-1.72,1.19-.75,.34-1.64,.5-2.66,.5-1.61,0-2.88-.44-3.81-1.31Zm5.51-5.2v-.04c0-.66-.15-1.18-.45-1.56s-.72-.57-1.26-.57-.94,.19-1.24,.57c-.3,.38-.45,.9-.45,1.56v.04h3.41Z"/><path class="cls-2" d="M237.72,74.05c-.09-.09-.14-.22-.14-.36v-9.48c0-.15,.05-.27,.14-.36,.09-.09,.21-.14,.36-.14h2.32c.15,0,.27,.05,.37,.15,.1,.1,.15,.22,.15,.35v.81c.74-.87,1.73-1.31,2.99-1.31h.89c.15,0,.27,.05,.36,.14,.09,.09,.14,.22,.14,.36v2.08c0,.13-.05,.25-.14,.35s-.22,.15-.36,.15h-1.96c-.55,0-.98,.15-1.28,.45s-.45,.73-.45,1.28v5.16c0,.15-.05,.27-.15,.36-.1,.09-.23,.14-.37,.14h-2.5c-.15,0-.27-.05-.36-.14Z"/><path class="cls-2" d="M247.15,73.98c-.59-.28-1.04-.65-1.37-1.13s-.49-1.01-.49-1.58c0-.93,.38-1.67,1.14-2.24s1.81-.95,3.14-1.17l2.52-.38v-.28c0-.51-.11-.89-.32-1.13s-.58-.36-1.09-.36c-.31,0-.56,.05-.77,.16s-.41,.26-.63,.44c-.19,.16-.33,.27-.42,.32-.04,.11-.11,.16-.22,.16h-2.2c-.14,0-.25-.04-.33-.13-.09-.09-.12-.19-.11-.31,.01-.36,.19-.77,.53-1.21s.87-.83,1.57-1.15,1.58-.48,2.61-.48c1.65,0,2.88,.37,3.67,1.1,.79,.73,1.19,1.72,1.19,2.95v6.13c0,.13-.05,.25-.14,.35-.09,.1-.22,.15-.36,.15h-2.34c-.13,0-.25-.05-.35-.15s-.15-.22-.15-.35v-.71c-.3,.42-.71,.76-1.24,1.02-.53,.26-1.16,.39-1.89,.39s-1.36-.14-1.95-.41Zm4.4-2.49c.38-.4,.57-1,.57-1.78v-.28l-1.71,.3c-1.21,.22-1.82,.64-1.82,1.27,0,.34,.14,.6,.42,.8s.63,.29,1.03,.29c.62,0,1.12-.2,1.5-.6Z"/><path class="cls-2" d="M258.36,70.22v-3.87h-1.57c-.15,0-.27-.05-.37-.14s-.15-.22-.15-.36v-1.63c0-.15,.05-.27,.15-.36,.1-.09,.23-.14,.37-.14h1.57v-3.33c0-.15,.05-.27,.15-.36,.1-.09,.22-.14,.35-.14h2.34c.15,0,.27,.05,.36,.14,.09,.09,.14,.22,.14,.36v3.33h2.52c.15,0,.27,.05,.37,.14,.1,.09,.15,.22,.15,.36v1.63c0,.15-.05,.27-.15,.36s-.23,.14-.37,.14h-2.52v3.59c0,1,.38,1.49,1.15,1.49h1.55c.15,0,.27,.05,.36,.14s.14,.22,.14,.36v1.75c0,.13-.05,.25-.14,.35s-.22,.15-.36,.15h-1.88c-2.78,0-4.18-1.32-4.18-3.97Z"/><path class="cls-2" d="M267.09,73.2c-.9-.79-1.39-1.91-1.47-3.35-.01-.17-.02-.48-.02-.91s0-.73,.02-.91c.08-1.43,.59-2.54,1.51-3.34,.93-.8,2.2-1.2,3.81-1.2s2.9,.4,3.83,1.2,1.43,1.91,1.51,3.34c.01,.18,.02,.48,.02,.91s0,.73-.02,.91c-.08,1.44-.57,2.56-1.47,3.35-.9,.79-2.19,1.19-3.87,1.19s-2.95-.4-3.85-1.19Zm5.16-1.81c.28-.36,.44-.9,.48-1.64,.01-.13,.02-.4,.02-.81s0-.67-.02-.81c-.04-.73-.2-1.27-.49-1.63-.29-.36-.72-.54-1.3-.54-1.12,0-1.71,.73-1.78,2.18l-.02,.81,.02,.81c.03,.74,.18,1.29,.47,1.64,.29,.36,.72,.53,1.3,.53s1.03-.18,1.31-.53Z"/><path class="cls-2" d="M277.84,74.05c-.09-.09-.14-.22-.14-.36v-9.48c0-.15,.05-.27,.14-.36,.09-.09,.21-.14,.36-.14h2.32c.15,0,.27,.05,.37,.15,.1,.1,.15,.22,.15,.35v.81c.74-.87,1.73-1.31,2.99-1.31h.89c.15,0,.27,.05,.36,.14,.09,.09,.14,.22,.14,.36v2.08c0,.13-.05,.25-.14,.35s-.22,.15-.36,.15h-1.96c-.55,0-.98,.15-1.28,.45s-.45,.73-.45,1.28v5.16c0,.15-.05,.27-.15,.36-.1,.09-.23,.14-.37,.14h-2.5c-.15,0-.27-.05-.36-.14Z"/></g><path class="cls-2" d="M97.71,29.89c-1.13-.47-1.99-1.08-2.58-1.85-.58-.77-.89-1.6-.92-2.5,0-.15,.05-.28,.16-.38,.11-.1,.24-.15,.39-.15h3.33c.2,0,.36,.03,.49,.1,.13,.07,.26,.18,.41,.35,.22,.4,.55,.73,1.01,.99,.46,.26,1.07,.39,1.84,.39,.9,0,1.59-.14,2.08-.41,.48-.27,.73-.65,.73-1.14,0-.35-.13-.64-.38-.86-.25-.23-.65-.42-1.2-.6-.55-.17-1.34-.37-2.38-.59-2.02-.4-3.53-1.01-4.53-1.83-1-.82-1.5-1.98-1.5-3.5,0-1.03,.29-1.96,.86-2.76,.57-.81,1.39-1.44,2.45-1.89,1.06-.45,2.29-.67,3.69-.67s2.74,.25,3.82,.76c1.08,.51,1.9,1.14,2.48,1.9,.57,.76,.88,1.51,.91,2.24,0,.15-.05,.28-.15,.39-.1,.11-.23,.16-.38,.16h-3.5c-.37,0-.65-.15-.85-.45-.1-.35-.36-.65-.78-.89-.42-.24-.93-.36-1.55-.36-.7,0-1.24,.13-1.63,.38-.38,.25-.57,.62-.57,1.1s.25,.86,.75,1.14c.5,.28,1.43,.55,2.8,.84,1.57,.28,2.81,.64,3.74,1.06,.93,.42,1.61,.97,2.05,1.65,.44,.68,.66,1.53,.66,2.57,0,1.13-.33,2.12-.98,2.95-.65,.83-1.55,1.47-2.7,1.91-1.15,.44-2.47,.66-3.95,.66-1.62,0-2.99-.23-4.13-.7"/><path class="cls-2" d="M113.11,28.86c-1.34-1.15-2.01-2.88-2.01-5.18V13.48c0-.18,.06-.34,.17-.46,.12-.13,.27-.19,.45-.19h3.43c.18,0,.34,.06,.46,.19,.13,.12,.19,.28,.19,.46v10.16c0,1.03,.25,1.81,.74,2.33,.49,.52,1.2,.78,2.11,.78s1.62-.26,2.11-.79c.49-.53,.74-1.3,.74-2.31V13.48c0-.18,.06-.34,.19-.46,.13-.13,.28-.19,.46-.19h3.4c.18,0,.34,.06,.46,.19,.13,.12,.19,.28,.19,.46v10.21c0,2.3-.67,4.03-2,5.18-1.33,1.15-3.18,1.73-5.53,1.73s-4.22-.58-5.57-1.73"/><path class="cls-2" d="M129.02,30.15c-.13-.13-.19-.27-.19-.44V13.48c0-.18,.06-.34,.17-.46,.12-.13,.27-.19,.45-.19h2.83c.38,0,.67,.16,.85,.48l5.9,9.33V13.48c0-.18,.06-.34,.17-.46,.12-.13,.27-.19,.45-.19h3.18c.18,0,.33,.06,.45,.19,.12,.12,.17,.28,.17,.46V29.69c0,.18-.06,.34-.17,.46-.12,.13-.27,.19-.45,.19h-2.83c-.38,0-.67-.16-.85-.48l-5.88-8.96v8.81c0,.18-.06,.33-.19,.45-.13,.12-.28,.17-.46,.17h-3.18c-.17,0-.31-.06-.44-.19"/><path class="cls-2" d="M153.45,26.59c1.05,0,1.83-.25,2.33-.75,.5-.5,.77-1.3,.8-2.4,.03-.48,.05-1.11,.05-1.88s-.02-1.39-.05-1.85c-.03-1.07-.32-1.86-.86-2.36-.54-.51-1.34-.76-2.39-.76h-2.38v10.01h2.5Zm-7.02,3.56c-.13-.13-.19-.27-.19-.44V13.48c0-.18,.06-.34,.17-.46,.12-.13,.27-.19,.45-.19h6.58c2.47,0,4.39,.59,5.75,1.76,1.37,1.18,2.09,2.86,2.15,5.07,.02,.48,.03,1.13,.03,1.93s0,1.43-.03,1.9c-.17,4.57-2.76,6.85-7.78,6.85h-6.7c-.17,0-.31-.06-.44-.19"/><path class="cls-2" d="M163.8,30.15c-.13-.13-.19-.27-.19-.44V13.48c0-.18,.06-.34,.17-.46,.12-.13,.27-.19,.45-.19h11.81c.18,0,.34,.06,.46,.19,.12,.12,.19,.28,.19,.46v2.48c0,.18-.06,.33-.19,.45-.13,.12-.28,.17-.46,.17h-7.91v3.18h7.36c.18,0,.34,.06,.46,.19,.12,.13,.19,.28,.19,.46v2.28c0,.18-.06,.34-.19,.46-.13,.13-.28,.19-.46,.19h-7.36v3.25h8.11c.18,0,.34,.06,.46,.19,.13,.13,.19,.28,.19,.46v2.48c0,.18-.06,.33-.19,.45-.12,.12-.28,.17-.46,.17h-12.01c-.17,0-.31-.06-.44-.19"/><path class="cls-2" d="M186.52,20.56c.72,0,1.26-.18,1.64-.54,.37-.36,.56-.86,.56-1.49s-.19-1.14-.56-1.53c-.38-.38-.92-.57-1.64-.57h-2.78v4.13h2.78Zm-7.29,9.59c-.13-.13-.19-.27-.19-.44V13.48c0-.18,.06-.34,.17-.46,.12-.13,.27-.19,.45-.19h6.88c2.2,0,3.92,.5,5.17,1.5,1.24,1,1.86,2.41,1.86,4.23,0,1.17-.27,2.16-.81,2.98-.54,.82-1.29,1.45-2.24,1.9l3.38,6.1c.05,.1,.08,.19,.08,.28,0,.13-.05,.25-.15,.36-.1,.11-.23,.16-.38,.16h-3.53c-.48,0-.83-.23-1.03-.67l-2.75-5.43h-2.4v5.48c0,.18-.06,.33-.19,.45-.13,.12-.28,.17-.46,.17h-3.43c-.17,0-.31-.06-.44-.19"/><path class="cls-2" d="M195.99,30.15c-.13-.13-.19-.27-.19-.44V13.45c0-.18,.06-.33,.19-.45,.13-.12,.27-.17,.44-.17h3.5c.18,0,.33,.06,.45,.17,.12,.12,.17,.27,.17,.45v12.96h7.51c.18,0,.34,.06,.46,.19,.12,.13,.19,.28,.19,.46v2.65c0,.18-.06,.33-.19,.45-.13,.12-.28,.17-.46,.17h-11.63c-.17,0-.31-.06-.44-.19"/><path class="cls-2" d="M216.77,23.61h4.45l-2.23-6.38-2.23,6.38Zm-6.42,6.57c-.11-.11-.16-.23-.16-.36,0-.1,0-.17,.02-.23l5.83-16.04c.17-.48,.5-.73,1-.73h3.9c.5,0,.83,.24,1,.73l5.83,16.04c.02,.05,.02,.13,.02,.23,0,.13-.05,.26-.16,.36-.11,.11-.23,.16-.36,.16h-3.25c-.4,0-.68-.18-.85-.55l-.9-2.43h-6.55l-.9,2.43c-.17,.37-.45,.55-.85,.55h-3.25c-.13,0-.25-.05-.36-.16"/><path class="cls-2" d="M229.27,30.15c-.13-.13-.19-.27-.19-.44V13.48c0-.18,.06-.34,.17-.46,.12-.13,.27-.19,.45-.19h2.83c.38,0,.67,.16,.85,.48l5.9,9.33V13.48c0-.18,.06-.34,.17-.46,.12-.13,.27-.19,.45-.19h3.18c.18,0,.33,.06,.45,.19,.12,.12,.17,.28,.17,.46V29.69c0,.18-.06,.34-.17,.46s-.27,.19-.45,.19h-2.83c-.38,0-.67-.16-.85-.48l-5.88-8.96v8.81c0,.18-.06,.33-.19,.45-.13,.12-.28,.17-.46,.17h-3.18c-.17,0-.31-.06-.44-.19"/><path class="cls-2" d="M253.7,26.59c1.05,0,1.83-.25,2.33-.75,.5-.5,.77-1.3,.8-2.4,.03-.48,.05-1.11,.05-1.88s-.02-1.39-.05-1.85c-.03-1.07-.32-1.86-.86-2.36-.54-.51-1.34-.76-2.39-.76h-2.38v10.01h2.5Zm-7.02,3.56c-.13-.13-.19-.27-.19-.44V13.48c0-.18,.06-.34,.17-.46,.12-.13,.27-.19,.45-.19h6.58c2.47,0,4.39,.59,5.75,1.76,1.37,1.18,2.09,2.86,2.15,5.07,.02,.48,.03,1.13,.03,1.93s0,1.43-.03,1.9c-.17,4.57-2.76,6.85-7.78,6.85h-6.7c-.17,0-.31-.06-.44-.19"/><path class="cls-4" d="M102.11,49.3c.6-.65,.92-1.58,.97-2.79,.02-.16,.02-.46,.02-.91s0-.75-.02-.91c-.05-1.21-.37-2.15-.97-2.79-.6-.65-1.41-.97-2.43-.97s-1.83,.32-2.43,.97c-.6,.65-.92,1.58-.97,2.79l-.02,.91,.02,.91c.05,1.22,.37,2.15,.97,2.79,.6,.65,1.41,.97,2.43,.97s1.83-.32,2.43-.97m-6.5,1.28c-.95-.99-1.46-2.31-1.52-3.96l-.02-1.03,.02-1.03c.06-1.65,.58-2.97,1.55-3.96,.97-.99,2.31-1.49,4.04-1.49s3.07,.5,4.04,1.49c.97,.99,1.48,2.31,1.55,3.96,.03,.35,.05,.69,.05,1.03s-.02,.68-.05,1.03c-.06,1.65-.57,2.97-1.52,3.96-.95,.99-2.31,1.49-4.06,1.49s-3.11-.5-4.06-1.49"/><path class="cls-4" d="M108.85,50.6c-.83-.98-1.25-2.29-1.25-3.92v-6.76c0-.16,.05-.29,.16-.4,.1-.1,.24-.16,.4-.16h1.1c.16,0,.29,.05,.4,.16,.1,.1,.16,.24,.16,.4v6.64c0,2.43,1.06,3.64,3.16,3.64,1.02,0,1.83-.32,2.43-.97,.6-.65,.9-1.54,.9-2.67v-6.64c0-.16,.05-.29,.15-.4,.1-.1,.24-.16,.4-.16h1.1c.16,0,.29,.05,.4,.16,.1,.1,.16,.24,.16,.4v11.36c0,.16-.05,.29-.16,.4-.11,.1-.24,.16-.4,.16h-1.03c-.16,0-.29-.05-.39-.16-.11-.1-.16-.24-.16-.4v-1.08c-.46,.62-1.01,1.09-1.63,1.4s-1.41,.47-2.37,.47c-1.52,0-2.69-.49-3.52-1.47"/><path class="cls-4" d="M121.67,51.68c-.1-.1-.16-.24-.16-.4v-11.34c0-.16,.05-.3,.16-.41,.1-.11,.24-.17,.4-.17h1.01c.18,0,.31,.05,.42,.16,.1,.1,.16,.24,.16,.42v1.05c.65-1.09,1.77-1.63,3.33-1.63h.94c.17,0,.31,.05,.41,.14,.1,.1,.14,.23,.14,.41v.89c0,.16-.05,.29-.14,.4-.1,.1-.23,.16-.41,.16h-1.37c-.88,0-1.57,.26-2.07,.77-.5,.51-.76,1.21-.76,2.09v7.07c0,.16-.06,.29-.17,.4-.11,.1-.25,.16-.41,.16h-1.08c-.16,0-.29-.05-.4-.16"/><path class="cls-3" d="M131.4,51.53c-.76-.36-1.32-.77-1.69-1.23-.37-.46-.55-.85-.55-1.15,0-.16,.06-.28,.17-.37,.11-.09,.23-.13,.36-.13h1.01c.1,0,.17,.02,.23,.05,.06,.03,.13,.1,.23,.22,.37,.45,.78,.8,1.23,1.05,.45,.26,1.07,.38,1.83,.38,.86,0,1.55-.16,2.07-.48,.52-.32,.78-.78,.78-1.39,0-.4-.11-.72-.34-.96-.22-.24-.6-.46-1.12-.65-.52-.19-1.29-.4-2.31-.62-1.39-.3-2.37-.74-2.95-1.32-.57-.57-.86-1.32-.86-2.23,0-.59,.18-1.16,.53-1.71,.35-.55,.87-1,1.57-1.34,.69-.34,1.52-.52,2.48-.52,1.01,0,1.87,.17,2.58,.5,.71,.34,1.25,.73,1.61,1.17,.36,.45,.54,.82,.54,1.13,0,.14-.05,.26-.16,.36-.11,.1-.23,.14-.37,.14h-.91c-.22,0-.38-.09-.48-.26-.27-.3-.5-.54-.68-.71-.18-.17-.45-.31-.8-.43-.35-.12-.79-.18-1.32-.18-.78,0-1.38,.16-1.8,.49-.41,.33-.62,.76-.62,1.31,0,.34,.09,.62,.26,.85,.18,.23,.51,.45,1.01,.65,.5,.2,1.23,.4,2.21,.61,1.52,.32,2.59,.78,3.23,1.37,.63,.59,.95,1.35,.95,2.28,0,.69-.2,1.31-.59,1.87-.39,.56-.98,1-1.75,1.32-.78,.32-1.7,.48-2.77,.48s-2.03-.18-2.79-.54"/><path class="cls-3" d="M141.66,51.68c-.1-.1-.16-.24-.16-.4v-11.36c0-.16,.05-.29,.16-.4,.1-.1,.24-.16,.4-.16h1.01c.16,0,.29,.05,.38,.16,.1,.1,.14,.24,.14,.4v.81c.86-1.07,2.03-1.61,3.5-1.61,1.76,0,3,.74,3.74,2.21,.38-.67,.93-1.21,1.64-1.61,.71-.4,1.51-.6,2.39-.6,1.31,0,2.38,.45,3.21,1.34,.83,.9,1.25,2.19,1.25,3.89v6.93c0,.16-.05,.29-.16,.4s-.24,.16-.39,.16h-1.03c-.16,0-.29-.05-.4-.16s-.16-.24-.16-.4v-6.71c0-1.28-.26-2.19-.79-2.75-.53-.55-1.22-.83-2.09-.83-.77,0-1.43,.28-1.98,.85-.55,.57-.83,1.47-.83,2.72v6.71c0,.16-.05,.29-.16,.4-.1,.1-.24,.16-.4,.16h-1.05c-.16,0-.29-.05-.4-.16s-.16-.24-.16-.4v-6.71c0-1.26-.28-2.17-.83-2.73-.55-.56-1.23-.84-2.05-.84-.77,0-1.43,.28-1.98,.84-.55,.56-.83,1.46-.83,2.71v6.74c0,.16-.05,.29-.16,.4-.1,.1-.24,.16-.4,.16h-1.05c-.16,0-.29-.05-.4-.16"/><path class="cls-3" d="M168.72,49.29c.67-.69,1.01-1.69,1.01-3v-.67l-2.8,.41c-1.15,.16-2.02,.43-2.61,.81-.59,.38-.89,.86-.89,1.44,0,.66,.27,1.16,.8,1.51,.53,.35,1.17,.53,1.91,.53,1.05,0,1.92-.34,2.59-1.03m-5.24,2.3c-.66-.32-1.19-.75-1.58-1.31-.39-.55-.59-1.16-.59-1.83,0-1.05,.43-1.92,1.3-2.59,.86-.67,2.04-1.12,3.52-1.34l3.6-.5v-.69c0-1.65-.95-2.47-2.85-2.47-.73,0-1.33,.15-1.77,.44-.45,.3-.78,.64-.98,1.04-.06,.16-.13,.27-.21,.32-.07,.06-.17,.09-.3,.09h-.94c-.14,0-.27-.05-.37-.16-.1-.1-.16-.23-.16-.37,0-.37,.17-.79,.52-1.28,.34-.49,.88-.91,1.59-1.27,.72-.36,1.6-.54,2.64-.54,1.79,0,3.07,.42,3.85,1.25,.77,.83,1.16,1.87,1.16,3.12v7.79c0,.16-.05,.29-.16,.4-.1,.1-.24,.16-.4,.16h-1.05c-.16,0-.29-.05-.38-.16-.1-.1-.14-.24-.14-.4v-1.05c-.35,.53-.86,.97-1.53,1.32-.67,.35-1.53,.53-2.59,.53-.78,0-1.51-.16-2.17-.48"/><path class="cls-3" d="M174.94,51.68c-.1-.1-.16-.24-.16-.4v-11.34c0-.16,.05-.3,.16-.41,.1-.11,.24-.17,.4-.17h1.01c.18,0,.31,.05,.42,.16,.1,.1,.16,.24,.16,.42v1.05c.65-1.09,1.77-1.63,3.33-1.63h.93c.18,0,.31,.05,.41,.14,.1,.1,.14,.23,.14,.41v.89c0,.16-.05,.29-.14,.4-.1,.1-.23,.16-.41,.16h-1.37c-.88,0-1.57,.26-2.07,.77-.5,.51-.76,1.21-.76,2.09v7.07c0,.16-.06,.29-.17,.4s-.25,.16-.41,.16h-1.08c-.16,0-.29-.05-.4-.16"/><path class="cls-3" d="M184.27,47.64v-6.42h-1.89c-.16,0-.29-.05-.38-.14-.1-.1-.14-.22-.14-.38v-.77c0-.16,.05-.29,.14-.4,.1-.1,.22-.16,.38-.16h1.89v-4c0-.16,.05-.29,.14-.4,.1-.1,.22-.16,.38-.16h1.06c.16,0,.29,.05,.4,.16s.16,.24,.16,.4v4h2.97c.16,0,.29,.05,.4,.16s.16,.24,.16,.4v.77c0,.16-.05,.29-.16,.38-.1,.1-.24,.14-.4,.14h-2.97v6.26c0,.81,.13,1.43,.4,1.85s.71,.62,1.35,.62h1.46c.16,0,.29,.05,.38,.16,.1,.1,.14,.24,.14,.4v.79c0,.16-.05,.29-.14,.4-.1,.1-.22,.16-.38,.16h-1.63c-2.48,0-3.72-1.4-3.72-4.2"/><path class="cls-1" d="M192.88,50.62c-.96-.97-1.46-2.32-1.51-4.06l-.02-.96,.02-.96c.05-1.74,.55-3.1,1.51-4.06,.96-.97,2.29-1.45,4-1.45,1.15,0,2.12,.21,2.91,.61,.79,.41,1.38,.92,1.77,1.52,.39,.61,.6,1.21,.64,1.82,.02,.14-.04,.27-.16,.38-.12,.11-.25,.17-.4,.17h-1.05c-.16,0-.28-.03-.36-.11-.08-.07-.16-.2-.24-.39-.29-.78-.68-1.34-1.19-1.67-.5-.33-1.14-.49-1.91-.49-1.01,0-1.81,.31-2.4,.93-.59,.62-.91,1.57-.96,2.85l-.02,.84,.02,.84c.05,1.28,.37,2.23,.96,2.85,.59,.62,1.39,.94,2.4,.94,.78,0,1.42-.16,1.92-.49s.89-.88,1.17-1.67c.08-.19,.16-.32,.24-.39,.08-.07,.2-.11,.36-.11h1.05c.14,0,.28,.06,.4,.17,.12,.11,.17,.24,.16,.38-.03,.59-.24,1.19-.64,1.8-.39,.61-.98,1.12-1.77,1.53-.79,.41-1.76,.62-2.91,.62-1.71,0-3.04-.48-4-1.45"/><path class="cls-1" d="M204.64,51.68c-.1-.1-.16-.24-.16-.4v-11.36c0-.16,.05-.29,.16-.4,.1-.1,.24-.16,.4-.16h1.05c.16,0,.29,.05,.4,.16,.1,.1,.16,.24,.16,.4v11.36c0,.16-.05,.29-.16,.4-.1,.1-.24,.16-.4,.16h-1.05c-.16,0-.29-.05-.4-.16m-.19-14.82c-.1-.1-.16-.24-.16-.4v-1.25c0-.16,.05-.29,.16-.41,.1-.11,.24-.17,.4-.17h1.41c.16,0,.3,.06,.41,.17,.11,.11,.17,.25,.17,.41v1.25c0,.16-.06,.29-.17,.4-.11,.1-.25,.16-.41,.16h-1.41c-.16,0-.29-.05-.4-.16"/><path class="cls-1" d="M210.72,47.64v-6.42h-1.89c-.16,0-.29-.05-.38-.14-.1-.1-.14-.22-.14-.38v-.77c0-.16,.05-.29,.14-.4,.1-.1,.22-.16,.38-.16h1.89v-4c0-.16,.05-.29,.14-.4,.1-.1,.22-.16,.38-.16h1.06c.16,0,.29,.05,.4,.16s.16,.24,.16,.4v4h2.97c.16,0,.29,.05,.4,.16s.16,.24,.16,.4v.77c0,.16-.05,.29-.16,.38-.1,.1-.24,.14-.4,.14h-2.97v6.26c0,.81,.13,1.43,.4,1.85s.71,.62,1.35,.62h1.46c.16,0,.29,.05,.38,.16,.1,.1,.14,.24,.14,.4v.79c0,.16-.05,.29-.14,.4-.1,.1-.22,.16-.38,.16h-1.63c-2.48,0-3.72-1.4-3.72-4.2"/><path class="cls-1" d="M220.16,56.24c-.1-.1-.14-.21-.14-.34,0-.05,.04-.19,.12-.43l1.87-4.39-4.58-10.81c-.1-.19-.14-.33-.14-.41,.02-.14,.07-.27,.17-.36,.1-.1,.21-.14,.34-.14h1.1c.26,0,.45,.13,.58,.38l3.69,8.82,3.79-8.82c.13-.26,.32-.38,.57-.38h1.08c.13,0,.24,.05,.34,.14s.14,.21,.14,.34c0,.11-.04,.26-.12,.43l-6.79,15.73c-.08,.13-.16,.22-.25,.29-.09,.06-.2,.1-.35,.1h-1.05c-.14,0-.26-.05-.36-.14"/><path class="cls-3" d="M68.61,61.03c0,.46-.25,.88-.64,1.11l-6.96,4.04-15.19-8.8,15.19-8.81,7.6,4.4v8.06Zm7.66-3.25c0-.23-.12-.44-.28-.53L30.42,30.85l-15.24,8.79,60.12,34.82c.43,.25,.97-.06,.97-.56v-16.11Z"/><path class="cls-3" d="M7.49,27.22c0-.46,.25-.88,.64-1.11l7.04-4.09L.97,13.79C.54,13.54,0,13.85,0,14.35V30.47c0,.23,.12,.44,.32,.55l7.17,4.13v-7.94Z"/><path class="cls-4" d="M7.49,35.16v7.82c0,.5,.54,.81,.97,.56l6.72-3.9-7.69-4.48Z"/><path class="cls-4" d="M15.18,22.02l15.19,8.8,22.49-13.05c.2-.11,.32-.33,.32-.55V1.1c0-.5-.54-.81-.97-.56L15.18,22.02Z"/><path class="cls-2" d="M15.18,39.64l15.19-8.81-15.19-8.8-7.04,4.09c-.4,.23-.64,.65-.64,1.11v7.94l7.69,4.48Z"/><path class="cls-1" d="M45.82,57.38l-22.57,13.1c-.2,.12-.32,.33-.32,.56v16.12c0,.5,.54,.81,.97,.56l44.07-25.57-6.96,4.04-15.19-8.8Z"/><path class="cls-1" d="M67.64,44.72l-11.45,6.64,4.82-2.79,7.6,4.4v8.06c0,.06,0,.11-.01,.17,0-.06,.01-.11,.01-.17v-15.75c0-.5-.54-.81-.97-.56"/><path class="cls-2" d="M61.01,48.57l-15.19,8.81,15.19,8.8,6.96-4.04c.4-.23,.64-.65,.64-1.11v-8.06l-7.6-4.41Z"/><path class="cls-2" d="M97.8,29.44c-1.13-.47-1.99-1.08-2.58-1.85-.58-.77-.89-1.6-.92-2.5,0-.15,.05-.28,.16-.38,.11-.1,.24-.15,.39-.15h3.33c.2,0,.36,.03,.49,.1,.13,.07,.26,.18,.41,.35,.22,.4,.55,.73,1.01,.99,.46,.26,1.07,.39,1.84,.39,.9,0,1.59-.14,2.08-.41,.48-.27,.73-.65,.73-1.14,0-.35-.13-.64-.38-.86-.25-.23-.65-.42-1.2-.6-.55-.17-1.34-.37-2.38-.59-2.02-.4-3.53-1.01-4.53-1.83-1-.82-1.5-1.98-1.5-3.5,0-1.03,.29-1.96,.86-2.76,.57-.81,1.39-1.44,2.45-1.89,1.06-.45,2.29-.67,3.69-.67s2.74,.25,3.82,.76c1.08,.51,1.9,1.14,2.48,1.9,.57,.76,.88,1.51,.91,2.24,0,.15-.05,.28-.15,.39-.1,.11-.23,.16-.38,.16h-3.5c-.37,0-.65-.15-.85-.45-.1-.35-.36-.65-.78-.89-.42-.24-.93-.36-1.55-.36-.7,0-1.24,.13-1.63,.38-.38,.25-.57,.62-.57,1.1s.25,.86,.75,1.14c.5,.28,1.43,.55,2.8,.84,1.57,.28,2.81,.64,3.74,1.06,.93,.42,1.61,.97,2.05,1.65,.44,.68,.66,1.53,.66,2.57,0,1.13-.33,2.12-.98,2.95-.65,.83-1.55,1.47-2.7,1.91-1.15,.44-2.47,.66-3.95,.66-1.62,0-2.99-.23-4.13-.7"/><path class="cls-2" d="M113.2,28.42c-1.34-1.15-2.01-2.88-2.01-5.18V13.03c0-.18,.06-.34,.17-.46,.12-.13,.27-.19,.45-.19h3.43c.18,0,.34,.06,.46,.19,.13,.12,.19,.28,.19,.46v10.16c0,1.03,.25,1.81,.74,2.33,.49,.52,1.2,.78,2.11,.78s1.62-.26,2.11-.79c.49-.53,.74-1.3,.74-2.31V13.03c0-.18,.06-.34,.19-.46,.13-.13,.28-.19,.46-.19h3.4c.18,0,.34,.06,.46,.19,.13,.12,.19,.28,.19,.46v10.21c0,2.3-.67,4.03-2,5.18s-3.18,1.73-5.53,1.73-4.22-.58-5.57-1.73"/><path class="cls-2" d="M129.11,29.71c-.13-.13-.19-.27-.19-.44V13.03c0-.18,.06-.34,.17-.46,.12-.13,.27-.19,.45-.19h2.83c.38,0,.67,.16,.85,.48l5.9,9.33V13.03c0-.18,.06-.34,.17-.46,.12-.13,.27-.19,.45-.19h3.18c.18,0,.33,.06,.45,.19,.12,.12,.17,.28,.17,.46V29.24c0,.18-.06,.34-.17,.46-.12,.13-.27,.19-.45,.19h-2.83c-.38,0-.67-.16-.85-.48l-5.88-8.96v8.81c0,.18-.06,.33-.19,.45-.13,.12-.28,.17-.46,.17h-3.18c-.17,0-.31-.06-.44-.19"/><path class="cls-2" d="M153.54,26.14c1.05,0,1.83-.25,2.33-.75,.5-.5,.77-1.3,.8-2.4,.03-.48,.05-1.11,.05-1.88s-.02-1.39-.05-1.85c-.03-1.07-.32-1.86-.86-2.36-.54-.51-1.34-.76-2.39-.76h-2.38v10.01h2.5Zm-7.02,3.56c-.13-.13-.19-.27-.19-.44V13.03c0-.18,.06-.34,.17-.46,.12-.13,.27-.19,.45-.19h6.58c2.47,0,4.39,.59,5.75,1.76,1.37,1.18,2.09,2.86,2.15,5.07,.02,.48,.03,1.13,.03,1.93s0,1.43-.03,1.9c-.17,4.57-2.76,6.85-7.78,6.85h-6.7c-.17,0-.31-.06-.44-.19"/><path class="cls-2" d="M163.88,29.71c-.13-.13-.19-.27-.19-.44V13.03c0-.18,.06-.34,.17-.46,.12-.13,.27-.19,.45-.19h11.81c.18,0,.34,.06,.46,.19,.12,.12,.19,.28,.19,.46v2.48c0,.18-.06,.33-.19,.45-.13,.12-.28,.17-.46,.17h-7.91v3.18h7.36c.18,0,.34,.06,.46,.19,.12,.13,.19,.28,.19,.46v2.28c0,.18-.06,.34-.19,.46-.13,.13-.28,.19-.46,.19h-7.36v3.25h8.11c.18,0,.34,.06,.46,.19,.13,.13,.19,.28,.19,.46v2.48c0,.18-.06,.33-.19,.45-.12,.12-.28,.17-.46,.17h-12.01c-.17,0-.31-.06-.44-.19"/><path class="cls-2" d="M186.61,20.11c.72,0,1.26-.18,1.64-.54,.37-.36,.56-.86,.56-1.49s-.19-1.14-.56-1.53c-.38-.38-.92-.57-1.64-.57h-2.78v4.13h2.78Zm-7.29,9.59c-.13-.13-.19-.27-.19-.44V13.03c0-.18,.06-.34,.17-.46,.12-.13,.27-.19,.45-.19h6.88c2.2,0,3.92,.5,5.17,1.5,1.24,1,1.86,2.41,1.86,4.23,0,1.17-.27,2.16-.81,2.98-.54,.82-1.29,1.45-2.24,1.9l3.38,6.1c.05,.1,.08,.19,.08,.28,0,.13-.05,.25-.15,.36-.1,.11-.23,.16-.38,.16h-3.53c-.48,0-.83-.23-1.03-.67l-2.75-5.43h-2.4v5.48c0,.18-.06,.33-.19,.45-.13,.12-.28,.17-.46,.17h-3.43c-.17,0-.31-.06-.44-.19"/><path class="cls-2" d="M196.08,29.71c-.13-.13-.19-.27-.19-.44V13.01c0-.18,.06-.33,.19-.45,.13-.12,.27-.17,.44-.17h3.5c.18,0,.33,.06,.45,.17,.12,.12,.17,.27,.17,.45v12.96h7.51c.18,0,.34,.06,.46,.19,.12,.13,.19,.28,.19,.46v2.65c0,.18-.06,.33-.19,.45-.13,.12-.28,.17-.46,.17h-11.63c-.17,0-.31-.06-.44-.19"/><path class="cls-2" d="M216.85,23.16h4.45l-2.23-6.38-2.23,6.38Zm-6.42,6.57c-.11-.11-.16-.23-.16-.36,0-.1,0-.17,.02-.23l5.83-16.04c.17-.48,.5-.73,1-.73h3.9c.5,0,.83,.24,1,.73l5.83,16.04c.02,.05,.02,.13,.02,.23,0,.13-.05,.26-.16,.36-.11,.11-.23,.16-.36,.16h-3.25c-.4,0-.68-.18-.85-.55l-.9-2.43h-6.55l-.9,2.43c-.17,.37-.45,.55-.85,.55h-3.25c-.13,0-.25-.05-.36-.16"/><path class="cls-2" d="M229.35,29.71c-.13-.13-.19-.27-.19-.44V13.03c0-.18,.06-.34,.17-.46,.12-.13,.27-.19,.45-.19h2.83c.38,0,.67,.16,.85,.48l5.9,9.33V13.03c0-.18,.06-.34,.17-.46,.12-.13,.27-.19,.45-.19h3.18c.18,0,.33,.06,.45,.19,.12,.12,.17,.28,.17,.46V29.24c0,.18-.06,.34-.17,.46s-.27,.19-.45,.19h-2.83c-.38,0-.67-.16-.85-.48l-5.88-8.96v8.81c0,.18-.06,.33-.19,.45-.13,.12-.28,.17-.46,.17h-3.18c-.17,0-.31-.06-.44-.19"/><path class="cls-2" d="M253.78,26.14c1.05,0,1.83-.25,2.33-.75,.5-.5,.77-1.3,.8-2.4,.03-.48,.05-1.11,.05-1.88s-.02-1.39-.05-1.85c-.03-1.07-.32-1.86-.86-2.36-.54-.51-1.34-.76-2.39-.76h-2.38v10.01h2.5Zm-7.02,3.56c-.13-.13-.19-.27-.19-.44V13.03c0-.18,.06-.34,.17-.46,.12-.13,.27-.19,.45-.19h6.58c2.47,0,4.39,.59,5.75,1.76,1.37,1.18,2.09,2.86,2.15,5.07,.02,.48,.03,1.13,.03,1.93s0,1.43-.03,1.9c-.17,4.57-2.76,6.85-7.78,6.85h-6.7c-.17,0-.31-.06-.44-.19"/><path class="cls-4" d="M102.19,48.86c.6-.65,.92-1.58,.97-2.79,.02-.16,.02-.46,.02-.91s0-.75-.02-.91c-.05-1.21-.37-2.15-.97-2.79-.6-.65-1.41-.97-2.43-.97s-1.83,.32-2.43,.97c-.6,.65-.92,1.58-.97,2.79l-.02,.91,.02,.91c.05,1.22,.37,2.15,.97,2.79,.6,.65,1.41,.97,2.43,.97s1.83-.32,2.43-.97m-6.5,1.28c-.95-.99-1.46-2.31-1.52-3.96l-.02-1.03,.02-1.03c.06-1.65,.58-2.97,1.55-3.96,.97-.99,2.31-1.49,4.04-1.49s3.07,.5,4.04,1.49c.97,.99,1.48,2.31,1.55,3.96,.03,.35,.05,.69,.05,1.03s-.02,.68-.05,1.03c-.06,1.65-.57,2.97-1.52,3.96-.95,.99-2.31,1.49-4.06,1.49s-3.11-.5-4.06-1.49"/><path class="cls-4" d="M108.94,50.15c-.83-.98-1.25-2.29-1.25-3.92v-6.76c0-.16,.05-.29,.16-.4,.1-.1,.24-.16,.4-.16h1.1c.16,0,.29,.05,.4,.16,.1,.1,.16,.24,.16,.4v6.64c0,2.43,1.06,3.64,3.16,3.64,1.02,0,1.83-.32,2.43-.97,.6-.65,.9-1.54,.9-2.67v-6.64c0-.16,.05-.29,.15-.4,.1-.1,.24-.16,.4-.16h1.1c.16,0,.29,.05,.4,.16,.1,.1,.16,.24,.16,.4v11.36c0,.16-.05,.29-.16,.4-.11,.1-.24,.16-.4,.16h-1.03c-.16,0-.29-.05-.39-.16-.11-.1-.16-.24-.16-.4v-1.08c-.46,.62-1.01,1.09-1.63,1.4s-1.41,.47-2.37,.47c-1.52,0-2.69-.49-3.52-1.47"/><path class="cls-4" d="M121.75,51.23c-.1-.1-.16-.24-.16-.4v-11.34c0-.16,.05-.3,.16-.41,.1-.11,.24-.17,.4-.17h1.01c.18,0,.31,.05,.42,.16,.1,.1,.16,.24,.16,.42v1.05c.65-1.09,1.77-1.63,3.33-1.63h.94c.17,0,.31,.05,.41,.14,.1,.1,.14,.23,.14,.41v.89c0,.16-.05,.29-.14,.4-.1,.1-.23,.16-.41,.16h-1.37c-.88,0-1.57,.26-2.07,.77-.5,.51-.76,1.21-.76,2.09v7.07c0,.16-.06,.29-.17,.4-.11,.1-.25,.16-.41,.16h-1.08c-.16,0-.29-.05-.4-.16"/><path class="cls-3" d="M131.49,51.09c-.76-.36-1.32-.77-1.69-1.23-.37-.46-.55-.85-.55-1.15,0-.16,.06-.28,.17-.37,.11-.09,.23-.13,.36-.13h1.01c.1,0,.17,.02,.23,.05,.06,.03,.13,.1,.23,.22,.37,.45,.78,.8,1.23,1.05,.45,.26,1.07,.38,1.83,.38,.86,0,1.55-.16,2.07-.48,.52-.32,.78-.78,.78-1.39,0-.4-.11-.72-.34-.96-.22-.24-.6-.46-1.12-.65-.52-.19-1.29-.4-2.31-.62-1.39-.3-2.37-.74-2.95-1.32-.57-.57-.86-1.32-.86-2.23,0-.59,.18-1.16,.53-1.71,.35-.55,.87-1,1.57-1.34,.69-.34,1.52-.52,2.48-.52,1.01,0,1.87,.17,2.58,.5,.71,.34,1.25,.73,1.61,1.17,.36,.45,.54,.82,.54,1.13,0,.14-.05,.26-.16,.36-.11,.1-.23,.14-.37,.14h-.91c-.22,0-.38-.09-.48-.26-.27-.3-.5-.54-.68-.71-.18-.17-.45-.31-.8-.43-.35-.12-.79-.18-1.32-.18-.78,0-1.38,.16-1.8,.49-.41,.33-.62,.76-.62,1.31,0,.34,.09,.62,.26,.85,.18,.23,.51,.45,1.01,.65,.5,.2,1.23,.4,2.21,.61,1.52,.32,2.59,.78,3.23,1.37,.63,.59,.95,1.35,.95,2.28,0,.69-.2,1.31-.59,1.87-.39,.56-.98,1-1.75,1.32-.78,.32-1.7,.48-2.77,.48s-2.03-.18-2.79-.54"/><path class="cls-3" d="M141.75,51.23c-.1-.1-.16-.24-.16-.4v-11.36c0-.16,.05-.29,.16-.4,.1-.1,.24-.16,.4-.16h1.01c.16,0,.29,.05,.38,.16,.1,.1,.14,.24,.14,.4v.81c.86-1.07,2.03-1.61,3.5-1.61,1.76,0,3,.74,3.74,2.21,.38-.67,.93-1.21,1.64-1.61,.71-.4,1.51-.6,2.39-.6,1.31,0,2.38,.45,3.21,1.34,.83,.9,1.25,2.19,1.25,3.89v6.93c0,.16-.05,.29-.16,.4s-.24,.16-.39,.16h-1.03c-.16,0-.29-.05-.4-.16s-.16-.24-.16-.4v-6.71c0-1.28-.26-2.19-.79-2.75-.53-.55-1.22-.83-2.09-.83-.77,0-1.43,.28-1.98,.85-.55,.57-.83,1.47-.83,2.72v6.71c0,.16-.05,.29-.16,.4-.1,.1-.24,.16-.4,.16h-1.05c-.16,0-.29-.05-.4-.16s-.16-.24-.16-.4v-6.71c0-1.26-.28-2.17-.83-2.73-.55-.56-1.23-.84-2.05-.84-.77,0-1.43,.28-1.98,.84-.55,.56-.83,1.46-.83,2.71v6.74c0,.16-.05,.29-.16,.4-.1,.1-.24,.16-.4,.16h-1.05c-.16,0-.29-.05-.4-.16"/><path class="cls-3" d="M168.8,48.84c.67-.69,1.01-1.69,1.01-3v-.67l-2.8,.41c-1.15,.16-2.02,.43-2.61,.81-.59,.38-.89,.86-.89,1.44,0,.66,.27,1.16,.8,1.51,.53,.35,1.17,.53,1.91,.53,1.05,0,1.92-.34,2.59-1.03m-5.24,2.3c-.66-.32-1.19-.75-1.58-1.31-.39-.55-.59-1.16-.59-1.83,0-1.05,.43-1.92,1.3-2.59,.86-.67,2.04-1.12,3.52-1.34l3.6-.5v-.69c0-1.65-.95-2.47-2.85-2.47-.73,0-1.33,.15-1.77,.44-.45,.3-.78,.64-.98,1.04-.06,.16-.13,.27-.21,.32-.07,.06-.17,.09-.3,.09h-.94c-.14,0-.27-.05-.37-.16-.1-.1-.16-.23-.16-.37,0-.37,.17-.79,.52-1.28,.34-.49,.88-.91,1.59-1.27,.72-.36,1.6-.54,2.64-.54,1.79,0,3.07,.42,3.85,1.25,.77,.83,1.16,1.87,1.16,3.12v7.79c0,.16-.05,.29-.16,.4-.1,.1-.24,.16-.4,.16h-1.05c-.16,0-.29-.05-.38-.16-.1-.1-.14-.24-.14-.4v-1.05c-.35,.53-.86,.97-1.53,1.32-.67,.35-1.53,.53-2.59,.53-.78,0-1.51-.16-2.17-.48"/><path class="cls-3" d="M175.02,51.23c-.1-.1-.16-.24-.16-.4v-11.34c0-.16,.05-.3,.16-.41,.1-.11,.24-.17,.4-.17h1.01c.18,0,.31,.05,.42,.16,.1,.1,.16,.24,.16,.42v1.05c.65-1.09,1.77-1.63,3.33-1.63h.93c.18,0,.31,.05,.41,.14,.1,.1,.14,.23,.14,.41v.89c0,.16-.05,.29-.14,.4-.1,.1-.23,.16-.41,.16h-1.37c-.88,0-1.57,.26-2.07,.77-.5,.51-.76,1.21-.76,2.09v7.07c0,.16-.06,.29-.17,.4s-.25,.16-.41,.16h-1.08c-.16,0-.29-.05-.4-.16"/><path class="cls-3" d="M184.36,47.19v-6.42h-1.89c-.16,0-.29-.05-.38-.14-.1-.1-.14-.22-.14-.38v-.77c0-.16,.05-.29,.14-.4,.1-.1,.22-.16,.38-.16h1.89v-4c0-.16,.05-.29,.14-.4,.1-.1,.22-.16,.38-.16h1.06c.16,0,.29,.05,.4,.16s.16,.24,.16,.4v4h2.97c.16,0,.29,.05,.4,.16s.16,.24,.16,.4v.77c0,.16-.05,.29-.16,.38-.1,.1-.24,.14-.4,.14h-2.97v6.26c0,.81,.13,1.43,.4,1.85s.71,.62,1.35,.62h1.46c.16,0,.29,.05,.38,.16,.1,.1,.14,.24,.14,.4v.79c0,.16-.05,.29-.14,.4-.1,.1-.22,.16-.38,.16h-1.63c-2.48,0-3.72-1.4-3.72-4.2"/><path class="cls-1" d="M192.96,50.18c-.96-.97-1.46-2.32-1.51-4.06l-.02-.96,.02-.96c.05-1.74,.55-3.1,1.51-4.06,.96-.97,2.29-1.45,4-1.45,1.15,0,2.12,.21,2.91,.61,.79,.41,1.38,.92,1.77,1.52,.39,.61,.6,1.21,.64,1.82,.02,.14-.04,.27-.16,.38-.12,.11-.25,.17-.4,.17h-1.05c-.16,0-.28-.03-.36-.11-.08-.07-.16-.2-.24-.39-.29-.78-.68-1.34-1.19-1.67-.5-.33-1.14-.49-1.91-.49-1.01,0-1.81,.31-2.4,.93-.59,.62-.91,1.57-.96,2.85l-.02,.84,.02,.84c.05,1.28,.37,2.23,.96,2.85,.59,.62,1.39,.94,2.4,.94,.78,0,1.42-.16,1.92-.49s.89-.88,1.17-1.67c.08-.19,.16-.32,.24-.39,.08-.07,.2-.11,.36-.11h1.05c.14,0,.28,.06,.4,.17,.12,.11,.17,.24,.16,.38-.03,.59-.24,1.19-.64,1.8-.39,.61-.98,1.12-1.77,1.53-.79,.41-1.76,.62-2.91,.62-1.71,0-3.04-.48-4-1.45"/><path class="cls-1" d="M204.72,51.23c-.1-.1-.16-.24-.16-.4v-11.36c0-.16,.05-.29,.16-.4,.1-.1,.24-.16,.4-.16h1.05c.16,0,.29,.05,.4,.16,.1,.1,.16,.24,.16,.4v11.36c0,.16-.05,.29-.16,.4-.1,.1-.24,.16-.4,.16h-1.05c-.16,0-.29-.05-.4-.16m-.19-14.82c-.1-.1-.16-.24-.16-.4v-1.25c0-.16,.05-.29,.16-.41,.1-.11,.24-.17,.4-.17h1.41c.16,0,.3,.06,.41,.17,.11,.11,.17,.25,.17,.41v1.25c0,.16-.06,.29-.17,.4-.11,.1-.25,.16-.41,.16h-1.41c-.16,0-.29-.05-.4-.16"/><path class="cls-1" d="M210.8,47.19v-6.42h-1.89c-.16,0-.29-.05-.38-.14-.1-.1-.14-.22-.14-.38v-.77c0-.16,.05-.29,.14-.4,.1-.1,.22-.16,.38-.16h1.89v-4c0-.16,.05-.29,.14-.4,.1-.1,.22-.16,.38-.16h1.06c.16,0,.29,.05,.4,.16s.16,.24,.16,.4v4h2.97c.16,0,.29,.05,.4,.16s.16,.24,.16,.4v.77c0,.16-.05,.29-.16,.38-.1,.1-.24,.14-.4,.14h-2.97v6.26c0,.81,.13,1.43,.4,1.85s.71,.62,1.35,.62h1.46c.16,0,.29,.05,.38,.16,.1,.1,.14,.24,.14,.4v.79c0,.16-.05,.29-.14,.4-.1,.1-.22,.16-.38,.16h-1.63c-2.48,0-3.72-1.4-3.72-4.2"/><path class="cls-1" d="M220.24,55.8c-.1-.1-.14-.21-.14-.34,0-.05,.04-.19,.12-.43l1.87-4.39-4.58-10.81c-.1-.19-.14-.33-.14-.41,.02-.14,.07-.27,.17-.36,.1-.1,.21-.14,.34-.14h1.1c.26,0,.45,.13,.58,.38l3.69,8.82,3.79-8.82c.13-.26,.32-.38,.57-.38h1.08c.13,0,.24,.05,.34,.14s.14,.21,.14,.34c0,.11-.04,.26-.12,.43l-6.79,15.73c-.08,.13-.16,.22-.25,.29-.09,.06-.2,.1-.35,.1h-1.05c-.14,0-.26-.05-.36-.14"/><path class="cls-3" d="M68.7,60.59c0,.46-.25,.88-.64,1.11l-6.96,4.04-15.19-8.8,15.19-8.81,7.6,4.4v8.06Zm7.66-3.25c0-.23-.12-.44-.28-.53L30.5,30.4l-15.24,8.79,60.12,34.82c.43,.25,.97-.06,.97-.56v-16.11Z"/><path class="cls-3" d="M7.58,26.77c0-.46,.25-.88,.64-1.11l7.04-4.09L1.05,13.34c-.43-.25-.97,.06-.97,.56V30.03c0,.23,.12,.44,.32,.55l7.17,4.13v-7.94Z"/><path class="cls-4" d="M7.58,34.71v7.82c0,.5,.54,.81,.97,.56l6.72-3.9-7.69-4.48Z"/><path class="cls-4" d="M15.27,21.58l15.19,8.8,22.49-13.05c.2-.11,.32-.33,.32-.55V.65c0-.5-.54-.81-.97-.56L15.27,21.58Z"/><path class="cls-2" d="M15.27,39.19l15.19-8.81-15.19-8.8-7.04,4.09c-.4,.23-.64,.65-.64,1.11v7.94l7.69,4.48Z"/><path class="cls-1" d="M45.91,56.94l-22.57,13.1c-.2,.12-.32,.33-.32,.56v16.12c0,.5,.54,.81,.97,.56l44.07-25.57-6.96,4.04-15.19-8.8Z"/><path class="cls-1" d="M67.73,44.27l-11.45,6.64,4.82-2.79,7.6,4.4v8.06c0,.06,0,.11-.01,.17,0-.06,.01-.11,.01-.17v-15.75c0-.5-.54-.81-.97-.56"/><path class="cls-2" d="M61.09,48.12l-15.19,8.81,15.19,8.8,6.96-4.04c.4-.23,.64-.65,.64-1.11v-8.06l-7.6-4.41Z"/></g></g></svg>