<?xml version="1.0" encoding="UTF-8"?><svg id="Layer_2" xmlns="http://www.w3.org/2000/svg" viewBox="0 0 135.19 70.42"><defs><style>.cls-1{fill:#008c68;}.cls-2{fill:#ef7f3c;}.cls-3{fill:#cccb00;}.cls-4{fill:#e5007e;}.cls-5{fill:#a7b0af;}</style></defs><g id="Layer_1-2"><g><g><path class="cls-1" d="M75.38,26.68h0c-3.76-4.41-9.09-6.46-14.62-6.45-8.92,.01-18.5,5.2-23.96,14.36h0c-5.01,8.44-13.9,13.19-21.88,13.18-4.96,0-9.52-1.79-12.78-5.6-.43-.51-1.2-.57-1.71-.13-.51,.43-.57,1.2-.13,1.7,3.75,4.4,9.07,6.45,14.59,6.45h.03c8.92-.01,18.5-5.2,23.96-14.36h0c5-8.44,13.89-13.2,21.88-13.19,4.96,0,9.52,1.79,12.78,5.6,.43,.51,1.2,.57,1.71,.13,.51-.43,.57-1.2,.13-1.7"/><path class="cls-3" d="M75.27,18.51c-3.57-3.18-8.21-4.82-13.05-4.82-9.9,0-20.67,6.84-25.52,21.12h0c-4.61,13.47-14.46,19.48-23.23,19.49-4.3,0-8.34-1.45-11.44-4.21-.5-.44-1.26-.4-1.71,.1-.44,.5-.4,1.26,.1,1.71h0c3.57,3.18,8.21,4.82,13.05,4.82h.02c9.89,0,20.65-6.85,25.5-21.12h0c4.61-13.48,14.46-19.49,23.23-19.5,4.3,0,8.34,1.45,11.44,4.21,.5,.44,1.26,.4,1.71-.1,.44-.5,.4-1.26-.1-1.71"/><path class="cls-2" d="M75.13,10.36c-3.33-2.19-7.38-3.42-11.61-3.42-5.41,0-11.14,2.02-15.99,6.55-4.85,4.53-8.82,11.55-10.88,21.47h0c-1.98,9.55-5.74,16.07-10.16,20.19-4.42,4.13-9.52,5.9-14.34,5.9-3.76,0-7.36-1.09-10.28-3.02-.56-.37-1.31-.21-1.67,.34-.37,.56-.21,1.31,.34,1.68,3.33,2.19,7.38,3.42,11.61,3.42h.01c5.41,0,11.13-2.02,15.97-6.55,4.85-4.53,8.82-11.54,10.88-21.47h0c1.98-9.55,5.74-16.07,10.16-20.2,4.42-4.13,9.52-5.9,14.34-5.9,3.76,0,7.35,1.09,10.28,3.02,.56,.37,1.31,.21,1.67-.34,.37-.56,.21-1.31-.34-1.68"/></g><g><path class="cls-5" d="M46.62,50.26c-.68,0-1.33-.11-1.95-.32-.62-.22-1.13-.48-1.53-.8-.4-.32-.71-.65-.93-.99l1.21-.9c.18,.26,.4,.49,.65,.69,.25,.2,.52,.37,.81,.5,.29,.13,.59,.24,.91,.31,.32,.07,.63,.11,.94,.11,.52,0,.97-.09,1.37-.28,.39-.19,.68-.45,.85-.8,.17-.35,.26-.71,.26-1.1,0-.48-.15-.89-.44-1.23s-.69-.64-1.2-.9c-.51-.26-1.03-.49-1.56-.71-.4-.16-.8-.34-1.2-.54-.4-.2-.76-.44-1.08-.72-.32-.28-.58-.61-.78-.99-.2-.38-.3-.83-.3-1.34,0-.77,.23-1.43,.7-1.96,.46-.53,1.01-.88,1.62-1.06,.62-.18,1.19-.27,1.71-.27,.41,0,.8,.04,1.2,.12,.39,.08,.77,.2,1.12,.36,.36,.17,.69,.37,.99,.62,.31,.25,.57,.55,.8,.89l-1.17,.93c-.25-.34-.56-.64-.92-.89s-.72-.42-1.07-.52c-.35-.1-.65-.15-.92-.15-.46,0-.89,.1-1.3,.3-.41,.2-.7,.44-.88,.71-.17,.27-.26,.55-.26,.82s.05,.5,.15,.71,.23,.38,.39,.54c.16,.16,.34,.29,.54,.41,.2,.12,.41,.22,.62,.32,.37,.17,.69,.3,.95,.38,1.09,.46,1.92,.88,2.48,1.28s.93,.83,1.13,1.31,.29,.98,.29,1.52c0,.62-.11,1.17-.34,1.62-.22,.46-.53,.83-.91,1.13-.38,.29-.82,.51-1.33,.65-.51,.14-1.05,.22-1.62,.22"/><path class="cls-5" d="M46.62,50.26c-.68,0-1.33-.11-1.95-.32-.62-.22-1.13-.48-1.53-.8-.4-.32-.71-.65-.93-.99l1.21-.9c.18,.26,.4,.49,.65,.69,.25,.2,.52,.37,.81,.5,.29,.13,.59,.24,.91,.31,.32,.07,.63,.11,.94,.11,.52,0,.97-.09,1.37-.28,.39-.19,.68-.45,.85-.8,.17-.35,.26-.71,.26-1.1,0-.48-.15-.89-.44-1.23s-.69-.64-1.2-.9c-.51-.26-1.03-.49-1.56-.71-.4-.16-.8-.34-1.2-.54-.4-.2-.76-.44-1.08-.72-.32-.28-.58-.61-.78-.99-.2-.38-.3-.83-.3-1.34,0-.77,.23-1.43,.7-1.96,.46-.53,1.01-.88,1.62-1.06,.62-.18,1.19-.27,1.71-.27,.41,0,.8,.04,1.2,.12,.39,.08,.77,.2,1.12,.36,.36,.17,.69,.37,.99,.62,.31,.25,.57,.55,.8,.89l-1.17,.93c-.25-.34-.56-.64-.92-.89s-.72-.42-1.07-.52c-.35-.1-.65-.15-.92-.15-.46,0-.89,.1-1.3,.3-.41,.2-.7,.44-.88,.71-.17,.27-.26,.55-.26,.82s.05,.5,.15,.71,.23,.38,.39,.54c.16,.16,.34,.29,.54,.41,.2,.12,.41,.22,.62,.32,.37,.17,.69,.3,.95,.38,1.09,.46,1.92,.88,2.48,1.28s.93,.83,1.13,1.31,.29,.98,.29,1.52c0,.62-.11,1.17-.34,1.62-.22,.46-.53,.83-.91,1.13-.38,.29-.82,.51-1.33,.65-.51,.14-1.05,.22-1.62,.22"/><path class="cls-5" d="M55.46,50.2c-1.19,0-2.05-.3-2.61-.88-.55-.59-.83-1.48-.83-2.68v-5.79h1.48v5.87c0,.81,.19,1.39,.56,1.75,.37,.36,.92,.55,1.64,.55,.34,0,.69-.06,1.04-.17,.35-.11,.65-.25,.91-.41,.26-.16,.46-.31,.61-.45v-7.15h1.5v9.14h-1.37l-.09-.71c-.32,.24-.63,.43-.95,.57-.31,.13-.63,.23-.94,.28-.32,.05-.63,.08-.95,.08"/><path class="cls-5" d="M61.21,49.98v-9.14h1.37l.09,.73c.37-.28,.81-.51,1.31-.69,.5-.18,1.03-.27,1.58-.27,.92,0,1.65,.17,2.17,.51,.52,.34,.87,.8,1.02,1.38,.16,.58,.24,1.17,.24,1.78v5.69h-1.48v-5.73c0-.59-.1-1.07-.29-1.45-.2-.38-.47-.64-.81-.79-.35-.14-.71-.22-1.09-.22-.36,0-.7,.06-1.04,.16-.34,.11-.65,.24-.93,.41-.28,.16-.5,.31-.66,.44v7.17h-1.48Z"/><path class="cls-5" d="M74.15,50.2c-.64,0-1.22-.12-1.72-.37-.51-.25-.93-.59-1.28-1.03-.35-.44-.61-.95-.79-1.54-.18-.59-.27-1.24-.27-1.93,0-.59,.09-1.17,.28-1.73,.18-.56,.46-1.06,.82-1.51,.36-.44,.82-.8,1.37-1.07,.55-.27,1.19-.4,1.92-.4,.47,0,.87,.03,1.19,.1,.33,.07,.61,.15,.84,.23v-3.75h1.48v12.78h-1.36l-.12-.75c-.34,.35-.7,.6-1.08,.74-.38,.15-.81,.22-1.28,.22m.23-1.19c.39,0,.77-.08,1.14-.24,.37-.16,.7-.43,.99-.79v-5.73c-.07-.05-.18-.1-.31-.16-.13-.05-.28-.1-.45-.14-.17-.04-.34-.07-.52-.1-.18-.03-.35-.04-.52-.04-.53,0-.99,.1-1.39,.31-.4,.21-.72,.48-.99,.81-.26,.34-.46,.72-.59,1.16-.13,.43-.2,.88-.2,1.32,0,.51,.06,.99,.18,1.43s.29,.82,.53,1.14c.23,.32,.53,.57,.88,.76,.36,.18,.77,.28,1.24,.28"/><path class="cls-5" d="M83.56,50.2c-.68,0-1.3-.1-1.85-.31s-1.03-.52-1.41-.93c-.39-.41-.69-.91-.9-1.52-.21-.6-.32-1.3-.32-2.08,0-.72,.1-1.38,.29-1.96,.2-.58,.47-1.08,.83-1.49,.36-.41,.78-.73,1.29-.95,.5-.22,1.06-.34,1.67-.34,.99,0,1.8,.24,2.43,.73,.63,.49,1.05,1.1,1.27,1.83,.22,.73,.33,1.45,.34,2.14h-6.65c0,.57,.07,1.08,.21,1.54,.14,.46,.34,.84,.6,1.16,.26,.32,.58,.56,.96,.73s.81,.26,1.3,.26c.39,0,.77-.09,1.12-.26,.36-.17,.63-.36,.82-.58s.35-.42,.47-.63l.97,.65c-.27,.46-.59,.85-.95,1.16-.36,.31-.75,.53-1.17,.65-.42,.12-.86,.18-1.31,.18m-2.89-6.05h4.85c-.03-.56-.18-1.03-.44-1.41-.27-.38-.58-.63-.94-.77-.36-.13-.69-.2-.97-.2-.47,0-.89,.1-1.25,.31s-.63,.5-.83,.87c-.19,.37-.33,.77-.41,1.19"/><path class="cls-5" d="M88.49,49.98v-9.12h1.35l.11,.79c.17-.19,.4-.37,.66-.54,.27-.17,.53-.3,.78-.37,.25-.08,.47-.12,.66-.12,.28,0,.54,.02,.78,.06,.24,.04,.42,.07,.55,.11l-.27,1.36c-.16-.06-.33-.1-.52-.15-.19-.04-.42-.06-.68-.06-.33,0-.66,.09-1,.28-.34,.18-.65,.4-.94,.66v7.11h-1.48Z"/><rect class="cls-5" x="94.52" y="37.2" width="1.48" height="12.78"/><path class="cls-5" d="M100.27,50.2c-.4,0-.79-.06-1.16-.18-.37-.12-.71-.3-1-.54-.29-.24-.52-.54-.7-.9-.18-.36-.27-.77-.27-1.24,0-.64,.18-1.19,.55-1.64,.37-.45,.86-.8,1.48-1.05,.62-.25,1.23-.41,1.83-.48,.6-.07,1.16-.11,1.68-.12v-.11c0-.77-.17-1.32-.51-1.65-.34-.33-.8-.5-1.39-.5-.42,0-.81,.09-1.17,.28-.35,.18-.65,.43-.88,.74l-1.04-.73c.27-.37,.57-.67,.92-.88,.34-.22,.72-.36,1.12-.44,.4-.08,.8-.12,1.18-.12,.8,0,1.44,.15,1.93,.44,.49,.29,.83,.71,1.02,1.25,.19,.54,.29,1.11,.29,1.72v5.96h-1.34l-.07-.79c-.32,.32-.68,.56-1.1,.74-.42,.17-.87,.26-1.37,.26m.17-1.21c.45,0,.86-.09,1.24-.28,.38-.18,.71-.41,1.01-.67v-2.84c-.51,.01-1,.05-1.47,.11-.47,.06-.92,.18-1.35,.35-.42,.17-.73,.41-.93,.7-.2,.29-.29,.62-.29,.98,0,.29,.06,.54,.17,.75,.11,.21,.26,.37,.43,.51,.17,.13,.37,.23,.58,.29,.21,.06,.42,.09,.62,.09"/><path class="cls-5" d="M105.49,49.98v-9.14h1.37l.09,.73c.37-.28,.81-.51,1.31-.69,.5-.18,1.03-.27,1.58-.27,.92,0,1.65,.17,2.17,.51,.52,.34,.87,.8,1.03,1.38,.16,.58,.24,1.17,.24,1.78v5.69h-1.48v-5.73c0-.59-.1-1.07-.3-1.45-.2-.38-.47-.64-.81-.79-.35-.14-.71-.22-1.09-.22-.36,0-.7,.06-1.04,.16-.34,.11-.65,.24-.93,.41-.28,.16-.5,.31-.66,.44v7.17h-1.48Z"/><path class="cls-5" d="M118.46,50.2c-.64,0-1.22-.12-1.72-.37-.5-.25-.93-.59-1.28-1.03-.35-.44-.61-.95-.79-1.54-.18-.59-.27-1.24-.27-1.93,0-.59,.09-1.17,.28-1.73,.18-.56,.46-1.06,.82-1.51,.37-.44,.82-.8,1.37-1.07s1.19-.4,1.92-.4c.47,0,.87,.03,1.19,.1,.33,.07,.61,.15,.84,.23v-3.75h1.48v12.78h-1.36l-.12-.75c-.34,.35-.7,.6-1.08,.74-.38,.15-.81,.22-1.28,.22m.23-1.19c.39,0,.77-.08,1.14-.24,.37-.16,.7-.43,.99-.79v-5.73c-.07-.05-.18-.1-.31-.16-.13-.05-.28-.1-.45-.14-.17-.04-.34-.07-.51-.1-.18-.03-.35-.04-.52-.04-.53,0-.99,.1-1.39,.31-.4,.21-.73,.48-.99,.81-.26,.34-.46,.72-.59,1.16-.13,.43-.2,.88-.2,1.32,0,.51,.06,.99,.18,1.43,.12,.44,.29,.82,.53,1.14,.23,.32,.53,.57,.88,.76,.36,.18,.77,.28,1.24,.28"/><path class="cls-5" d="M46.62,66.41c-.68,0-1.33-.11-1.95-.32-.62-.22-1.13-.48-1.53-.8-.4-.32-.71-.65-.93-.99l1.21-.9c.18,.26,.4,.49,.65,.69,.25,.2,.52,.37,.81,.5,.29,.13,.59,.24,.91,.31,.32,.07,.63,.11,.94,.11,.52,0,.97-.09,1.37-.28,.39-.19,.68-.45,.85-.8,.17-.35,.26-.71,.26-1.1,0-.48-.15-.89-.44-1.23-.29-.34-.69-.64-1.2-.9-.51-.26-1.03-.49-1.56-.71-.4-.16-.8-.34-1.2-.54-.4-.2-.76-.43-1.08-.72-.32-.28-.58-.61-.78-.99-.2-.38-.3-.82-.3-1.34,0-.77,.23-1.43,.7-1.96,.46-.53,1.01-.88,1.62-1.06,.62-.18,1.19-.27,1.71-.27,.41,0,.8,.04,1.2,.12,.39,.08,.77,.2,1.12,.36,.36,.17,.69,.37,.99,.62,.31,.25,.57,.55,.8,.89l-1.17,.93c-.25-.34-.56-.64-.92-.89s-.72-.42-1.07-.52c-.35-.1-.65-.15-.92-.15-.46,0-.89,.1-1.3,.3-.41,.2-.7,.44-.88,.71-.17,.27-.26,.55-.26,.82s.05,.5,.15,.71c.1,.2,.23,.38,.39,.54,.16,.16,.34,.29,.54,.41,.2,.12,.41,.22,.62,.32,.37,.17,.69,.3,.95,.38,1.09,.46,1.92,.88,2.48,1.28s.93,.83,1.13,1.31c.19,.48,.29,.98,.29,1.52,0,.62-.11,1.17-.34,1.62-.22,.46-.53,.83-.91,1.13-.38,.29-.82,.51-1.33,.66-.51,.14-1.05,.22-1.62,.22"/><path class="cls-5" d="M55.9,66.36c-.71,0-1.32-.14-1.85-.42-.53-.28-.97-.64-1.33-1.1-.36-.46-.62-.97-.8-1.55-.18-.58-.27-1.17-.27-1.77s.09-1.18,.26-1.75c.17-.57,.44-1.07,.79-1.52,.36-.45,.8-.8,1.33-1.07s1.16-.4,1.87-.4c1,0,1.85,.28,2.53,.84s1.14,1.21,1.38,1.95c.23,.74,.35,1.41,.35,2.01s-.09,1.19-.27,1.76c-.18,.57-.44,1.09-.8,1.54-.36,.45-.8,.81-1.33,1.09-.53,.27-1.15,.41-1.86,.41m0-1.19c.47,0,.88-.1,1.23-.31,.35-.21,.65-.48,.88-.82,.23-.34,.41-.73,.53-1.17,.12-.44,.18-.88,.18-1.33,0-.73-.14-1.39-.42-1.97-.28-.58-.63-1-1.06-1.25-.43-.25-.87-.38-1.34-.38s-.88,.1-1.23,.31c-.35,.21-.64,.48-.87,.81-.23,.33-.4,.72-.52,1.15-.12,.43-.17,.87-.17,1.32s.06,.9,.17,1.34c.12,.44,.29,.83,.52,1.17,.23,.34,.53,.62,.88,.83,.35,.21,.76,.31,1.23,.31"/><path class="cls-5" d="M61.75,66.14v-7.94h-1.34v-1.21h1.36v-.67c0-.59,.07-1.08,.21-1.49,.14-.41,.33-.74,.57-1,.24-.26,.53-.44,.87-.56,.33-.12,.7-.17,1.1-.17,.49,0,.91,.05,1.24,.15,.34,.1,.63,.22,.89,.36l-.45,1.12c-.21-.11-.45-.2-.72-.28-.26-.08-.56-.12-.89-.12-.36,0-.63,.07-.83,.22-.2,.15-.34,.38-.41,.69-.07,.31-.11,.68-.11,1.1v.65h2.18v1.21h-2.16v7.94h-1.5Z"/><path class="cls-5" d="M68.96,66.36c-.68,0-1.21-.17-1.58-.52-.37-.35-.56-.89-.56-1.63v-6h-1.57v-1.21h1.57v-2.49h1.48v2.49h2.96v1.21h-2.99v5.85c0,.32,.05,.56,.15,.74,.1,.17,.22,.28,.36,.32,.14,.04,.28,.06,.42,.06,.24,0,.46-.05,.68-.16,.22-.11,.42-.23,.6-.36l.57,1c-.26,.21-.49,.35-.69,.44-.2,.09-.41,.15-.65,.2-.24,.05-.49,.07-.75,.07"/><polygon class="cls-5" points="73.43 66.14 70.4 57 71.99 57 74.06 63.88 76.3 57 77.14 57 79.41 63.88 81.48 57 83.07 57 80.04 66.14 78.89 66.14 76.72 59.55 74.57 66.14 73.43 66.14"/><path class="cls-5" d="M86.16,66.36c-.4,0-.79-.06-1.16-.18-.37-.12-.71-.3-1-.54-.29-.24-.52-.54-.7-.9-.18-.36-.27-.77-.27-1.24,0-.64,.18-1.19,.55-1.64,.37-.45,.86-.8,1.48-1.05,.62-.25,1.23-.41,1.83-.48,.6-.07,1.16-.11,1.68-.12v-.11c0-.77-.17-1.32-.5-1.65-.34-.33-.8-.5-1.4-.5-.42,0-.81,.09-1.17,.28-.35,.18-.65,.43-.88,.74l-1.04-.73c.27-.37,.57-.67,.92-.88,.34-.22,.72-.36,1.12-.44,.41-.08,.8-.12,1.18-.12,.8,0,1.44,.15,1.93,.44,.49,.29,.83,.71,1.02,1.24,.19,.54,.29,1.11,.29,1.72v5.96h-1.34l-.07-.79c-.32,.32-.68,.56-1.1,.74-.42,.17-.87,.26-1.37,.26m.17-1.21c.45,0,.86-.09,1.24-.28,.38-.18,.71-.41,1.01-.67v-2.84c-.5,.01-1,.05-1.47,.11-.47,.06-.92,.18-1.35,.35-.42,.18-.73,.41-.93,.7-.2,.29-.29,.62-.29,.98,0,.29,.06,.54,.17,.75,.11,.21,.26,.37,.43,.5,.17,.13,.37,.23,.58,.29,.21,.06,.42,.09,.62,.09"/><path class="cls-5" d="M91.38,66.14v-9.12h1.35l.11,.79c.17-.19,.4-.37,.66-.54,.27-.17,.53-.3,.78-.37,.25-.08,.47-.12,.66-.12,.28,0,.54,.02,.78,.06,.24,.04,.42,.07,.55,.11l-.27,1.36c-.16-.06-.33-.1-.52-.15-.19-.04-.42-.06-.68-.06-.32,0-.66,.09-1,.28-.34,.18-.65,.4-.94,.66v7.11h-1.48Z"/><path class="cls-5" d="M100.63,66.36c-.68,0-1.3-.1-1.85-.31s-1.03-.52-1.41-.93c-.39-.41-.69-.91-.9-1.52-.21-.6-.32-1.3-.32-2.08,0-.72,.1-1.38,.29-1.96,.2-.58,.47-1.08,.83-1.49,.36-.41,.78-.73,1.29-.95,.5-.22,1.06-.34,1.67-.34,.99,0,1.8,.24,2.43,.73,.63,.49,1.05,1.1,1.27,1.83,.22,.73,.33,1.45,.34,2.14h-6.65c0,.57,.07,1.08,.21,1.54,.14,.45,.34,.84,.6,1.16,.26,.32,.58,.56,.96,.73s.81,.26,1.3,.26c.39,0,.77-.09,1.12-.26,.36-.17,.63-.36,.82-.58s.35-.42,.47-.63l.97,.65c-.27,.46-.59,.85-.95,1.16-.36,.31-.75,.53-1.17,.65-.42,.12-.86,.18-1.31,.18m-2.89-6.05h4.85c-.03-.56-.18-1.03-.44-1.41-.27-.38-.58-.63-.94-.77-.36-.13-.69-.2-.97-.2-.47,0-.89,.1-1.25,.31s-.63,.5-.83,.87c-.19,.37-.33,.77-.41,1.19"/><path class="cls-5" d="M113.75,66.4c-.74,0-1.44-.13-2.09-.37s-1.21-.64-1.69-1.17c-.48-.53-.86-1.21-1.14-2.05-.28-.84-.42-1.84-.42-3,0-1.05,.12-1.98,.35-2.77,.23-.79,.55-1.45,.95-1.98,.4-.53,.83-.94,1.3-1.23,.47-.29,.91-.48,1.33-.57,.42-.09,.8-.13,1.16-.13,.71,0,1.37,.13,1.97,.39,.6,.26,1.09,.6,1.46,1.01,.38,.42,.66,.82,.85,1.23l-1.25,.75c-.11-.23-.26-.46-.45-.7-.19-.23-.41-.45-.66-.64-.25-.19-.52-.34-.82-.46-.3-.12-.62-.18-.97-.18-.56,0-1.05,.12-1.5,.36-.44,.24-.82,.58-1.13,1.04-.31,.46-.55,1.01-.71,1.67-.17,.66-.25,1.4-.25,2.24s.1,1.58,.29,2.22c.19,.64,.45,1.18,.79,1.62,.33,.44,.73,.77,1.18,1,.45,.22,.94,.34,1.47,.34s.96-.1,1.36-.31c.4-.21,.72-.46,.96-.76,.24-.3,.44-.59,.59-.85l1.17,.75c-.29,.53-.63,.99-1.04,1.39-.41,.4-.88,.7-1.42,.89s-1.08,.29-1.64,.29"/><path class="cls-5" d="M119.68,55.54c-.19,0-.37-.06-.54-.18-.17-.12-.29-.27-.35-.43-.06-.16-.09-.32-.09-.47,0-.22,.05-.41,.14-.58s.23-.3,.39-.38c.16-.09,.31-.13,.44-.13,.21,0,.39,.07,.55,.2,.16,.13,.27,.28,.34,.44,.06,.16,.09,.31,.09,.46,0,.22-.05,.43-.16,.6-.11,.18-.24,.3-.39,.37-.16,.07-.3,.11-.43,.11m-.75,1.46h1.5v9.14h-1.5v-9.14Z"/><path class="cls-5" d="M125.06,66.36c-.68,0-1.21-.17-1.58-.52-.37-.35-.56-.89-.56-1.63v-6h-1.57v-1.21h1.57v-2.49h1.48v2.49h3.41v1.21h-3.43v5.85c0,.32,.05,.56,.15,.74,.1,.17,.22,.28,.36,.32,.14,.04,.28,.06,.42,.06,.24,0,.47-.05,.68-.16,.22-.11,.42-.23,.6-.36l.57,1c-.26,.21-.49,.35-.69,.44-.2,.09-.41,.15-.65,.2-.24,.05-.49,.07-.75,.07"/><path class="cls-5" d="M128.25,70.02c-.2,0-.47-.04-.8-.11-.33-.07-.63-.16-.89-.26l.42-1.1c.14,.05,.31,.1,.53,.15,.22,.05,.43,.07,.64,.07,.28,0,.51-.07,.68-.21,.17-.14,.35-.42,.53-.83l.75-1.83-3.6-8.91h1.68l2.7,7.04,2.7-7.04h1.59l-4.68,11.56c-.16,.39-.38,.69-.65,.92-.27,.22-.55,.37-.85,.44-.3,.07-.55,.1-.77,.1"/></g><path class="cls-4" d="M74.97,2.23h0C71.97,.83,68.5,0,64.88,0c-5.89,0-12.22,2.23-17.4,7.77-5.19,5.54-9.22,14.3-10.84,27.29h0c-1.58,12.64-5.47,20.88-10.21,25.93-4.74,5.05-10.34,7-15.63,7.01-3.25,0-6.38-.75-9.07-2-.61-.28-1.32-.02-1.61,.59s-.02,1.32,.59,1.61H.7c3,1.4,6.47,2.23,10.09,2.23h.03c5.88,0,12.19-2.24,17.37-7.77,5.19-5.54,9.22-14.3,10.84-27.28h0c1.58-12.64,5.47-20.88,10.21-25.94,4.74-5.05,10.34-7,15.63-7.01,3.25,0,6.38,.75,9.07,2,.61,.28,1.32,.02,1.61-.59,.28-.61,.02-1.32-.59-1.61"/></g></g></svg>